<?xml version="1.0" encoding="UTF-8"?><svg id="a" xmlns="http://www.w3.org/2000/svg" width="589.61" height="589.61" xmlns:xlink="http://www.w3.org/1999/xlink" viewBox="0 0 589.61 589.61"><defs><clipPath id="b"><path d="m349.58,367.54v36.4c0,31.97-22.97,65.57-54.78,76.65-31.81-11.08-54.78-44.68-54.78-76.65v-36.4h109.56Z" fill="none"/></clipPath><filter id="c" filterUnits="userSpaceOnUse"><feOffset dx="0" dy="2"/><feGaussianBlur result="d" stdDeviation="3"/><feFlood flood-color="#000" flood-opacity=".3"/><feComposite in2="d" operator="in"/><feComposite in="SourceGraphic"/></filter><filter id="e" filterUnits="userSpaceOnUse"><feOffset dx="0" dy="2"/><feGaussianBlur result="f" stdDeviation="3"/><feFlood flood-color="#000" flood-opacity=".3"/><feComposite in2="f" operator="in"/><feComposite in="SourceGraphic"/></filter></defs><circle cx="294.8" cy="294.8" r="287.3" fill="#007b34" stroke="#000" stroke-miterlimit="10" stroke-width="15"/><circle cx="294.8" cy="294.8" r="216.01" fill="#65b6ff"/><path d="m504.71,296.87c-1.87-45.97-41.4-173.49-116.5-185.3l-.45,5.17c-7.3-5.39-11.9.91-10.93,8.34.11,4.38-2.37,6.92,1.09,10.88-3.33,4.71.52,8.3-5.43,9.55-1.39.52-1.65.9-1.66,2.4,1.4,15.57-11.27,3.63-17.31,13.57-.24.21-1.11.15-1.25-.07-3.62-4.09,1.53-9.33-.96-13.93-1.32-2.49.1-5.24-1.02-7.62-.68-1.03-.67-2.31.13-2.96,1.32-1.07,1.66-2.38,1.49-3.97-.42-3.36.36-4.04,2.59-6.16,3.27-8.07-1.23-13.49,5.35-21.05,4.25-11.24-49.53-12.29-50.73-13.84v3.71s-.03,0-.05,0c.18,3.14-.61,5.66-3.13,7.61-3.09,3.86,2.65,9.39.11,13.62-.74,1.93-2.58,2.79-4.03,4.11-3.33,3.38,3.24,7.58-2.54,10.08,1.19,3.03,5.4,3.68,6.19,6.63-1.46,4.1-1.25,9.21-5.82,10.91-4.1,1.12-7.65,5.99-1.58,7,3.86.41,8.53.88,10.97,4.28,2.27,2.07,3.53,4.07,2.11,7.09-1.27,2.09,1.98,5.4,4.16,4.18,2.78-1.36,5.37-.22,5.92,2.84.1,2.93,2.21,9.12-2.34,9.37-1.21.04-2.76-.86-3.9-.48-1.63,1.19-5.94,9.37-2.32,9.58,3.69.99.16-6.92,8.94-4.13,1.93,6.65,1.64,14.27.37,21.05-1.95,5.12-7.72,2.15-11.52,3.52-2.19,2.41-5.19,5.17-8.36,2.34-8.05-3.66-4.34-9.19-12.59-9.09-4.07-.71-3.01-4.65-3.34-7.62-.54-1.97-1.28-3.89-2.03-6.11,8.24-7.47,4.9-17.61.85-26.35-1.7-3.17-4.94-5.08-5.56-8.83-.52-1.62-.16-3.76-1.09-5.17-1.94-1.57-2.6-3.89-3.3-6.03-2.1-5.27-.73-11-1.38-16.3-.6-6.88,2.89-13.52,5.4-19.73.09-4.84-.75-9.58.71-14.31-.13,0-.22,0-.33,0l2.22-5.42-86.38,17.94,4.75,10.3h.03s0,0,0,.01c1.78,2.32,2.93,5.31,5.84,6.46.45.2,1.03.62,1.13,1.04.55,2.35,1.77,4.37,2.93,6.44,2.14,2.79,8.27.85,8.4,5.8.08,3.91,2.78,4.8,6.17,5.57,1.87,1.29,2.26,3.74,3.58,5.34,1.52.84,2.77,1.76,3.55,3.44,1.39,2.01,2.52,5.31,5.03,6.02,4.27.3,8.95-.81,12.68,1.8,4.21,5.77,2.32,9.66-4.11,12.03-2.54.19-3.03,3.83-5.48,4.13-2.01-.02-2.96-2.16-2.87-3.96-20.55-8.26-8.84.22-19.54-.26-5.12-3.26-9.58-9.78-16.56-8.99-5.09-.06-9.43,3-14.04,3.79-5.49-1.68-11.31,1.07-17.01.24-3.67.12-5.91-2.49-7.1-5.74-.49-1.21-1.28-2-2.59-2.28-2.11-1.59-4.29-3.53-6.68-4.76l-2.03-2.84-11.98,11.89,6.21,5.03,2.7-3.94,63.55,81.07,6.6,44.54c-3.07-1.17-4.07,4-2.93,6.19.73,1.99.84,4.19,2.58,5.61,5.56,6.06,10.24,13.64,11.17,21.88.29-.07.59-.15.88-.22l.09.47-20.26,5.87c1.93-14.8-5.47-10.37-1.82-18.19,1.2-6.5-8.59-10.04-5.54-16.53,2.25-6.74-8.47-7.09-3.18-17.05-6.67-1.65-2.87-6.13-5.41-9.88-3.84-1.08-5.81-4.41-5.13-8.29-3.38-.18-4.1-4.01-4.31-6.62-1.29-1.96-4.46-3.23-4.13-5.86-1.63-1.84-2.59-3.83-1.29-6.32-2.42-.77-4.01,1.06-4.93,2.89-3.74,3.31-10.3-1.3-15.03-.14-17.23,2.48-6.75-1.57-17.01-3.95-2.52-.18-6.5.68-6.97-2.77-.56-6.32-6.9-1.88-10.42-1.07-1.43.02-2.41-1.75-3.43-2.58-1.72-1.49-4.51-.63-5.06,1.56-4.79,9.69,1.35,18.83-13.31,10.82l-.13-.22c-5.77-1.32-19.59,28.53-19.59,28.53,5.09,97.25,34.66,169.3,135.13,205.56v-3.44h.36c1.7-3.81,1.7-8.48,4.14-11.79,2.7-2.89-.72-6.01.97-8.69.96-1.83,3.46-1.67,4.74-2.95,1.3-1.75,2.6-3.52,2.43-5.96-.11-5.81,9.1-2.43,9.94-7.72.45-2.7,2.15-5.09,3.24-7.51,8.43-1.56,12.98-1.16,8.95-11.14-.49-.03-1-.07-1.52-.1-.4-4.22,3.19-6.63,3.97-10.54,2.57-6.32,2.87-17.64,7.07-22.3,14.01-5.36,25.65-15.16,39.55-20.78,5.63-2.25,9.78-6.41,12.85-11.56,3.58-3.96,4.57-13.83,10.33-14.36,2.44.07,2.5-3.15,3.7-4.65,1.69-3.03,4.82-3.87,7.74-5.14,2.11-1.93,2.82-4.98,5.31-6.44,1.6-.75,1.57-2.1,1.69-3.66.63-4.13,4.24-9.96-.66-12.69-1.84-1.02-2.82-5.81.1-5.97,1.46.45,2.44-.86,3.21-1.91.6-1.43-.89-2.58-1.53-3.83-.17.06-.45.15-.78.26-.17-.36-.31-.65-.44-.92.24-.22.43-.39.46-.42-.53-1.13-1-2.12-1.51-3.19-.02,0-.31.1-.4.13-1.6-1.17-3.08-2.23-4.53-3.31l3.65-11.81,20.56,19.87s-.03.07-.05.13c3.48,2.31,7.63,1.07,11.46.59,2.89.48,6.36,2.33,8.96.37,2.29-2.18,5.31.44,7.2-1.64,2.69-2.16,6.5,1.01,8.43,3.03,1.03,1.96.91,4.47,1.37,6.63-.12.04-.23.08-.35.12,3.69,4.32,10.1,3.29,14.62,6.29,3.51,1.08,9.97-4.36,11.93-.57,1.33,3.53.86,5.64-1.08,8.82-2.69,3.27-7.41-.19-10.28-1.54-1.61-.25-5.32,5.24-2.58,5.82,5.63.81,9.3,4.72,13.98,7.65,1.3-2.56,1.28-5.07,1.95-7.77,3.09-6.74,9.88,2.26,7.18,6.88-3.17,6.63.45,14.17-2.12,20.96-.46,2.64.5,5.53-.94,7.98-.95,1.67-.45,3.14-.2,4.78,0,19.02,11.89,11.23,14,22.47-.2,10.47-1.01,21.21,9.14,27.33.06-.14.12-.25.18-.35h10.19s41.39-72.64,39.53-118.6Z" fill="#f5a771"/><path d="m294.8,93.79c27.14,0,53.47,5.31,78.24,15.79,23.93,10.12,45.43,24.62,63.9,43.08,18.47,18.47,32.96,39.96,43.08,63.9,10.48,24.77,15.79,51.09,15.79,78.24s-5.31,53.47-15.79,78.24c-10.12,23.93-24.62,45.43-43.08,63.9-18.47,18.47-39.96,32.96-63.9,43.08-24.77,10.48-51.09,15.79-78.24,15.79s-53.47-5.31-78.24-15.79c-23.93-10.12-45.43-24.62-63.9-43.08-18.47-18.47-32.96-39.96-43.08-63.9-10.48-24.77-15.79-51.09-15.79-78.24s5.31-53.47,15.79-78.24c10.12-23.93,24.62-45.43,43.08-63.9s39.96-32.96,63.9-43.08c24.77-10.48,51.09-15.79,78.24-15.79m0-15c-119.3,0-216.01,96.71-216.01,216.01s96.71,216.01,216.01,216.01,216.01-96.71,216.01-216.01-96.71-216.01-216.01-216.01h0Z" fill="#ed1c24"/><path d="m349.58,367.54v36.4c0,31.97-22.97,65.57-54.78,76.65-31.81-11.08-54.78-44.68-54.78-76.65v-36.4h109.56Z" fill="#b22234"/><rect x="240.02" y="367.54" width="109.56" height="34.46" fill="#3c3b6e"/><polygon points="334.14 374.38 336.6 381.97 344.58 381.97 338.13 386.66 340.59 394.25 334.14 389.56 327.68 394.25 330.15 386.66 323.69 381.97 331.67 381.97 334.14 374.38" fill="#fff"/><polygon points="255.47 374.38 257.94 381.97 265.92 381.97 259.46 386.66 261.93 394.25 255.47 389.56 249.01 394.25 251.48 386.66 245.02 381.97 253.01 381.97 255.47 374.38" fill="#fff"/><polygon points="281.69 374.38 284.16 381.97 292.14 381.97 285.68 386.66 288.15 394.25 281.69 389.56 275.24 394.25 277.7 386.66 271.25 381.97 279.23 381.97 281.69 374.38" fill="#fff"/><polygon points="307.92 374.38 310.38 381.97 318.36 381.97 311.91 386.66 314.37 394.25 307.92 389.56 301.46 394.25 303.93 386.66 297.47 381.97 305.45 381.97 307.92 374.38" fill="#fff"/><g clip-path="url(#b)"><rect x="255.68" y="402" width="15.65" height="88.63" fill="#fff"/><rect x="286.98" y="402" width="15.65" height="88.63" fill="#fff"/><rect x="318.28" y="402" width="15.65" height="88.63" fill="#fff"/></g><path d="m240.11,323.97s-49.12,15.03-51.05,15.97-4.53,1.52-2.69,3.99,6.27,6.01,7.84,6.01,12.11-7.05,24.44-9.21c0,0-11.14,8.24-18.26,10.77,0,0,9.35,2,17.52.45,0,0-3.93,4.68-2.82,5.79s8.32.37,10.17-.74,7.05-5.2,7.05-5.2l-6.41,8.76s3.96.3,7.3-1.41,5.94-5.05,9.87-6.46c0,0-1.7,4.75-2.96,6.61s-5.35,5.49-5.35,5.49c0,0,6.98-2.52,9.43-3.93s4.6-5.64,6.24-5.94l-2.4,6.91s1.78-1.2,3.41-1.7,8.49-5.51,9.79-7.62-3.59-26.88-3.59-26.88l-13.59-3.24-3.94,1.6Z" fill="#fff" stroke="#000" stroke-linejoin="round"/><path d="m298.69,324.12s-.39,8.67,1.38,12.3,5.63,9.68,5.63,9.68l-3.52,7.67-3.52-3.77-4.43,3.77-6.64-25.32,11.1-4.33Z" fill="#d9822b" stroke="#000" stroke-miterlimit="10"/><path d="m252.85,308.69c-9.92,5.64-12.74,15.28-12.74,15.28l3.94-1.6s.23,13.67-.8,16.09-.7,8.68,0,8.75,5.11-5.62,6.32-4.98,1.92,7.34,1.92,7.34l5.3-11.17s-1.28,7.34-1.21,9.64,4.09,3.38,4.28,3.9,0,1.66.51,2.11,1.53,1,1.72,1.97c0,0,1.34-6.25,2.43-7.85,0,0-.19,6.07.64,7.41s4.79,3.51,6.19,5.49,5.14,3.37,5.14,3.37c0,0,7.09-2.63,8.32-3.35s.33-11.33.33-11.33c0,0,8.6,5.81,10.92,16.07,0,0,2.19-1.06,2.5-2.69s-.88-6.07-.69-7.63.74-2.44.74-2.44c0,0,2.58,3.25,3.45,5.32s2.24,5.19,4.47,3.97,1.16-12.36,1.16-12.36c0,0-.39-2.3-1.99-3.9,0,0-3.73,2.45-4.26,5.33,0,0-2.04-2.01-2.24-5.31,0,0-2.47,1.96-3.14,4.16,0,0-3.96-16-4.16-18.35,0,0,5.18-4.94,6.78-7.8s6.92-9.46,6.92-9.46l58.93-87.32s-18.51,4.97-20.21,6.27-6.95,7.34-12.37,10.39-10.22,2.82-12.99,4.91-18.28,16.26-22.08,17.27-8.15.72-8.15.72l-26.86,10.99-9.04,30.79Z" fill="#663411" stroke="#000" stroke-miterlimit="10"/><path d="m270.72,321.19c-1.83.76-.59,6.9-2.61,10.71s-4.06,7.04-4.06,7.04l3.34-1.82-1.39,5.84s3.63-2.12,5.13-4.02c0,0,.85,1.57.14,3.86,0,0,2.39-2.78,3.36-2.65s3.42,2.81,3.42,2.81c0,0-.11-9.52-1.55-14.15s-4.3-8.24-5.78-7.62Z" fill="#d9822b" stroke="#000" stroke-miterlimit="10"/><path d="m281.07,333.26s.63-3.5,0-5.32-3.16-2.13-3.3-3.82,3.4-2.57,9.82-3.57,18.11-14.96,18.11-14.96l3.96-9.95,4.38.74s-.69,8.03-11.95,18.07-15.02,12.73-16.33,14.61-3,3.94-4.69,4.19Z" fill="#d9822b" stroke="#000" stroke-miterlimit="10"/><path d="m330.64,251.34s4.66-.76,6.41-4.41,9.56-7.59,11.31-9.99,1.56-5.45,5.91-6.7,10.28-2.89,10.28-2.89l-17.87,28.56-16.04-4.56Z" fill="#d9822b" stroke="#000" stroke-miterlimit="10"/><path d="m276.5,364.45s-5.78-5.2-5.78-11.55,3.58-7.51,6.82-4.16,3.81,6.7,4.74,9.36,2.54,3,2.54,3l-1.5,4.04-6.82-.69Z" fill="#ffa800" stroke="#000" stroke-miterlimit="10"/><path d="m306.54,362.37c-2.89-2.66-4.62-9.59,1.16-12.36,0,0,6.35,4.85,9.94,10.63s-11.09,1.73-11.09,1.73Z" fill="#ffa800" stroke="#000" stroke-miterlimit="10"/><path d="m260.76,363.94s-.42-4.57,2.49-4.99,9.77,2.08,10.08,5.61,0,5.3,0,5.3c0,0-1.29.99-2.34,1.58s-4.09-.17-5.01-1.17-5.23-6.33-5.23-6.33Z" fill="#ffa800" stroke="#000" stroke-miterlimit="10"/><path d="m257.04,375.84s-.86-4.29-.75-7.56,1.66-5.13,4.47-4.34,5.7,3.34,5.23,6.33c0,0-2.73.42-3.43.31,0,0-2.47,3.16-5.52,5.25Z" fill="#ffa800" stroke="#000" stroke-miterlimit="10"/><path d="m276.07,365.97s-1.29-1.55-1.23-3,1.07-4.4,3.97-3.81,7.29,4.99,6.27,7.35-5.36,1.13-5.36,1.13l-3.65-1.66Z" fill="#ffa800" stroke="#000" stroke-miterlimit="10"/><path d="m280.58,365.87c2.09.86,2.09,3.52,1.77,5.78s-2.68,5-2.68,5c0,0-1.5-5.95-2.63-7.24s-1.55-2.36-.97-3.43,4.5-.11,4.5-.11Z" fill="#ffa800" stroke="#000" stroke-miterlimit="10"/><path d="m286.03,364.93c0,2.69,3.24,4.37,3.24,4.37,0,0,4.14-1.81,5.08-2.66s1.94-2.81.78-4.43-5.85-2-7.68,0-1.41,2.73-1.41,2.73Z" fill="#ffa800" stroke="#000" stroke-miterlimit="10"/><path d="m289.26,369.3s2.04-1.13,2.84-2.47,1.68-1.71,3.01-1.55,5.08,1.45,5.24,4.34-.43,6.49-.43,6.49c0,0-3.24-3.61-5.11-4.46s-4.33-1.06-5.56-2.35Z" fill="#ffa800" stroke="#000" stroke-miterlimit="10"/><path d="m307.22,364.34c.67,1.94,3.7,5.13,5.57,4.96s4.97-1.43,5.09-3.83-2.3-5.94-5.94-6.38-6.24.89-4.72,5.25Z" fill="#ffa800" stroke="#000" stroke-miterlimit="10"/><path d="m311.88,364.82c1.98,1.98.91,4.47.91,4.47,0,0-1.88.08-2.54,1.38s-2.12,5.43-2.12,5.43c0,0-3.39-3.06-3.39-5.05s.24-5.69,2.48-6.72,3.39-.79,4.66.48Z" fill="#ffa800" stroke="#000" stroke-miterlimit="10"/><path d="m321.94,366.52s-3.16-.74-4.36-2.82.42-5.42,3.39-6.38,7.87-.99,8.36,1.78-1.94,6.16-1.94,6.16l-5.45,1.28Z" fill="#ffa800" stroke="#000" stroke-miterlimit="10"/><path d="m325.51,362.76c-1.88,1.27-3.57,3.76-3.57,3.76,0,0,2.85,3.15,2.79,4.54s-1.44,4.12-1.44,4.12c0,0,5.8-2.79,6.89-6.21s.26-5.78-1.44-6.21-3.22,0-3.22,0Z" fill="#ffa800" stroke="#000" stroke-miterlimit="10"/><path d="m337.14,365.79s-.55,1.09-2,1.09-3.63-1.21-3.63-3.45.18-5.85,4.66-6.71,7.21,2.48,6.42,5.08-5.45,3.99-5.45,3.99Z" fill="#ffa800" stroke="#000" stroke-miterlimit="10"/><path d="m340.17,361.25c-2.55-.21-4.18,2.06-3.88,3.21s3.39,2.66,3.39,4.42-.12,5.33-.12,5.33c0,0,4.48-2.36,4.79-6.12s-.48-6.54-4.18-6.85Z" fill="#ffa800" stroke="#000" stroke-miterlimit="10"/><path d="m184.02,256.63s-1.38,3.82,1.54,5.41,5.2.45,5.2.45c0,0-2.98,1.74-2.68,3.87s4.84,7.84,9.79,4.42c0,0-5.5,3.13-2.54,8.64,2.13,3.97,10.18,1.39,10.18,1.39,0,0-2.43.7-1.94,2.38s2.68,6.16,5.06,4.17,3.03-2.88,3.03-2.88c0,0-2.33,2.38-2.48,2.98s.15,3.18,4.87,3.87c1.69.25,3.43,0,3.43,0,0,0-.74,1.24.5,2.68s5.3,5.31,7.99,5.26,5.32-4.02,5.32-4.02c0,0-.6,2.19,0,4.02s3.71,5.96,6.32,5.86,4.75-3.92,4.75-3.92c0,0-.5,3.38,0,4.42s2.83,2.68,4.25,2.38,3.63-4.52,5.03-3.97c.76.3-.59,4.77,2.05,4.87s6.16-5.31,6.16-5.31c0,0,2.28.94,3.82.79s2.44-1.96,4.47-2.49l-16.5-18.56-59.58-39.24-8.01,12.54Z" fill="#fff" stroke="#000" stroke-linejoin="round"/><path d="m194.93,248.56s-.94,4.25,0,6.42,5.58,2.88,5.58,2.88c0,0-1.88,3.29.47,6.17s5.73,2.52,5.73,2.52c0,0-.68,4.88,2.26,6.94s5.35-.39,5.35-.39c0,0,.23,6.55,3.28,6.79s2.61-3.54,2.61-3.54c0,0-.44,4.48,1.03,6.24,0,0,1-2.88,3.29-3.35l5.05,8.4s1.55-.64,2.83-3.29c0,0,1.46,4.52,3.92,5.75,0,0,1.34-2.96,3.93-1.24,0,0-1.17,2.36,2.12,4.18s5.34,2.11,7.4,1.23,3.27-.41,3.27-.41l.43,2.88,7.28-.35s3.83,5.96,7.34,5.51,5.24-6.58,5.24-6.58l.97-9.42-46.81-40.39-32.99-.46.42,3.52Z" fill="#663411" stroke="#000" stroke-miterlimit="10"/><path d="m230.54,268.17s-3.97,4.18-6.01,11.07" fill="none" stroke="#000" stroke-miterlimit="10"/><path d="m251.61,280.24s-2.97,8.02-7.56,13.63" fill="none" stroke="#000" stroke-miterlimit="10"/><path d="m250.19,291.07s2.92-2.34,3.55-4.93,0-3.56,0-3.56l2.28-2.34" fill="none" stroke="#000" stroke-miterlimit="10"/><path d="m260.77,296.39s4.87-3.37,6.4-6.98.48-9.16.48-9.16" fill="none" stroke="#000" stroke-miterlimit="10"/><path d="m253.05,293.86s2.67-4.05,4.22-5" fill="#663411" stroke="#000" stroke-miterlimit="10"/><path d="m251.61,269.74s-3.8,2.9-5.28,3.77-5.72,2.34-6.07,7.37,0,7.98,0,7.98c0,0,2.54-7.68,4.13-8.58s2.3-.17,3.4-.65,3.82-4.06,3.82-4.06l1.44-3.88-1.44-1.95Z" fill="#d9822b" stroke="#000" stroke-miterlimit="10"/><path d="m232.41,270.64v13.7s4.64-6.85,6.72-9.28,10.41-8.16,10.41-8.16l-6.42-5.2-10.71,8.93Z" fill="#d9822b" stroke="#000" stroke-miterlimit="10"/><path d="m228.5,277.65s2.05-1.15,3.81-3.66,8.48-9.35,12.53-9.38,1.44-8.45,1.44-8.45c0,0-15.35,7.73-15.74,12s-2.04,9.49-2.04,9.49Z" fill="#d9822b" stroke="#000" stroke-miterlimit="10"/><path d="m223.52,266.62s-2.88,3.12-3.31,4.79,0,4.93,0,4.93c0,0,1.52-4.71,4.88-6.18s5.45-2,5.45-2l15.39-9.88-6.16-8.15-14.9,8.4-1.35,8.1Z" fill="#d9822b" stroke="#000" stroke-miterlimit="10"/><path d="m206.71,266.55s-.5-4.06,2-6.55,10.76-6.78,10.76-6.78l11.07-1.87s-.82,7.71-7.1,6.94-9.44,1.95-12.17,3.94-4.57,4.33-4.57,4.33Z" fill="#d9822b" stroke="#000" stroke-miterlimit="10"/><path d="m203.56,255.24s4.54-4.51,7.49-6.23,13.95-6.07,13.95-6.07c0,0,18.72.33,10.49,9.28,0,0-8.86.29-17.51,3.02h-14.43Z" fill="#d9822b" stroke="#000" stroke-miterlimit="10"/><path d="m214.32,273.1s-.31-2.26,1.64-6,7.49-8.81,7.49-8.81l5.54-5.44,8.6-1.5-.29,2.92s-6.53,4.17-9.1,6.67-4.68,5.69-4.68,5.69c0,0-5.01-3.18-9.2,6.47Z" fill="#d9822b" stroke="#000" stroke-miterlimit="10"/><path d="m192.98,248.06s12.62,1.72,19.67.78c0,0,5.02-2.42,10.95-2.42s9.91.5,9.91.5l4.8-3.15-7.92-7.02-29.33,2.42-8.07,8.89Z" fill="#d9822b" stroke="#000" stroke-miterlimit="10"/><path d="m257.28,288.86s2.62-5.77,3.15-8.62-.45-8.95,4.88-3.15.67,4.67.67,4.67c0,0-3.74,4.29-8.7,7.09Z" fill="#d9822b" stroke="#000" stroke-miterlimit="10"/><rect x="251.61" y="275.56" width="8.82" height="4.68" fill="#d9822b" stroke="#000" stroke-miterlimit="10"/><path d="m184.02,256.63s-7.27-4.98-6.44-8.94,7.33-7.96,7.33-7.96l8.54,1.66s.79,5.67-1.16,7.17-2.98,3.93-4.68,5.31-3.59,2.76-3.59,2.76Z" fill="#fff" stroke="#000" stroke-miterlimit="10"/><path d="m187.6,240.83s2.74,2.03,4.68,7.73c0,0,6.26-4.76,13.37-6.46s-3.44-6.82-3.44-6.82c0,0-13.58,1.29-14.61,5.55Z" fill="#663411" stroke="#000" stroke-miterlimit="10"/><path d="m189.67,240.07c4.38-.76,13.37.7,15.99,2.04,0,0,8.39-1.82,13.25-1.82s14.11,0,14.11,0l2.61-5.28s-25.05-6.38-34.04-2.13-11.91,7.2-11.91,7.2Z" fill="#d9822b" stroke="#000" stroke-miterlimit="10"/><path d="m165.54,232.57c-1.72,2.89-3.46,5.98,3.58,10.81,1.98,1.35,12.84.83,15.43-1.94s-10.27-14.04-10.27-14.04l-8.74,5.17Z" fill="#fff" stroke="#000" stroke-miterlimit="10"/><path d="m172.3,230.61s-.55,2.64,1.57,4.88,5.94,6.4,10.68,5.94,7.76-3.03,10.26-3.56c3.8-.8,7.4-2.6,7.4-2.6l-3.66-9.86-26.25,5.19Z" fill="#663411" stroke="#000" stroke-miterlimit="10"/><path d="m233.26,235.71c-3.98-1.41-12.88-1.31-15.3-1.03s-4.45-.24-7.33-.17-5.56.09-8.42.78c0,0-3.74-1.99-9.52-2.71s-12.09-2.16-17.58-2.06l20.39-9.93,40.47,7.56,2.34,7.56h-5.05Z" fill="#d9822b" stroke="#000" stroke-miterlimit="10"/><path d="m150.59,218.4c-.18,4.21.44,14.17,14.95,14.17,4.73,0,10.84-4.35,10.84-4.35l-13.62-16.64-12.17,6.82Z" fill="#fff" stroke="#000" stroke-miterlimit="10"/><path d="m164.97,218.1c-1.26,1.99-1.64,3.81,2.21,7.47s5.74,4.91,5.74,4.91c0,0,6.24.19,7.69-.5s1.77-2.02,4.16-2.02,16.26.24,16.26.24l-19.98-17.39-16.08,7.28Z" fill="#663411" stroke="#000" stroke-miterlimit="10"/><path d="m169.12,218.13c4.86,3.7,31.91,10.08,31.91,10.08,0,0,8.64-.05,13.74,1.02s12.22,1.47,16.64,1.14-1.89-6.95-1.89-6.95l-37.89-7.69-22.52,2.39Z" fill="#d9822b" stroke="#000" stroke-miterlimit="10"/><path d="m129.06,204.91c-.33,2.43,1.59,7.96,9.11,11.42s13.84,1.83,13.84,1.83l-5.19-19.36-17.76,6.11Z" fill="#fff" stroke="#000" stroke-miterlimit="10"/><path d="m143.65,204.61c.71,2.74,8.35,13.55,8.35,13.55,0,0,25.05-.34,35.46.59s19.57,2.14,19.57,2.14l-25.27-22.09-38.12,5.81Z" fill="#663411" stroke="#000" stroke-miterlimit="10"/><path d="m153.55,204.73s11.73,4.86,16.6,6.3,23.89,2.09,34.33,8.56c4.51,2.79,11.26,3.6,15.32,4.51s12.61,5.14,12.61,5.14l-1.32-11.19-44.63-16.02-32.91,2.71Z" fill="#d9822b" stroke="#000" stroke-miterlimit="10"/><path d="m106.68,192.4c-.25,1.77,5.47,8.67,9.71,10.61s16.14,1.99,16.14,1.99l-6.94-17.17-18.92,4.56Z" fill="#fff" stroke="#000" stroke-miterlimit="10"/><path d="m117.01,193.1c.35,1.28,3.87,2.56,5.8,4.05s7.92,7.2,9.71,7.86,12.55-.76,16.05-.58,36.58,2.13,52.75,6.56-7.16-7.43-7.16-7.43l-53.99-14.18-23.17,3.72Z" fill="#663411" stroke="#000" stroke-miterlimit="10"/><path d="m146.02,194.15c10.33,3.33,16.36,5.72,24.54,7.21s22.29,5.68,30.78,9.63,18.49,6.45,23.44,9.61l7.64-13.22-72.84-19.11-13.55,5.89Z" fill="#d9822b" stroke="#000" stroke-miterlimit="10"/><path d="m84.41,176.47c-1.33,1.44.6,3.86,4.02,6.54s11.78,8.7,17.8,9.35,9.91.73,9.91.73v-10l-6.41-10.65-25.31,4.02Z" fill="#fff" stroke="#000" stroke-miterlimit="10"/><path d="m107.01,178.38c-.73,1.16-1.72,1.2-1.55,2.49s2.27,4.12,3.22,6.69,5.83,1.89,7.46,5.53c0,0,45.75.6,60.94,4.53l-22.76-19.56-47.31.32Z" fill="#663411" stroke="#000" stroke-miterlimit="10"/><path d="m129.72,181.62l48.37,16.34s22.43,4.7,44.79,14.2l2.69-7.53-73.66-26.56-22.2,3.56Z" fill="#d9822b" stroke="#000" stroke-miterlimit="10"/><path d="m274.63,286.14l-4.63-3.76h-3.46l-4.71-5.17s-2.36.6-5.52.55-5.02-2.16-5.47-3.56.77-4.47.77-4.47c0,0-4.46-.46-6.28-3.85s.61-7.6.61-7.6c0,0-1.67-.15-3.34-.66s-3.71-3.5-3.71-3.5c0,0,.05.67-1.58.13s-2.66-4.25-2.66-4.25c0,0-1.06-1.54-1.14-3.09s1.14-1.54,1.14-3.17c0-2.2-1.71-1.87-1.71-1.87l.33-6.18s1.38-1.22,1.38-2.84-3.82-2.36-4.39-3.25.57-2.44,0-3.41-3.41-.98-3.41-2.11,2.6-1.95,2.03-2.84-3.58.24-4.1-.65,1.99-5.45,1.99-5.45c0,0-2.28-.41-3.17-1.38s-.81-2.78-.81-2.78l6.61,1.3,35.19,38.48,8.35,22.75" fill="#663411" stroke="#000" stroke-miterlimit="10"/><path d="m264.52,269.6c-4.79-3.05-13.18-7.86-16.88-12.95s-3.51-17.79-9.13-28.56-14.22-15.61-15.72-17.11-.91-4.31-.91-4.31l21.27,6.9,25.46,49.28,3.54,13.25s-4.04-4.22-7.61-6.5Z" fill="#d9822b" stroke="#000" stroke-miterlimit="10"/><path d="m95.34,155.39c-5.35-1-8.59-1.16-15.7-2.7s-20.95-5.18-21.92-2.1,4.93,14.32,12.05,18.44,14.64,7.44,14.64,7.44l9.12.16,4.47-16.58-2.66-4.66Z" fill="#fff" stroke="#000" stroke-miterlimit="10"/><path d="m272.13,276.1c-2.28-5.27-8.7-11.98-15.82-17.39s-10.11-13.42-10.19-18.62c-.14-8.96-.72-10.56-.72-10.56-4.48-5.28-3.66-9.14-7.42-13.63-3.23-3.85-8.59-5.72-16.11-9.22-11.61-5.41-27.23-9.86-41.53-13.98-7.81-2.25-15.14-5.21-21.43-6.33-30.71-5.47-65.38-9.74-65.38-9.74,0,0-6.12-8.31-6.35-12.85s6.57-5.59,7.56-6.27.6-2.12.6-2.12c4.16.38,12.22,3.15,25.25,6.08s28.41,6.44,44.95,11.27c28.98,8.46,70.88,24.91,75.55,27.46s11.68,9.27,14.5,13.53,8.1,16,9.12,17.5.48,3.28,1.63,5.24c1.63,2.77,21.45,30.63,21.45,30.63l1.78-1.56.84,3.45,1.76.43,7.08,4.07" fill="#663411" stroke="#000" stroke-miterlimit="10"/><path d="m377.02,283.52s1.55-3.61,3.7-4.27,7.81-.6,7.81-.6l-4.73-7.38-10.8-13.49-11,12.87,10.19,13.6,4.84-.73Z" fill="#663411" stroke="#000" stroke-miterlimit="10"/><path d="m334.69,290.43c5.75,1.98,7.45,8.61,11.99,11.99,4.17,1.96,10.69,2.37,11.81-3.32,1.33-4.38-14.14-15.97-18.41-13.64-1.92.53-7.18,2.79-5.31,5.14" fill="#fff"/><path d="m334.55,290.91c2.76.98,4.67,3.2,6.34,5.51s3.13,4.77,5.4,6.34c.96.67,2.35.99,3.48,1.21s2.41.34,3.61.2c2.36-.27,4.38-1.53,5.25-3.81.3-.77.51-1.61.36-2.43-.13-.71-.45-1.38-.82-1.99-1.02-1.71-2.48-3.18-3.96-4.5-1.73-1.55-3.62-2.94-5.61-4.14-1.72-1.03-3.58-2-5.55-2.45-.73-.17-1.49-.27-2.24-.15s-1.45.43-2.11.69c-1.12.44-2.22.96-3.19,1.68-.78.58-1.62,1.39-1.65,2.43-.02.49.17.96.46,1.35.38.51,1.25,0,.86-.5-1.34-1.78,2.21-3.34,3.42-3.85,1.3-.55,2.49-1.02,3.91-.74,1.76.35,3.42,1.17,4.97,2.05,1.87,1.06,3.63,2.31,5.28,3.69,1.47,1.24,2.91,2.59,4.03,4.16.66.92,1.46,2.16,1.2,3.3s-.7,2.19-1.6,2.97c-.78.68-1.8,1.05-2.81,1.21-2.11.33-4.65-.11-6.54-1.1-.61-.32-1.15-.92-1.63-1.41-.5-.52-.97-1.08-1.42-1.65-.91-1.17-1.74-2.41-2.63-3.6-1.74-2.34-3.74-4.44-6.55-5.44-.61-.22-.87.75-.27.96h0Z"/><path d="m349.67,289.76c2.04,8.5,15.61,15.84,19.29,4.51.41-7.93-9.73-10.97-15.93-7.97-1.28.52-4.8,2.34-4.03,3.71" fill="#fff"/><path d="m349.18,289.89c.89,3.6,3.51,6.71,6.6,8.67,2.81,1.78,6.57,2.83,9.67,1.15,1.65-.89,2.81-2.44,3.53-4.14.22-.52.46-1.04.47-1.61,0-.53-.03-1.06-.12-1.58-.15-.93-.47-1.83-.93-2.64-1.95-3.44-6.13-5.02-9.91-5.07-2.19-.03-4.22.5-6.2,1.41-1.34.62-4.71,2.22-3.75,4.19.28.58,1.15.07.86-.5s.83-1.32,1.19-1.57c.72-.51,1.5-.94,2.3-1.29,1.59-.71,3.2-1.17,4.96-1.22,3.37-.1,7.23,1.06,9.26,3.92.93,1.3,1.75,3.43,1.17,5.02s-1.53,3.1-2.97,4.02c-2.59,1.65-5.88.89-8.39-.53-3.18-1.8-5.92-4.87-6.81-8.47-.15-.62-1.12-.36-.96.27h0Z"/><path d="m339.82,273.43c1.31,4.79,7.59,16.58,13.27,16.08,2.08-.3,6.7-1.17,6.6-1.72,1.11-8.6-17.42-30.88-20.12-13.68" fill="#663411"/><path d="m339.34,273.57c.67,2.41,1.8,4.73,3.02,6.91,1.43,2.55,3.12,5.07,5.28,7.07,1.75,1.61,3.76,2.74,6.18,2.35,1.44-.23,2.88-.49,4.29-.87.74-.19,1.95-.38,2.08-1.28.24-1.73-.3-3.59-.9-5.19-.78-2.09-1.86-4.06-3.09-5.91s-2.75-3.76-4.42-5.38c-1.41-1.37-3-2.65-4.82-3.42-1.43-.61-3.05-.86-4.49-.15-1.66.82-2.52,2.69-2.99,4.39-.17.62-.3,1.25-.4,1.89s.86.9.96.27c.29-1.8.76-3.92,2.2-5.19.99-.87,2.31-.93,3.53-.58,1.63.48,3.08,1.52,4.34,2.62,1.6,1.39,3.01,2.99,4.27,4.69s2.38,3.54,3.28,5.47c.74,1.58,1.38,3.3,1.54,5.05.03.37.04.73.02,1.1,0,.08-.02.15-.02.23,0,.27-.04-.01.03-.01.06,0,.02,0-.04,0-.05,0-.16.08-.22.1-1.12.47-2.41.67-3.59.89-1.06.2-2.24.55-3.33.35s-1.98-.74-2.81-1.37c-2.12-1.61-3.74-3.88-5.13-6.12s-2.53-4.48-3.4-6.89c-.15-.42-.29-.85-.41-1.29-.17-.62-1.14-.36-.96.27h0Z"/><path d="m377.02,283.52c.5,3.27,4.94,5.52,7.69,6.01s9.37,1.25,11.01-.44,1.49-6.02,1.49-6.02l-10.09-7.45-10.57,3.42.47,4.48Z" fill="#fff" stroke="#000" stroke-miterlimit="10"/><path d="m388.53,278.64c3.48,2.95,5.26,4.33,8.68,4.43s10-2.5,10.51-4.64-1.58-7.09-1.58-7.09l-11.99-2.55-5.62,9.85Z" fill="#fff" stroke="#000" stroke-miterlimit="10"/><path d="m398.16,272.35c3.08,1.84,9.51,5.36,15.68,3.58s10.92-8.88,10.92-8.88l-5.09-1.26-11.54-7.57-9.97,14.12Z" fill="#fff" stroke="#000" stroke-miterlimit="10"/><path d="m444.51,257.04c1.37,4.53-.62,7.01-4.12,8.76s-15.63,1.26-15.63,1.26l-7.81-1.86,12.46-14.26,15.1,6.11Z" fill="#fff" stroke="#000" stroke-miterlimit="10"/><path d="m455.56,251.42c-.21,3.08-5.63,5.48-11.05,5.62s-15.91-.39-15.91-.39l9.87-11.97,17.09,6.74Z" fill="#fff" stroke="#000" stroke-miterlimit="10"/><path d="m487.73,234.31c-.32,5.16-6.91,10.31-15.08,14.15s-21.52,2.88-21.52,2.88l6.49-19.54,30.11,2.51Z" fill="#fff" stroke="#000" stroke-miterlimit="10"/><path d="m509.68,220.48c2.12,3.69-18.85,12.75-18.85,12.75l-11.43-6.37,15.14-9.88s13.83,1.24,15.14,3.5Z" fill="#fff" stroke="#000" stroke-miterlimit="10"/><path d="m512.72,213.79c4.85-1.62,11.37-6.22,14.26-7.52s4.39-2.2,4.39-3.43-5.1-3.58-11.06-2.48-11.73,8.31-11.73,8.31l4.14,5.12Z" fill="#fff" stroke="#000" stroke-miterlimit="10"/><path d="m511.56,196.92c2.99-1.09,17.34-6.79,17.4-7.75s-9.85-2.15-15.15-1.15-7.65,7.06-7.65,7.06l5.39,1.84Z" fill="#fff" stroke="#000" stroke-miterlimit="10"/><path d="m497.28,175.51s18.78.68,21.05.75,6.32,3.64,6.39,4.46-6.24,6.26-9.55,7.1-22.65,0-22.65,0l4.77-12.31Z" fill="#fff" stroke="#000" stroke-miterlimit="10"/><path d="m382.38,291.43c.25-1.03.69-2.03.67-3.1-2.3-2.61-6.09-5.76-9.77-5.81-4.63,1.4-5.05,7.58-10.34,7.8,0,0,16.99,11.27,19.44,1.11Z" fill="#fff"/><path d="m382.86,291.56c.16-.63.38-1.24.52-1.87.11-.48.32-1.21.06-1.67-.23-.41-.7-.78-1.03-1.11-.41-.42-.84-.82-1.28-1.2-1.7-1.48-3.67-2.82-5.87-3.41-.94-.25-1.86-.41-2.77-.02-.76.32-1.43.78-2.04,1.34-1.15,1.05-1.99,2.38-2.98,3.57-1.19,1.44-2.59,2.52-4.53,2.62-.5.03-.67.65-.25.93,1.97,1.3,4.09,2.42,6.24,3.36,1.74.76,3.54,1.43,5.42,1.8,1.64.32,3.44.45,5.03-.14,1.88-.7,3.01-2.3,3.48-4.2.16-.62-.81-.89-.96-.27-1.9,7.64-12.56,2.17-16.71-.2-.67-.39-1.35-.78-1.99-1.21l-.25.93c1.42-.08,2.7-.56,3.81-1.46s1.84-1.98,2.66-3.05,1.7-2.15,2.89-2.82c.29-.17.64-.37.98-.44.45-.09,1,.05,1.44.15,1.01.23,1.96.65,2.85,1.16,1.95,1.12,3.64,2.65,5.13,4.32l-.15-.35c0,1.03-.4,1.98-.65,2.97-.16.62.8.89.96.27Z"/><path d="m360.81,288.9c2.21,2.24,3.1,2.6,5.64,2.25,3.35-.64,7.27-3.38,8.31-6.75.15-1.32-.12-1.46-1.36-2.4-4.14-3.17-6.69-8.58-10.47-12.4-16.9-17.09-21.01-5.49-7.69,12.92,2.59,3.58,4.08,4.87,5.57,6.38Z" fill="#663411"/><path d="m360.46,289.26c1.02,1.03,2.16,2.17,3.65,2.43s3.05-.09,4.43-.64c1.6-.64,3.09-1.59,4.33-2.8,1.05-1.03,2.31-2.57,2.42-4.1.04-.58-.04-1.12-.42-1.57-.51-.6-1.25-1.02-1.84-1.53-1.43-1.24-2.64-2.7-3.77-4.2s-2.24-3.11-3.42-4.63-2.58-3.04-4.03-4.43c-2.33-2.22-4.86-4.43-7.75-5.91-1.47-.75-3.38-1.52-5.03-.92-1.42.52-2.02,1.92-2.16,3.33-.21,2.2.47,4.49,1.23,6.52,1.18,3.17,2.84,6.16,4.68,8.99s4.02,5.79,6.51,8.28c.39.39.79.78,1.18,1.17.45.46,1.16-.25.71-.71-1.94-1.97-3.79-3.94-5.42-6.18-2.05-2.82-3.94-5.8-5.45-8.94-1.06-2.2-2-4.55-2.36-6.98-.18-1.25-.3-2.96.6-3.99.84-.97,2.31-.74,3.42-.39,2.37.77,4.49,2.38,6.38,3.95,2.82,2.35,5.37,4.95,7.55,7.9,2.03,2.76,3.94,5.72,6.58,7.95.52.44,1.25.81,1.66,1.36.37.49.13,1.2-.09,1.7-.65,1.47-1.81,2.71-3.1,3.65-2.05,1.5-5.52,3.16-7.95,1.57-.67-.44-1.25-1.03-1.82-1.6-.45-.46-1.16.25-.71.71Z"/><path d="m357.23,280.42c-.06-1.61.08-3.29.64-4.77,3.85,2.13,7.37,5.82,11.28,7.45-1.35-3.18-.68-7.22-3.26-9.69-2.31-3.66-3.59-7.82-6.43-11.16-.54-.62-.77-1.5-1.35-2.07-2.97,2.35-5.97,4.9-8.76,7.53-.93,1.08-2.18,2.29-.7,3.51,3.35,3.27,4.89,6.31,8.57,9.21" fill="#d9822b"/><path d="m357.73,280.42c-.05-1.58.08-3.14.62-4.64l-.73.3c3.94,2.2,7.1,5.67,11.28,7.45.34.14.92-.11.73-.56-1.17-2.84-.77-6.23-2.51-8.85-.47-.71-1.03-1.3-1.46-2.05-.45-.8-.87-1.61-1.28-2.43-.83-1.67-1.62-3.36-2.59-4.95-.52-.86-1.08-1.68-1.71-2.46s-.96-1.69-1.62-2.4c-.2-.21-.5-.16-.71,0-1.7,1.34-3.37,2.71-5,4.13-1.53,1.33-3.21,2.64-4.47,4.23-.41.52-.82,1.13-.82,1.82,0,.88.68,1.4,1.24,1.97,1.32,1.34,2.49,2.81,3.69,4.26,1.36,1.65,2.8,3.21,4.47,4.54.5.4,1.21-.31.71-.71-1.76-1.4-3.24-3.04-4.66-4.77-.64-.78-1.28-1.58-1.95-2.34-.38-.44-.76-.86-1.16-1.28-.38-.4-1.02-.82-1.25-1.32-.4-.86.77-1.93,1.32-2.46.86-.84,1.78-1.64,2.68-2.43,1.92-1.7,3.9-3.34,5.91-4.93h-.71c.54.58.79,1.37,1.29,2,.59.75,1.16,1.49,1.67,2.3.93,1.49,1.7,3.08,2.48,4.65s1.45,3.3,2.6,4.55c1.03,1.12,1.43,2.64,1.71,4.1.33,1.72.5,3.48,1.17,5.11l.73-.56c-4.18-1.78-7.34-5.25-11.28-7.45-.3-.17-.62,0-.73.3-.57,1.57-.71,3.25-.66,4.91.02.64,1.02.64,1,0h0Z"/><path d="m388.53,278.64s-12.26-7.32-16.28-15.45,5.98-6.3,5.98-6.3c0,0,19.85,10.6,17.26,14.13s-6.96,7.63-6.96,7.63Z" fill="#663411" stroke="#000" stroke-miterlimit="10"/><path d="m410.59,263.19c-1.99,6.71-12.43,9.16-12.43,9.16,0,0-11.61-5.96-22.27-16.85s10.58-3.78,14.66-1.45,20.04,9.14,20.04,9.14Z" fill="#663411" stroke="#000" stroke-miterlimit="10"/><path d="m419.66,265.79c-6.09-1.39-5.13-.91-9.07-2.61s-28.87-13.28-28.87-13.28l16.15-3.74s33.83,6.89,30.01,10.53c-5.23,4.98-8.21,9.09-8.21,9.09Z" fill="#663411" stroke="#000" stroke-miterlimit="10"/><path d="m436.02,250.56c-.4,3.44-5.56,5.76-5.56,5.76,0,0-2.72,1.19-9.6-.83s-30.43-12.22-30.43-12.22c0,0,30.76-3.74,38.58.65s7.02,6.64,7.02,6.64Z" fill="#663411" stroke="#000" stroke-miterlimit="10"/><path d="m452.25,251.22c-8.08,1.13-32.58-2.89-38.98-5.59s-6.14-9-6.14-9c0,0,61.94-6.67,57.47.91s-12.34,13.68-12.34,13.68Z" fill="#663411" stroke="#000" stroke-miterlimit="10"/><path d="m488.22,220.88s-4.1,2.61-3.86,5.85,6.47,6.51,6.47,6.51c0,0-6.34,2.61-14.55,3.4s-29.13,1.57-40.31.43-24.74-2.76-24.74-2.76l54.73-14.86,22.26,1.43Z" fill="#663411" stroke="#000" stroke-miterlimit="10"/><path d="m520.31,200.36c-5.85,2.24-9.08,8.46-7.59,13.43,0,0-11.94,2.11-24.5,7.09s-26.92,4.31-37.09,5.33-37.86,0-37.86,0c0,0,54.48-20,68.13-23.11s38.91-2.74,38.91-2.74Z" fill="#663411" stroke="#000" stroke-miterlimit="10"/><path d="m513.82,188.02c-3.06,3.32-6.58,6.11-2.26,8.9,0,0-20.21,10.69-40.74,12.93s-35.85,2.9-35.85,2.9l55.86-25.68,22.99.95Z" fill="#663411" stroke="#000" stroke-miterlimit="10"/><path d="m497.28,175.51s1.74,7.65,5.23,8.78,9.17,3.64,9.17,3.64c0,0-14.61,5.29-30.29,8.31s-27.41,5.12-27.41,5.12l29.7-25.85h13.59Z" fill="#663411" stroke="#000" stroke-miterlimit="10"/><path d="m364.74,271.63s10.7,7.9,14.6,8.39c0,0-5.26-10.76-6.35-16.35s-9.6-14.18-9.6-14.18l-7.18,9.75,8.53,12.38Z" fill="#d9822b" stroke="#000" stroke-miterlimit="10"/><path d="m364.55,249.5s5.91,11.96,8.45,14.18,14.24,7.95,14.24,7.95c0,0-6.03-7.51-7.89-13.09l-9.84-14.62-4.96,5.58Z" fill="#d9822b" stroke="#000" stroke-miterlimit="10"/><path d="m370.62,245.57l6.56,9.75s8.37,3.21,13.16,6.09,6.65,1.38,6.65,1.38l-10.46-11.34-14.13-14.82-1.77,8.94Z" fill="#d9822b" stroke="#000" stroke-miterlimit="10"/><path d="m372.99,242.93s13.45,10.06,15.39,10.53,11.72,3.68,18.74.92c0,0-4.98-2.49-9.16-8.09s-23.16-13.07-23.16-13.07l-1.81,9.71" fill="#d9822b" stroke="#000" stroke-miterlimit="10"/><path d="m377.73,236.63s16.84,9.04,20.9,10.51,14.28,4.67,19.97,0l-23.12-9.47-15.11-8.8-2.64,7.76" fill="#d9822b" stroke="#000" stroke-miterlimit="10"/><path d="m381.45,231.75s9.85,6.19,14.92,8.15,16.27,5.11,24.63,4.02,15.56-6.78,15.56-6.78c0,0-29.25-3.73-33.34-6.76s-17.78-10.94-17.78-10.94l-3.98,12.3" fill="#d9822b" stroke="#000" stroke-miterlimit="10"/><path d="m387.23,224.48s23.18,11.42,41.23,9.64,21.25-5.16,22.67-7.91c0,0-36.76,1.87-62.32-7.91s-1.58,6.19-1.58,6.19" fill="#d9822b" stroke="#000" stroke-miterlimit="10"/><path d="m391.19,219.92s28.34,7.45,38.47,5.4,32.89-7.47,40.27-15.29c0,0-5.6,1.51-15.29,2.13s-48.72-6.22-48.72-6.22l-14.73,13.98" fill="#d9822b" stroke="#000" stroke-miterlimit="10"/><path d="m401.09,212.28s32.8,1.29,46.24-.4,28.29-8.62,34.06-15.64c0,0-21.6,4.71-33.25,5.25s-32.54-1.24-32.54-1.24l-14.52,12.04" fill="#d9822b" stroke="#000" stroke-miterlimit="10"/><path d="m430.56,202.08s26.6.48,35.16-2.81,20.84-17.69,20.84-17.69l-50.95,9.66-5.05,10.84" fill="#d9822b" stroke="#000" stroke-miterlimit="10"/><path d="m483.04,163.15c6.65-3.64,30.22-9.46,30.22-9.46,0,0-2.64,13.85-23.24,25.31l-6.98-15.84Z" fill="#fff" stroke="#000" stroke-miterlimit="10"/><path d="m330.64,251.34s5.62.49,10.93-3.28,17.54-15.24,19.04-19.93,12.15-15.62,28.01-25.14,23.36-9.58,29.9-13.2,23.76-10.98,32.98-15.04,16.05-4.43,21.96-7.01,18.36-11.66,22.14,0c2.21,6.83-9.04,13.84-9.04,13.84,0,0-26.57,14.95-37.46,16.42s-42.26,9.78-52.4,16.79-33.03,43.18-42.44,50.93-20.43,7.2-20.43,7.2" fill="#663411" stroke="#000" stroke-miterlimit="10"/><path d="m340.82,275.86l-1.63-1.16s2.43-1.11,2.18-3.38c-.36-3.26-6.77-5.94-9.73-6.31-3.77-.48-12.07,1.08-16.2.48-2.7-.4-6.59-4.61-7.51-4.01s3.22,7.82,3.22,7.82c0,0-7.19-4.05-10.48-.91l2.34,1.27s-1.99.95-4.53.91-6.31-1.15-6.31-1.15c0,0-.04,3.1,4.33,4.92,0,0-.44.91-3.26,1.07s-4.37,2.86-.6,3.06,4.29.6,4.29.6c0,0-2.66,1.19-2.86,3.77,0,0,1.95.24,3.34-1.03l1.43,2.07s2.42-5.36,4.25-3.93-1.99,7.27-4.61,10.92-7.27,5.76-5.16,6.59,6.59-1.63,6.59-1.63c0,0-4.33,5.96-2.46,6.91s4.81-3.38,5.84-2.86-.36,5.76,1.75,5.88,5.44-6.39,5.44-6.39c0,0,.24,3.26,1.07,4.17s2.86,5.16,2.86,5.16c0,0,2.74-5.68,3.22-7.98s3.34-4.92,3.34-4.92c0,0,.36,2.86.83,4.21s-.79,3.69.71,4.01,2.21-5.38,5.2-9.53c2.6-3.6,5.56-3.3,7.02-4.08s.37-5.34.37-5.34l5.71-9.19Z" fill="#fff" stroke="#000" stroke-miterlimit="10"/><path d="m318.26,275.86s2.81-4.33,8.09-3.81,9.85,4.57,9.85,4.57l2.99-1.92" fill="none" stroke="#000" stroke-miterlimit="10"/><path d="m333.49,274.68s1.27,6.28-5.32,6.13-6.51-6.78-1.23-8.68" fill="none" stroke="#000" stroke-miterlimit="10"/><path d="m327.92,273.88s.59,2.87,1.99,2.59.5-1.98-.13-2.16-1.85-.43-1.85-.43Z" stroke="#000" stroke-miterlimit="10"/><path d="m330.57,286.8s1.97-.45,2.67-.3,2.21,2.27,2.21,2.27c0,0,.98,1.18,2.82,1.18s3.89,1.01,5.13,1.01,2.31-1.18,4.03-1.18,2.58,1.56,2.58,1.56l-.27,3.98s4.57-4.03,5.59-6.34-.75-5.75-3.81-7.79-4.5-2.63-7.41-3.17c0,0-2.42-.91-3.28-2.15,0,0-.86,1.5-1.99,2.26s-3.44,1.72-5,5.21c0,0-3.81.43-4.19,2.26l.93,1.21Z" fill="#ffa800" stroke="#000" stroke-miterlimit="10"/><path d="m340.66,279.24s.87,2.33,1.66,1.31-1.66-1.31-1.66-1.31Z" fill="none" stroke="#000" stroke-miterlimit="10"/><path d="m350,291.33s.99-.43.89-1.94-1.3-3.48-4.31-3.48-4.11,2.07-4.11,2.07c0,0-2.45-3.91-7.06-3.55l-1.58-1.12" fill="none" stroke="#000" stroke-miterlimit="10"/><g filter="url(#c)"><path d="m105.67,425.05c-.93,3.94-2.86,7-5.79,9.17l-2.88-4.68c2.03-1.97,3.25-4.15,3.67-6.55.42-2.4-.24-5-1.96-7.81-2.11-3.42-5.07-5.41-8.89-5.97-3.82-.55-8.34.77-13.56,3.98-4.27,2.63-7.15,5.71-8.64,9.25-1.49,3.54-1.07,7.19,1.25,10.96,2.14,3.47,5.16,5.26,9.07,5.35,2.06.06,4.44-.42,7.13-1.42l2.88,4.68c-4.09,1.95-8.15,2.56-12.18,1.84-4.84-.86-8.71-3.64-11.61-8.36-2.5-4.07-3.32-8.27-2.45-12.61,1.16-5.73,5.28-10.77,12.37-15.13,5.38-3.31,10.63-4.66,15.76-4.04,5.56.65,9.94,3.58,13.13,8.77,2.73,4.43,3.62,8.62,2.69,12.56Z" fill="#fff"/><path d="m112.43,429.31l19.34,23.15-4.02,3.36-15.82-18.93-9.97,8.33,14.63,17.5-3.8,3.18-14.63-17.5-11.14,9.31,16.1,19.26-3.91,3.27-19.62-23.47,32.85-27.45Z" fill="#fff"/><path d="m133.2,454.02l4.95,4.42-7.55,39.61,23.02-25.81,4.01,3.58-28.49,31.95-4.72-4.21,7.29-39.79-22.99,25.78-4.01-3.58,28.49-31.95Z" fill="#fff"/><path d="m185.57,494.4l-2.82,4.25-11.67-7.75-20.86,31.42-4.74-3.15,20.86-31.42-11.67-7.75,2.82-4.25,28.08,18.64Z" fill="#fff"/><path d="m185.65,494.36l17.09,8.07c2.81,1.33,4.93,2.85,6.35,4.58,2.69,3.29,2.98,7.16.88,11.6-1.09,2.32-2.46,4-4.08,5.03-1.63,1.04-3.49,1.61-5.58,1.71,1.18,1.31,1.9,2.64,2.17,3.99.27,1.35-.08,3.17-1.06,5.46l-2.27,5.28c-.65,1.5-1.04,2.65-1.2,3.46-.27,1.38-.1,2.42.52,3.15l-.41.87-6.24-2.95c-.01-.41.05-.91.2-1.49.15-.58.54-1.63,1.19-3.18l2.74-6.6c1.08-2.58.99-4.7-.26-6.34-.72-.92-2.09-1.86-4.11-2.81l-11.26-5.32-7.84,16.6-5.09-2.4,18.28-38.71Zm8.17,25.54c2.32,1.1,4.39,1.47,6.21,1.13,1.82-.34,3.33-1.8,4.54-4.37,1.3-2.76,1.24-5.08-.17-6.98-.76-1-1.99-1.91-3.68-2.71l-12.09-5.71-6.25,13.23,11.45,5.41Z" fill="#fff"/><path d="m229.23,512.5l6.11,1.8,2.35,45.33-5.92-1.75-.42-13.49-15.77-4.65-7.94,11.03-5.54-1.63,27.12-36.63Zm1.73,26.85l-.7-19.93-11.78,16.24,12.48,3.68Z" fill="#fff"/><path d="m249.39,518l5.57.85-5.71,37.27,20.61,3.16-.77,5.04-26.18-4.01,6.48-42.31Z" fill="#fff"/><path d="m314.88,524.94c2.96,2.76,4.66,5.96,5.09,9.58l-5.49.17c-.7-2.74-1.98-4.88-3.86-6.44s-4.46-2.28-7.76-2.18c-4.02.13-7.22,1.71-9.6,4.75-2.38,3.04-3.47,7.62-3.28,13.74.16,5.01,1.4,9.05,3.73,12.1,2.33,3.05,5.71,4.5,10.14,4.36,4.07-.13,7.13-1.87,9.15-5.21,1.08-1.76,1.85-4.06,2.31-6.9l5.49-.17c-.34,4.52-1.83,8.35-4.45,11.48-3.15,3.77-7.49,5.75-13.02,5.92-4.77.15-8.83-1.23-12.16-4.14-4.39-3.85-6.72-9.93-6.98-18.25-.2-6.31,1.24-11.54,4.32-15.69,3.33-4.5,8.04-6.85,14.13-7.04,5.2-.16,9.28,1.14,12.24,3.9Z" fill="#fff"/><path d="m355.84,520.78c3.45,3.17,5.76,7.65,6.92,13.44,1.26,6.27.77,11.79-1.48,16.56-2.64,5.61-7.32,9.09-14.03,10.44-6.27,1.26-11.63.12-16.08-3.42-4.03-3.47-6.68-8.35-7.94-14.63-1.14-5.68-.75-10.81,1.17-15.4,2.47-5.89,7.14-9.53,14.02-10.91,7.19-1.45,13-.14,17.42,3.92Zm.52,27.73c1.45-4.03,1.7-8.38.76-13.05-1-4.94-3.05-8.66-6.16-11.17-3.11-2.51-6.84-3.32-11.19-2.45-4.22.85-7.36,3.04-9.42,6.55-2.06,3.52-2.51,8.19-1.33,14,.94,4.65,2.87,8.34,5.8,11.08s6.95,3.58,12.08,2.55c4.86-.98,8.02-3.49,9.47-7.52Z" fill="#fff"/><path d="m358.86,513.87l7.49-3,24.55,29.16-2.43-38.01,7.44-2.98,15.91,39.74-4.99,2-9.39-23.46c-.33-.81-.85-2.16-1.56-4.05-.72-1.89-1.5-3.91-2.36-6.05l2.4,37.93-5.18,2.07-24.54-29.07.49,1.22c.39.97,1.01,2.45,1.86,4.42.85,1.97,1.46,3.43,1.84,4.36l9.39,23.46-4.99,2-15.91-39.74Z" fill="#fff"/><path d="m397.61,498.14l6.81-4.33,29.51,24.13-9.4-36.91,6.76-4.3,22.97,36.12-4.54,2.88-13.56-21.32c-.47-.74-1.23-1.97-2.28-3.69-1.05-1.72-2.2-3.56-3.44-5.51l9.36,36.84-4.71,2.99-29.48-24.04.7,1.11c.56.88,1.44,2.22,2.64,4s2.07,3.1,2.61,3.95l13.56,21.32-4.54,2.88-22.97-36.12Z" fill="#fff"/><path d="m441.99,466.87l4.75-4.24,39.75,21.91-4.6,4.11-11.68-6.76-12.27,10.94,5.18,12.56-4.31,3.84-16.82-42.36Zm23.72,12.7l-17.3-9.91,7.58,18.58,9.71-8.66Z" fill="#fff"/><path d="m457.4,452.98l4.25-5.09,39.83,6.27-26.54-22.18,3.45-4.13,32.85,27.45-4.06,4.85-40-6.01,26.51,22.15-3.45,4.13-32.85-27.45Z" fill="#fff"/><path d="m480.4,425.05l8.61-14.21c2.92-4.82,6.98-7.48,12.16-7.97,4.66-.42,9.51.9,14.54,3.95,3.89,2.36,6.98,5.19,9.27,8.49,4.05,5.83,4.25,11.76.61,17.77l-8.58,14.16-36.61-22.19Zm40.41,6.36c.97-1.59,1.58-3.01,1.86-4.25.46-2.22.12-4.48-1.01-6.76-.92-1.83-2.4-3.65-4.46-5.46-1.24-1.07-2.44-1.97-3.62-2.68-4.54-2.75-8.58-4.03-12.12-3.84-3.55.19-6.47,2.19-8.78,5.99l-5.06,8.35,28.11,17.04,5.09-8.4Z" fill="#fff"/></g><g filter="url(#e)"><path d="m88.86,124.3l19.63,17.95c2.31,2.11,4.62,3.43,6.95,3.95,3.49.82,6.63-.31,9.44-3.37,3.36-3.67,4.4-7.31,3.12-10.92-.7-1.95-2.2-3.97-4.49-6.07l-19.63-17.95,3.97-4.35,17.83,16.31c3.91,3.57,6.43,6.85,7.57,9.83,2.06,5.44.63,10.86-4.29,16.24-4.92,5.38-10.18,7.28-15.77,5.7-3.07-.87-6.56-3.09-10.46-6.66l-17.83-16.31,3.97-4.35Z" fill="#fff"/><path d="m116.68,95.44l5.43-4.2,38.25,14.37-21.28-27.5,4.4-3.41,26.34,34.04-5.18,4.01-38.48-14.14,21.25,27.47-4.4,3.41-26.34-34.04Z" fill="#fff"/><path d="m153.85,68.6l5.04-3.04,22.23,36.85-5.04,3.04-22.23-36.85Z" fill="#fff"/><path d="m195.93,46.93l2.19,4.64-13.12,6.19,16.17,34.29-5.33,2.51-16.17-34.29-13.12,6.19-2.19-4.64,31.56-14.89Z" fill="#fff"/><path d="m203.82,44.13l29.94-8.89,1.5,5.06-24.49,7.27,3.72,12.53,22.64-6.72,1.42,4.77-22.64,6.72,4.15,13.99,24.91-7.4,1.46,4.92-30.36,9.01-12.25-41.26Z" fill="#fff"/><path d="m244.9,32.89l17.07-2.1c5.8-.71,10.55.82,14.26,4.59,3.31,3.41,5.33,8.05,6.06,13.92.56,4.54.22,8.74-1.01,12.61-2.17,6.84-6.87,10.7-14.1,11.6l-17.02,2.1-5.26-42.71Zm20.59,35.81c1.91-.24,3.46-.63,4.64-1.19,2.11-1.03,3.73-2.7,4.86-5.03.91-1.86,1.44-4.17,1.6-6.93.09-1.64.04-3.15-.12-4.53-.65-5.29-2.19-9.27-4.6-11.95-2.42-2.67-5.91-3.73-10.48-3.17l-10.04,1.24,4.04,32.8,10.09-1.24Z" fill="#fff"/><path d="m307.47,58c-.11,2.44.24,4.47,1.06,6.08,1.57,3.02,4.69,4.77,9.37,5.24,2.1.21,4.04.09,5.82-.36,3.45-.87,5.34-2.86,5.65-5.97.23-2.33-.3-4.06-1.62-5.2-1.33-1.11-3.49-2.19-6.47-3.21l-5.49-1.88c-3.58-1.22-6.09-2.43-7.51-3.61-2.46-2.05-3.51-4.86-3.15-8.41.39-3.85,2-6.88,4.84-9.08,2.84-2.21,6.63-3.07,11.38-2.6,4.37.44,7.97,1.89,10.81,4.37,2.84,2.47,4.02,6.09,3.54,10.85l-5.45-.55c-.05-2.32-.47-4.14-1.26-5.46-1.47-2.4-4.24-3.81-8.3-4.22-3.28-.33-5.71.15-7.29,1.45s-2.46,2.89-2.66,4.8c-.21,2.1.48,3.72,2.08,4.86,1.05.73,3.48,1.76,7.31,3.09l5.68,1.95c2.74.94,4.81,2.06,6.22,3.36,2.44,2.27,3.46,5.3,3.08,9.11-.48,4.74-2.5,7.96-6.07,9.67-3.57,1.7-7.58,2.33-12.03,1.88-5.19-.52-9.12-2.29-11.79-5.3-2.67-3-3.74-6.8-3.22-11.42l5.45.55Z" fill="#fff"/><path d="m378.96,41.62l-1.28,4.97-14.04-3.61-9.44,36.72-5.7-1.47,9.44-36.72-14.04-3.61,1.28-4.97,33.79,8.69Z" fill="#fff"/><path d="m393.12,47.31l6.11,2.48-1.69,45.75-5.92-2.4.79-13.59-15.78-6.39-9.16,10.2-5.54-2.24,31.18-33.8Zm-.66,27.14l1.08-20.08-13.58,15.01,12.49,5.06Z" fill="#fff"/><path d="m443.13,72.64l-2.54,4.45-12.6-7.18-18.77,32.94-5.12-2.92,18.77-32.94-12.6-7.18,2.54-4.45,30.32,17.27Z" fill="#fff"/><path d="m449.94,77.47l24.5,19.37-3.27,4.14-20.04-15.84-8.1,10.25,18.53,14.64-3.09,3.91-18.52-14.64-9.05,11.45,20.39,16.11-3.18,4.02-24.84-19.64,26.69-33.76Z" fill="#fff"/><path d="m463.47,126.81c-1.71,1.75-2.79,3.5-3.25,5.25-.83,3.3.34,6.68,3.53,10.14,1.43,1.55,2.96,2.75,4.59,3.6,3.16,1.64,5.89,1.4,8.19-.71,1.72-1.59,2.47-3.24,2.24-4.96-.26-1.72-1.16-3.95-2.7-6.69l-2.86-5.05c-1.87-3.3-2.94-5.86-3.22-7.69-.47-3.17.6-5.96,3.23-8.38,2.84-2.62,6.06-3.81,9.65-3.58,3.59.23,7,2.11,10.23,5.61,2.97,3.23,4.7,6.71,5.18,10.44.48,3.73-1.04,7.22-4.56,10.46l-3.71-4.03c1.5-1.77,2.4-3.41,2.68-4.92.5-2.78-.64-5.66-3.4-8.67-2.23-2.42-4.37-3.68-6.41-3.76s-3.76.53-5.17,1.82c-1.55,1.43-2.11,3.1-1.67,5.02.3,1.24,1.43,3.63,3.41,7.16l2.95,5.23c1.42,2.52,2.23,4.74,2.42,6.65.32,3.31-.93,6.26-3.75,8.86-3.5,3.23-7.16,4.3-10.96,3.2-3.8-1.1-7.21-3.29-10.25-6.58-3.54-3.84-5.3-7.77-5.29-11.79,0-4.01,1.72-7.57,5.18-10.68l3.71,4.03Z" fill="#fff"/></g></svg>