<?xml version="1.0" encoding="utf-8"?>
<!-- Generator: Adobe Illustrator 27.9.2, SVG Export Plug-In . SVG Version: 6.00 Build 0)  -->
<svg version="1.1" id="Layer_1" xmlns="http://www.w3.org/2000/svg" xmlns:xlink="http://www.w3.org/1999/xlink" x="0px" y="0px"
	 viewBox="0 0 1000 1000" style="enable-background:new 0 0 1000 1000;" xml:space="preserve">
<style type="text/css">
	.st0{fill-rule:evenodd;clip-rule:evenodd;fill:#FFFFFF;stroke:#000000;stroke-width:0.216;stroke-miterlimit:2.6131;}
	.st1{fill-rule:evenodd;clip-rule:evenodd;fill:#F7D117;stroke:#BE5E1F;stroke-width:0.72;stroke-miterlimit:2.6131;}
	.st2{fill-rule:evenodd;clip-rule:evenodd;fill:#FFFFFF;}
	.st3{fill-rule:evenodd;clip-rule:evenodd;fill:#7EAED3;stroke:#000000;stroke-width:0.2163;stroke-miterlimit:2.6131;}
	.st4{fill-rule:evenodd;clip-rule:evenodd;fill:#96989A;}
	.st5{fill-rule:evenodd;clip-rule:evenodd;fill:#8C6F4B;}
	.st6{fill-rule:evenodd;clip-rule:evenodd;fill:#FDDD2E;}
	.st7{fill-rule:evenodd;clip-rule:evenodd;fill:#F7D117;}
	.st8{fill-rule:evenodd;clip-rule:evenodd;fill:#F7D117;stroke:#BE5E1F;stroke-width:0.7291;stroke-miterlimit:2.6131;}
	.st9{fill-rule:evenodd;clip-rule:evenodd;fill:#F7D117;stroke:#BE5E1F;stroke-width:0.7288;stroke-miterlimit:2.6131;}
	.st10{fill-rule:evenodd;clip-rule:evenodd;fill:#092068;}
	.st11{fill-rule:evenodd;clip-rule:evenodd;fill:#582831;}
	.st12{fill-rule:evenodd;clip-rule:evenodd;fill:#BE5E1F;}
	.st13{fill-rule:evenodd;clip-rule:evenodd;fill:#64A607;}
	.st14{fill:#373435;}
</style>
<g>
	<circle class="st0" cx="498.13" cy="498.07" r="493.88"/>
	<circle class="st1" cx="498.13" cy="498.07" r="493.88"/>
	<circle class="st2" cx="498.13" cy="498.07" r="479.33"/>
	
		<ellipse transform="matrix(0.7071 -0.7071 0.7071 0.7071 -206.8089 498.3374)" class="st3" cx="498.14" cy="498.81" rx="336.04" ry="336.04"/>
	<path class="st4" d="M501.02,156.03c-190.16,0-344.31,154.15-344.31,344.31c0,190.16,154.15,344.31,344.31,344.31
		s344.31-154.15,344.31-344.31C845.32,310.18,691.17,156.03,501.02,156.03L501.02,156.03z M334.65,795.63
		c-49.79-28.11-91.74-68.46-121.8-116.96c22.78-7.83,53.43-17.2,76.01-22.54c17.75,47.92,44.85,88.57,80.99,121
		C361.51,781.22,345.01,789.77,334.65,795.63L334.65,795.63z M208.66,671.74c-29.08-49.52-45.92-107.09-46.4-168.56h100.46
		c0.81,44.69,9.84,105.03,23.07,146.49C262.39,656.11,232.27,663.47,208.66,671.74L208.66,671.74z M162.28,496.41
		c0.73-61.4,17.79-118.86,47.05-168.26c23.57,8.25,54.46,14.92,77.43,21.44c-12.91,40.98-22.75,101.96-24.04,146.81H162.28
		L162.28,496.41z M212.98,322.13c29.9-48.17,71.55-88.28,120.95-116.34c9.36,5.56,27.1,15.24,34.79,19.09
		c-34.2,32.59-61.43,70.54-79.17,119.26C267.2,337.94,235.73,329.91,212.98,322.13L212.98,322.13z M341.36,201.69
		c40.77-21.82,86.53-35.54,135.12-39c-34.67,9.3-75.22,33.96-103.76,56.08C365.63,216.81,349.21,207.44,341.36,201.69L341.36,201.69
		z M519.53,162.32c50.67,2.74,98.38,16.63,140.73,39.24c-8.03,3.96-24.39,11.79-30.66,14.77
		C606.33,199.51,558.65,174.32,519.53,162.32L519.53,162.32z M666.86,205.19c49.63,27.94,91.5,68.04,121.59,116.25
		c-22.97,8.23-52.58,17.74-74.84,23.7c-17.42-49.05-45.62-89.59-80.15-122.18C641.34,219.15,657.41,210.6,666.86,205.19
		L666.86,205.19z M792.08,327.38c29.49,49.48,46.71,107.12,47.5,168.72l-100.77,0.31c-0.97-44.85-9.68-105.19-22.59-146.17
		C739.47,343.64,768.53,335.82,792.08,327.38L792.08,327.38z M839.61,502.87c-0.42,61.77-17.38,119.6-46.66,169.31
		c-23.61-8.54-53.99-18.33-77.2-24.76c13.39-41.46,22.43-99.38,23.07-144.23L839.61,502.87L839.61,502.87z M789.48,677.93
		c-29.96,48.63-71.88,89.1-121.64,117.35c-10.57-6-28.48-14.55-37.44-18.96c36.46-32.43,65.99-73.24,84.05-121.32
		C737.1,661.13,766.49,669.87,789.48,677.93L789.48,677.93z M660.72,799.21c-41.89,22.46-89.06,36.35-139.17,39.36
		c37.69-12.27,80.71-37.37,106.11-56.6C635.17,785.43,651.48,794.08,660.72,799.21L660.72,799.21z M478.48,838.45
		c-49.48-3.24-96.07-17.1-137.49-39.33c9.89-5.06,28.33-13.22,35.8-16.67C402.1,801.58,443.31,825.58,478.48,838.45L478.48,838.45z
		 M427.76,755.67c-13.71,3.87-37.75,11.94-51.63,17.91c-33.88-30.49-62.11-69.86-80.51-119.55c29.85-7.42,70.02-13.55,100.03-17.75
		C402.92,682.42,414.7,721.47,427.76,755.67L427.76,755.67z M497.3,746.8c-19.52,0.65-44.69,3.23-64.05,7.74
		c-13.87-33.07-23.39-73.25-29.85-120.35c29.36-3.55,64.53-5.49,93.9-5.81V746.8L497.3,746.8z M568.12,754.54
		c-19.2-4.52-44.85-7.1-64.05-7.74V628.22c29.36,0.32,65.02,2.26,94.38,5.65C591.84,681.13,582.32,721.63,568.12,754.54
		L568.12,754.54z M624.75,773.58c-13.39-5.97-36.14-13.87-49.69-17.75c13.07-34.2,22.91-74.05,30.33-120.35
		c30.01,2.9,71.47,11.29,101.32,18.71C688.15,704.04,659.12,742.76,624.75,773.58L624.75,773.58z M570.97,762.57
		c10.65,2.9,38.44,11.87,48.93,16.96c-18.39,15.65-88.56,51.96-111.15,56.96C525.69,822.46,562.42,785.97,570.97,762.57
		L570.97,762.57z M504.07,753.89c16.46,0.48,43.98,3.86,60.27,7.25c-12.91,24.52-40.1,56.32-60.27,70.67V753.89L504.07,753.89z
		 M438.73,760.19c16.46-3.55,41.95-5.65,58.56-6.29v77.76C476.81,817.14,451.64,785.03,438.73,760.19L438.73,760.19z M381.78,778.09
		c10.65-4.19,39.04-13.55,49.69-16.46c8.71,19.36,46.3,61.47,62.44,75.5C471.16,831.01,400.34,794.87,381.78,778.09L381.78,778.09z
		 M606.36,626.6c4.68-34.53,6.29-86.96,7.26-123.42h117.93c0.48,49.21-10.49,105.83-21.62,143.59
		C678.96,638.86,637.34,630.96,606.36,626.6L606.36,626.6z M504.07,620.31V503.18h104.87c-1.77,37.75-4.36,90.83-8.07,123.1
		C570.7,622.57,534.24,620.63,504.07,620.31L504.07,620.31z M400.98,626.28c-3.71-32.11-6.29-85.35-8.23-123.1H497.3v117.13
		C467.29,620.63,431.15,622.73,400.98,626.28L400.98,626.28z M291.6,647.25c-11.78-36.62-20.65-94.86-21.78-144.07h116.81
		c1.13,36.46,4.03,90.83,8.71,125.52C364.36,633.06,322.74,639.35,291.6,647.25L291.6,647.25z M427.76,244.08
		c-15.17,34.53-26.72,74.79-33.49,120.61c-29.04-4.19-70.05-10.9-99.09-18c17.42-45.82,44.01-87.12,79.82-120.35
		C388.24,232.14,414.53,240.21,427.76,244.08L427.76,244.08z M497.3,253.76v118.42c-30.33-0.32-66.47-2.26-96.8-6.13
		c6.78-46.79,20.17-87.12,34.36-120.03C454.54,250.54,477.62,253.12,497.3,253.76L497.3,253.76z M569.57,245.7
		c14.52,32.91,25.17,73.89,31.94,120.68c-30.33,3.87-67.11,5.81-97.45,6.13V253.76C523.76,253.12,549.89,250.21,569.57,245.7
		L569.57,245.7z M626.69,226.01c36.14,33.23,63.14,74.86,80.24,121c-29.04,7.42-69.42,13.28-98.46,17.48
		c-6.13-46.14-18.24-85.88-33.73-120.73C587.97,239.89,613.46,231.82,626.69,226.01L626.69,226.01z M571.38,237.24
		c-12.91-23.55-43.75-59.95-62.14-72.54c29.52,7.74,91.31,37.43,114.22,55.82C612.49,224.72,588.8,234.34,571.38,237.24
		L571.38,237.24z M504.07,246.66v-79.38c19.68,13.55,44.81,45.28,59.01,71.74C546.31,242.9,521.17,246.02,504.07,246.66
		L504.07,246.66z M439.22,238.6c14.2-26.78,38.72-57.76,58.08-71.31v79.38C480.52,246.02,456,242.47,439.22,238.6L439.22,238.6z
		 M379.41,221.47c22.26-17.75,78.2-52.08,112.08-56.6c-15.49,9.2-47.2,49.89-59.47,72.8C416.58,234.92,392.98,226.63,379.41,221.47
		L379.41,221.47z M609.42,371.37c30.33-4.19,70.18-10.65,100.51-18.39c12.91,40.01,21.94,100.51,21.94,143.43H613.94
		C614.26,459.95,613.3,405.9,609.42,371.37L609.42,371.37z M504.07,378.96c31.3-0.32,68.73-1.77,99.7-5.65
		c3.87,32.27,5.81,85.67,5.81,123.1H504.07V378.96L504.07,378.96z M399.69,372.99c31.3,4.2,66.63,5.65,97.61,5.97v117.45H392.11
		C392.11,458.98,395.82,405.58,399.69,372.99L399.69,372.99z M292.24,352.34c30.33,7.74,71.21,14.77,101.54,19.29
		c-3.87,34.53-7.81,88.32-7.49,124.78H269.5C270.14,453.49,279.66,392.35,292.24,352.34z"/>
	<path class="st5" d="M501.02,156.03c-190.16,0-344.31,154.15-344.31,344.31c0,190.16,154.15,344.31,344.31,344.31
		s344.31-154.15,344.31-344.31C845.32,310.18,691.17,156.03,501.02,156.03L501.02,156.03z M334.65,795.63
		c-49.79-28.11-91.74-68.46-121.8-116.96c22.78-7.83,53.43-17.2,76.01-22.54c17.75,47.92,44.85,88.57,80.99,121
		C361.51,781.22,345.01,789.77,334.65,795.63L334.65,795.63z M208.66,671.74c-29.08-49.52-45.92-107.09-46.4-168.56h100.46
		c0.81,44.69,9.84,105.03,23.07,146.49C262.39,656.11,232.27,663.47,208.66,671.74L208.66,671.74z M162.28,496.41
		c0.73-61.4,17.79-118.86,47.05-168.26c23.57,8.25,54.46,14.92,77.43,21.44c-12.91,40.98-22.75,101.96-24.04,146.81H162.28
		L162.28,496.41z M212.98,322.13c29.9-48.17,71.55-88.28,120.95-116.34c9.36,5.56,27.1,15.24,34.79,19.09
		c-34.2,32.59-61.43,70.54-79.17,119.26C267.2,337.94,235.73,329.91,212.98,322.13L212.98,322.13z M341.36,201.69
		c40.77-21.82,86.53-35.54,135.12-39c-34.67,9.3-75.22,33.96-103.76,56.08C365.63,216.81,349.21,207.44,341.36,201.69L341.36,201.69
		z M519.53,162.32c50.67,2.74,98.38,16.63,140.73,39.24c-8.03,3.96-24.39,11.79-30.66,14.77
		C606.33,199.51,558.65,174.32,519.53,162.32L519.53,162.32z M666.86,205.19c49.63,27.94,91.5,68.04,121.59,116.25
		c-22.97,8.23-52.58,17.74-74.84,23.7c-17.42-49.05-45.62-89.59-80.15-122.18C641.34,219.15,657.41,210.6,666.86,205.19
		L666.86,205.19z M792.08,327.38c29.49,49.48,46.71,107.12,47.5,168.72l-100.77,0.31c-0.97-44.85-9.68-105.19-22.59-146.17
		C739.47,343.64,768.53,335.82,792.08,327.38L792.08,327.38z M839.61,502.87c-0.42,61.77-17.38,119.6-46.66,169.31
		c-23.61-8.54-53.99-18.33-77.2-24.76c13.39-41.46,22.43-99.38,23.07-144.23L839.61,502.87L839.61,502.87z M789.48,677.93
		c-29.96,48.63-71.88,89.1-121.64,117.35c-10.57-6-28.48-14.55-37.44-18.96c36.46-32.43,65.99-73.24,84.05-121.32
		C737.1,661.13,766.49,669.87,789.48,677.93L789.48,677.93z M660.72,799.21c-41.89,22.46-89.06,36.35-139.17,39.36
		c37.69-12.27,80.71-37.37,106.11-56.6C635.17,785.43,651.48,794.08,660.72,799.21L660.72,799.21z M478.48,838.45
		c-49.48-3.24-96.07-17.1-137.49-39.33c9.89-5.06,28.33-13.22,35.8-16.67C402.1,801.58,443.31,825.58,478.48,838.45L478.48,838.45z
		 M427.76,755.67c-13.71,3.87-37.75,11.94-51.63,17.91c-33.88-30.49-62.11-69.86-80.51-119.55c29.85-7.42,70.02-13.55,100.03-17.75
		C402.92,682.42,414.7,721.47,427.76,755.67L427.76,755.67z M497.3,746.8c-19.52,0.65-44.69,3.23-64.05,7.74
		c-13.87-33.07-23.39-73.25-29.85-120.35c29.36-3.55,64.53-5.49,93.9-5.81V746.8L497.3,746.8z M568.12,754.54
		c-19.2-4.52-44.85-7.1-64.05-7.74V628.22c29.36,0.32,65.02,2.26,94.38,5.65C591.84,681.13,582.32,721.63,568.12,754.54
		L568.12,754.54z M624.75,773.58c-13.39-5.97-36.14-13.87-49.69-17.75c13.07-34.2,22.91-74.05,30.33-120.35
		c30.01,2.9,71.47,11.29,101.32,18.71C688.15,704.04,659.12,742.76,624.75,773.58L624.75,773.58z M570.97,762.57
		c10.65,2.9,38.44,11.87,48.93,16.96c-18.39,15.65-88.56,51.96-111.15,56.96C525.69,822.46,562.42,785.97,570.97,762.57
		L570.97,762.57z M504.07,753.89c16.46,0.48,43.98,3.86,60.27,7.25c-12.91,24.52-40.1,56.32-60.27,70.67V753.89L504.07,753.89z
		 M438.73,760.19c16.46-3.55,41.95-5.65,58.56-6.29v77.76C476.81,817.14,451.64,785.03,438.73,760.19L438.73,760.19z M381.78,778.09
		c10.65-4.19,39.04-13.55,49.69-16.46c8.71,19.36,46.3,61.47,62.44,75.5C471.16,831.01,400.34,794.87,381.78,778.09L381.78,778.09z
		 M606.36,626.6c4.68-34.53,6.29-86.96,7.26-123.42h117.93c0.48,49.21-10.49,105.83-21.62,143.59
		C678.96,638.86,637.34,630.96,606.36,626.6L606.36,626.6z M504.07,620.31V503.18h104.87c-1.77,37.75-4.36,90.83-8.07,123.1
		C570.7,622.57,534.24,620.63,504.07,620.31L504.07,620.31z M400.98,626.28c-3.71-32.11-6.29-85.35-8.23-123.1H497.3v117.13
		C467.29,620.63,431.15,622.73,400.98,626.28L400.98,626.28z M291.6,647.25c-11.78-36.62-20.65-94.86-21.78-144.07h116.81
		c1.13,36.46,4.03,90.83,8.71,125.52C364.36,633.06,322.74,639.35,291.6,647.25L291.6,647.25z M427.76,244.08
		c-15.17,34.53-26.72,74.79-33.49,120.61c-29.04-4.19-70.05-10.9-99.09-18c17.42-45.82,44.01-87.12,79.82-120.35
		C388.24,232.14,414.53,240.21,427.76,244.08L427.76,244.08z M497.3,253.76v118.42c-30.33-0.32-66.47-2.26-96.8-6.13
		c6.78-46.79,20.17-87.12,34.36-120.03C454.54,250.54,477.62,253.12,497.3,253.76L497.3,253.76z M569.57,245.7
		c14.52,32.91,25.17,73.89,31.94,120.68c-30.33,3.87-67.11,5.81-97.45,6.13V253.76C523.76,253.12,549.89,250.21,569.57,245.7
		L569.57,245.7z M626.69,226.01c36.14,33.23,63.14,74.86,80.24,121c-29.04,7.42-69.42,13.28-98.46,17.48
		c-6.13-46.14-18.24-85.88-33.73-120.73C587.97,239.89,613.46,231.82,626.69,226.01L626.69,226.01z M571.38,237.24
		c-12.91-23.55-43.75-59.95-62.14-72.54c29.52,7.74,91.31,37.43,114.22,55.82C612.49,224.72,588.8,234.34,571.38,237.24
		L571.38,237.24z M504.07,246.66v-79.38c19.68,13.55,44.81,45.28,59.01,71.74C546.31,242.9,521.17,246.02,504.07,246.66
		L504.07,246.66z M439.22,238.6c14.2-26.78,38.72-57.76,58.08-71.31v79.38C480.52,246.02,456,242.47,439.22,238.6L439.22,238.6z
		 M379.41,221.47c22.26-17.75,78.2-52.08,112.08-56.6c-15.49,9.2-47.2,49.89-59.47,72.8C416.58,234.92,392.98,226.63,379.41,221.47
		L379.41,221.47z M609.42,371.37c30.33-4.19,70.18-10.65,100.51-18.39c12.91,40.01,21.94,100.51,21.94,143.43H613.94
		C614.26,459.95,613.3,405.9,609.42,371.37L609.42,371.37z M504.07,378.96c31.3-0.32,68.73-1.77,99.7-5.65
		c3.87,32.27,5.81,85.67,5.81,123.1H504.07V378.96L504.07,378.96z M399.69,372.99c31.3,4.2,66.63,5.65,97.61,5.97v117.45H392.11
		C392.11,458.98,395.82,405.58,399.69,372.99L399.69,372.99z M292.24,352.34c30.33,7.74,71.21,14.77,101.54,19.29
		c-3.87,34.53-7.81,88.32-7.49,124.78H269.5C270.14,453.49,279.66,392.35,292.24,352.34z"/>
	<path class="st6" d="M497.19,152.2c-190.16,0-344.31,154.15-344.31,344.31s154.15,344.31,344.31,344.31
		s344.31-154.15,344.31-344.31S687.34,152.2,497.19,152.2L497.19,152.2z M330.82,791.8c-49.79-28.11-91.74-68.46-121.8-116.96
		c22.78-7.83,53.43-17.2,76.01-22.54c17.75,47.92,44.85,88.57,80.99,121C357.68,777.39,341.18,785.94,330.82,791.8L330.82,791.8z
		 M204.83,667.91c-29.08-49.52-45.92-107.09-46.4-168.56h100.46c0.81,44.69,9.84,105.03,23.07,146.49
		C258.56,652.28,228.44,659.64,204.83,667.91L204.83,667.91z M158.45,492.58c0.73-61.4,17.79-118.86,47.05-168.26
		c23.57,8.25,54.46,14.92,77.43,21.44c-12.91,40.98-22.75,101.96-24.04,146.81H158.45L158.45,492.58z M209.15,318.3
		c29.9-48.17,71.55-88.28,120.95-116.34c9.36,5.56,27.1,15.24,34.79,19.09c-34.2,32.59-61.43,70.54-79.17,119.26
		C263.37,334.11,231.9,326.08,209.15,318.3L209.15,318.3z M337.53,197.86c40.77-21.82,86.53-35.54,135.12-39
		c-34.67,9.3-75.22,33.96-103.76,56.08C361.8,212.98,345.38,203.61,337.53,197.86L337.53,197.86z M515.7,158.49
		c50.67,2.74,98.38,16.63,140.73,39.24c-8.03,3.96-24.39,11.79-30.66,14.77C602.5,195.68,554.82,170.49,515.7,158.49L515.7,158.49z
		 M663.03,201.36c49.63,27.94,91.5,68.04,121.59,116.25c-22.97,8.23-52.58,17.74-74.84,23.7c-17.42-49.05-45.62-89.59-80.15-122.18
		C637.51,215.32,653.58,206.77,663.03,201.36L663.03,201.36z M788.25,323.55c29.49,49.48,46.71,107.12,47.5,168.72l-100.77,0.31
		c-0.97-44.85-9.68-105.19-22.59-146.17C735.64,339.81,764.7,331.99,788.25,323.55L788.25,323.55z M835.78,499.04
		c-0.42,61.77-17.38,119.6-46.66,169.31c-23.61-8.54-53.99-18.33-77.2-24.76c13.39-41.46,22.43-99.38,23.07-144.23L835.78,499.04
		L835.78,499.04z M785.65,674.1c-29.96,48.63-71.88,89.1-121.64,117.35c-10.57-6-28.48-14.55-37.44-18.96
		c36.46-32.43,65.99-73.24,84.05-121.32C733.27,657.3,762.66,666.04,785.65,674.1L785.65,674.1z M656.89,795.38
		c-41.89,22.46-89.06,36.35-139.17,39.36c37.69-12.27,80.71-37.37,106.11-56.6C631.34,781.6,647.65,790.25,656.89,795.38
		L656.89,795.38z M474.65,834.62c-49.48-3.24-96.07-17.1-137.49-39.33c9.89-5.06,28.33-13.22,35.8-16.67
		C398.27,797.75,439.48,821.75,474.65,834.62L474.65,834.62z M423.93,751.84c-13.71,3.87-37.75,11.94-51.63,17.91
		c-33.88-30.49-62.11-69.86-80.51-119.55c29.85-7.42,70.02-13.55,100.03-17.75C399.09,678.59,410.87,717.64,423.93,751.84
		L423.93,751.84z M493.47,742.97c-19.52,0.65-44.69,3.23-64.05,7.74c-13.87-33.07-23.39-73.25-29.85-120.35
		c29.36-3.55,64.53-5.49,93.9-5.81V742.97L493.47,742.97z M564.29,750.71c-19.2-4.52-44.85-7.1-64.05-7.74V624.39
		c29.36,0.32,65.02,2.26,94.38,5.65C588.01,677.3,578.49,717.8,564.29,750.71L564.29,750.71z M620.92,769.75
		c-13.39-5.97-36.14-13.87-49.69-17.75c13.07-34.2,22.91-74.05,30.33-120.35c30.01,2.9,71.47,11.29,101.32,18.72
		C684.33,700.21,655.29,738.93,620.92,769.75L620.92,769.75z M567.14,758.74c10.65,2.9,38.44,11.87,48.93,16.96
		c-18.39,15.65-88.56,51.96-111.15,56.96C521.86,818.63,558.59,782.14,567.14,758.74L567.14,758.74z M500.24,750.06
		c16.46,0.48,43.98,3.86,60.27,7.25c-12.91,24.52-40.1,56.32-60.27,70.67V750.06L500.24,750.06z M434.9,756.36
		c16.46-3.55,41.95-5.65,58.56-6.29v77.76C472.98,813.31,447.81,781.2,434.9,756.36L434.9,756.36z M377.95,774.26
		c10.65-4.19,39.04-13.55,49.69-16.46c8.71,19.36,46.3,61.47,62.44,75.5C467.33,827.18,396.51,791.04,377.95,774.26L377.95,774.26z
		 M602.53,622.77c4.68-34.53,6.29-86.96,7.26-123.42h117.93c0.48,49.21-10.49,105.83-21.62,143.59
		C675.13,635.03,633.51,627.13,602.53,622.77L602.53,622.77z M500.24,616.48V499.35h104.87c-1.77,37.75-4.36,90.83-8.07,123.1
		C566.87,618.74,530.41,616.8,500.24,616.48L500.24,616.48z M397.15,622.45c-3.71-32.11-6.29-85.35-8.23-123.1h104.54v117.13
		C463.46,616.8,427.32,618.9,397.15,622.45L397.15,622.45z M287.77,643.42c-11.78-36.62-20.65-94.86-21.78-144.07h116.81
		c1.13,36.46,4.03,90.83,8.71,125.52C360.53,629.23,318.91,635.52,287.77,643.42L287.77,643.42z M423.93,240.25
		c-15.17,34.52-26.72,74.79-33.49,120.61c-29.04-4.19-70.05-10.9-99.09-18c17.42-45.82,44.01-87.12,79.82-120.35
		C384.41,228.31,410.7,236.38,423.93,240.25L423.93,240.25z M493.47,249.93v118.42c-30.33-0.32-66.47-2.26-96.8-6.13
		c6.78-46.79,20.17-87.12,34.36-120.03C450.71,246.71,473.79,249.29,493.47,249.93L493.47,249.93z M565.74,241.87
		c14.52,32.91,25.17,73.89,31.94,120.68c-30.33,3.87-67.11,5.81-97.45,6.13V249.93C519.93,249.29,546.06,246.38,565.74,241.87
		L565.74,241.87z M622.86,222.18c36.14,33.23,63.14,74.86,80.24,121c-29.04,7.42-69.42,13.28-98.46,17.48
		c-6.13-46.14-18.24-85.88-33.73-120.73C584.14,236.06,609.63,227.99,622.86,222.18L622.86,222.18z M567.55,233.41
		c-12.91-23.55-43.75-59.95-62.14-72.54c29.52,7.74,91.31,37.43,114.22,55.82C608.66,220.89,584.97,230.51,567.55,233.41
		L567.55,233.41z M500.24,242.83v-79.38c19.68,13.55,44.81,45.28,59.01,71.74C542.48,239.07,517.35,242.19,500.24,242.83
		L500.24,242.83z M435.39,234.77c14.2-26.78,38.72-57.76,58.08-71.31v79.38C476.69,242.19,452.17,238.64,435.39,234.77
		L435.39,234.77z M375.58,217.64c22.26-17.75,78.2-52.08,112.08-56.6c-15.49,9.2-47.2,49.89-59.47,72.8
		C412.75,231.09,389.15,222.8,375.58,217.64L375.58,217.64z M605.59,367.54c30.33-4.19,70.18-10.65,100.51-18.39
		c12.91,40.01,21.94,100.51,21.94,143.43H610.11C610.43,456.12,609.47,402.07,605.59,367.54L605.59,367.54z M500.24,375.13
		c31.3-0.32,68.73-1.77,99.7-5.65c3.87,32.27,5.81,85.67,5.81,123.1H500.24V375.13L500.24,375.13z M395.86,369.16
		c31.3,4.2,66.63,5.65,97.61,5.97v117.45H388.28C388.28,455.15,391.99,401.75,395.86,369.16L395.86,369.16z M288.41,348.51
		c30.33,7.74,71.21,14.77,101.54,19.29c-3.87,34.53-7.81,88.32-7.49,124.78H265.67C266.31,449.66,275.83,388.52,288.41,348.51z"/>
	<path class="st7" d="M499.1,154.12c-190.16,0-344.31,154.15-344.31,344.31S308.95,842.73,499.1,842.73s344.31-154.15,344.31-344.31
		S689.26,154.12,499.1,154.12L499.1,154.12z M332.73,793.71c-49.79-28.11-91.74-68.46-121.8-116.96
		c22.78-7.83,53.43-17.2,76.01-22.54c17.75,47.92,44.85,88.57,80.99,121C359.6,779.31,343.1,787.86,332.73,793.71L332.73,793.71z
		 M206.75,669.82c-29.08-49.52-45.92-107.09-46.4-168.56H260.8c0.81,44.69,9.84,105.03,23.07,146.49
		C260.48,654.2,230.36,661.55,206.75,669.82L206.75,669.82z M160.37,494.49c0.73-61.4,17.79-118.86,47.05-168.26
		c23.57,8.25,54.46,14.92,77.43,21.44c-12.91,40.98-22.75,101.96-24.04,146.81H160.37L160.37,494.49z M211.06,320.22
		c29.9-48.17,71.55-88.28,120.95-116.34c9.36,5.56,27.1,15.24,34.79,19.09c-34.2,32.59-61.43,70.54-79.17,119.26
		C265.29,336.02,233.82,328,211.06,320.22L211.06,320.22z M339.45,199.78c40.77-21.82,86.53-35.54,135.12-39
		c-34.67,9.3-75.22,33.96-103.76,56.08C363.71,214.89,347.29,205.53,339.45,199.78L339.45,199.78z M517.61,160.4
		c50.67,2.74,98.38,16.63,140.73,39.24c-8.03,3.96-24.39,11.79-30.66,14.77C604.41,197.59,556.73,172.41,517.61,160.4L517.61,160.4z
		 M664.94,203.27c49.63,27.94,91.5,68.04,121.59,116.25c-22.97,8.23-52.58,17.74-74.84,23.7c-17.42-49.05-45.62-89.59-80.15-122.18
		C639.43,217.24,655.5,208.69,664.94,203.27L664.94,203.27z M790.16,325.46c29.49,49.48,46.71,107.12,47.5,168.72l-100.77,0.31
		c-0.97-44.85-9.68-105.19-22.59-146.17C737.56,341.73,766.61,333.91,790.16,325.46L790.16,325.46z M837.69,500.95
		c-0.42,61.77-17.38,119.6-46.66,169.31c-23.61-8.54-53.99-18.33-77.2-24.76c13.39-41.46,22.43-99.38,23.07-144.23L837.69,500.95
		L837.69,500.95z M787.57,676.02c-29.96,48.63-71.88,89.1-121.64,117.35c-10.57-6-28.48-14.55-37.44-18.96
		c36.46-32.43,65.99-73.24,84.05-121.32C735.19,659.22,764.58,667.96,787.57,676.02L787.57,676.02z M658.8,797.29
		c-41.89,22.46-89.06,36.35-139.17,39.36c37.69-12.27,80.71-37.37,106.11-56.6C633.25,783.52,649.57,792.16,658.8,797.29
		L658.8,797.29z M476.56,836.54c-49.48-3.24-96.07-17.1-137.49-39.33c9.89-5.06,28.33-13.22,35.8-16.67
		C400.18,799.67,441.4,823.67,476.56,836.54L476.56,836.54z M425.85,753.75c-13.71,3.87-37.75,11.94-51.63,17.91
		c-33.88-30.49-62.11-69.86-80.51-119.55c29.85-7.42,70.02-13.55,100.03-17.75C401,680.51,412.78,719.55,425.85,753.75
		L425.85,753.75z M495.38,744.88c-19.52,0.65-44.69,3.23-64.05,7.74c-13.87-33.07-23.39-73.25-29.85-120.35
		c29.36-3.55,64.53-5.49,93.9-5.81V744.88L495.38,744.88z M566.21,752.63c-19.2-4.52-44.85-7.1-64.05-7.74V626.3
		c29.36,0.32,65.02,2.26,94.38,5.65C589.92,679.22,580.41,719.71,566.21,752.63L566.21,752.63z M622.84,771.66
		c-13.39-5.97-36.14-13.87-49.69-17.75c13.07-34.2,22.91-74.05,30.33-120.35c30.01,2.9,71.47,11.29,101.32,18.71
		C686.24,702.13,657.2,740.85,622.84,771.66L622.84,771.66z M569.05,760.66c10.65,2.9,38.44,11.87,48.93,16.96
		c-18.39,15.65-88.56,51.96-111.15,56.96C523.78,820.55,560.5,784.05,569.05,760.66L569.05,760.66z M502.16,751.98
		c16.46,0.48,43.98,3.86,60.27,7.25c-12.91,24.52-40.1,56.32-60.27,70.67V751.98L502.16,751.98z M436.82,758.27
		c16.46-3.55,41.95-5.65,58.56-6.29v77.76C474.89,815.22,449.73,783.12,436.82,758.27L436.82,758.27z M379.87,776.18
		c10.65-4.19,39.04-13.55,49.69-16.46c8.71,19.36,46.3,61.47,62.44,75.5C469.25,829.1,398.42,792.96,379.87,776.18L379.87,776.18z
		 M604.44,624.69c4.68-34.53,6.29-86.96,7.26-123.42h117.93c0.48,49.21-10.49,105.83-21.62,143.59
		C677.04,636.95,635.42,629.04,604.44,624.69L604.44,624.69z M502.16,618.4V501.27h104.87c-1.77,37.75-4.36,90.83-8.07,123.1
		C568.79,620.65,532.33,618.72,502.16,618.4L502.16,618.4z M399.07,624.37c-3.71-32.11-6.29-85.35-8.23-123.1h104.54V618.4
		C465.38,618.72,429.24,620.82,399.07,624.37L399.07,624.37z M289.68,645.34c-11.78-36.62-20.65-94.86-21.78-144.07h116.81
		c1.13,36.46,4.03,90.83,8.71,125.52C362.44,631.14,320.82,637.43,289.68,645.34L289.68,645.34z M425.85,242.17
		c-15.17,34.53-26.72,74.79-33.49,120.61c-29.04-4.19-70.05-10.9-99.09-18c17.42-45.82,44.01-87.12,79.82-120.35
		C386.32,230.23,412.62,238.29,425.85,242.17L425.85,242.17z M495.38,251.85v118.42c-30.33-0.32-66.47-2.26-96.8-6.13
		c6.78-46.79,20.17-87.12,34.36-120.03C452.63,248.62,475.7,251.2,495.38,251.85L495.38,251.85z M567.66,243.78
		c14.52,32.91,25.17,73.89,31.94,120.68c-30.33,3.87-67.11,5.81-97.45,6.13V251.85C521.84,251.2,547.98,248.3,567.66,243.78
		L567.66,243.78z M624.77,224.1c36.14,33.23,63.14,74.86,80.24,121c-29.04,7.42-69.42,13.28-98.46,17.48
		c-6.13-46.14-18.24-85.88-33.73-120.73C586.05,237.97,611.54,229.91,624.77,224.1L624.77,224.1z M569.46,235.33
		c-12.91-23.55-43.75-59.95-62.14-72.54c29.52,7.74,91.31,37.43,114.22,55.82C610.58,222.81,586.89,232.42,569.46,235.33
		L569.46,235.33z M502.16,244.75v-79.38c19.68,13.55,44.81,45.28,59.01,71.74C544.39,240.98,519.26,244.1,502.16,244.75
		L502.16,244.75z M437.3,236.68c14.2-26.78,38.72-57.76,58.08-71.31v79.38C478.6,244.1,454.08,240.55,437.3,236.68L437.3,236.68z
		 M377.5,219.55c22.26-17.75,78.2-52.08,112.08-56.6c-15.49,9.2-47.2,49.89-59.47,72.8C414.67,233.01,391.07,224.71,377.5,219.55
		L377.5,219.55z M607.51,369.46c30.33-4.19,70.18-10.65,100.51-18.39c12.91,40.01,21.94,100.51,21.94,143.43H612.03
		C612.35,458.03,611.38,403.98,607.51,369.46L607.51,369.46z M502.16,377.04c31.3-0.32,68.73-1.77,99.7-5.65
		c3.87,32.27,5.81,85.67,5.81,123.1H502.16V377.04L502.16,377.04z M397.78,371.07c31.3,4.2,66.63,5.65,97.61,5.97v117.45H390.19
		C390.19,457.06,393.9,403.66,397.78,371.07L397.78,371.07z M290.33,350.42c30.33,7.74,71.21,14.77,101.54,19.29
		c-3.87,34.53-7.81,88.32-7.49,124.78H267.58C268.23,451.58,277.74,390.43,290.33,350.42z"/>
	<g>
		<path class="st8" d="M466.17,145.02c17.98,6.23,21.9,26.83,53.94,18.47C503.64,146.83,496.85,136.11,466.17,145.02z"/>
		<path class="st9" d="M435.56,149.17c18.45,4.64,24.15,24.82,55.35,13.7C473.05,147.72,465.35,137.63,435.56,149.17z"/>
		<path class="st9" d="M405.43,156.01c18.78,3.02,26.22,22.62,56.33,8.83C442.64,151.29,434.09,141.91,405.43,156.01z"/>
		<path class="st8" d="M375.97,165.32c18.98,1.37,28.09,20.25,56.88,3.88C412.63,157.38,403.3,148.78,375.97,165.32z"/>
		<path class="st8" d="M347.4,177.32c19.02-0.29,29.75,17.72,57.01-1.09C383.23,166.21,373.18,158.46,347.4,177.32z"/>
		<path class="st8" d="M320.02,191.61c18.93-1.95,31.18,15.06,56.69-6.06C354.75,177.41,344.06,170.57,320.02,191.61z"/>
		<path class="st8" d="M293.95,208.38c18.68-3.59,32.38,12.29,55.95-10.97C327.31,191.21,316.06,185.32,293.95,208.38z"/>
		<path class="st8" d="M269.49,227.23c18.3-5.2,33.32,9.42,54.78-15.81C301.22,207.22,289.51,202.34,269.49,227.23z"/>
		<path class="st9" d="M246.74,248.17c17.78-6.78,34.02,6.48,53.2-20.52C276.61,225.47,264.52,221.62,246.74,248.17z"/>
		<path class="st8" d="M225.92,271.09c17.12-8.3,34.45,3.49,51.2-25.08C253.7,245.87,241.32,243.1,225.92,271.09z"/>
		<path class="st8" d="M207.13,295.68c16.33-9.76,34.63,0.47,48.82-29.45C232.61,268.15,220.03,266.46,207.13,295.68z"/>
		<path class="st9" d="M190.68,321.76c15.42-11.15,34.54-2.55,46.07-33.59C213.66,292.1,200.98,291.52,190.68,321.76z"/>
		<path class="st9" d="M176.48,349.3c14.39-12.45,34.18-5.55,42.97-37.48C196.78,317.76,184.1,318.28,176.48,349.3z"/>
		<path class="st9" d="M164.72,377.92c13.25-13.66,33.57-8.51,39.54-41.08C182.2,344.73,169.61,346.35,164.72,377.92z"/>
		<path class="st8" d="M155.52,407.4c12.01-14.76,32.7-11.4,35.81-44.37C170.04,372.81,157.64,375.52,155.52,407.4z"/>
		<path class="st8" d="M148.88,437.63c10.67-15.75,31.58-14.21,31.8-47.32C160.33,401.91,148.22,405.7,148.88,437.63z"/>
		<path class="st8" d="M144.91,468.32c9.26-16.62,30.22-16.9,27.56-49.91C153.2,431.74,141.46,436.56,144.91,468.32z"/>
		<path class="st8" d="M143.71,499.05c7.78-17.36,28.64-19.47,23.1-52.13C148.78,461.88,137.51,467.72,143.71,499.05z"/>
		<path class="st8" d="M145.08,530.03c6.23-17.98,26.83-21.9,18.47-53.94C146.89,492.56,136.17,499.36,145.08,530.03z"/>
		<path class="st8" d="M149.23,560.64c4.64-18.45,24.82-24.15,13.7-55.35C147.78,523.16,137.69,530.86,149.23,560.64z"/>
		<path class="st8" d="M156.07,590.78c3.02-18.78,22.62-26.22,8.83-56.33C151.35,553.56,141.97,562.11,156.07,590.78z"/>
		<path class="st8" d="M165.38,620.23c1.37-18.98,20.25-28.09,3.88-56.88C157.44,583.57,148.84,592.91,165.38,620.23z"/>
		<path class="st8" d="M177.38,648.8c-0.29-19.02,17.72-29.75-1.09-57.01C166.27,612.97,158.52,623.02,177.38,648.8z"/>
		<path class="st8" d="M191.66,676.18c-1.95-18.93,15.06-31.18-6.06-56.69C177.47,641.45,170.63,652.14,191.66,676.18z"/>
		<path class="st8" d="M208.44,702.25c-3.59-18.68,12.29-32.38-10.97-55.95C191.27,668.89,185.38,680.14,208.44,702.25z"/>
		<path class="st8" d="M227.29,726.71c-5.2-18.3,9.42-33.33-15.81-54.78C207.28,694.98,202.4,706.69,227.29,726.71z"/>
		<path class="st8" d="M248.22,749.46c-6.78-17.78,6.48-34.02-20.52-53.2C225.53,719.59,221.68,731.68,248.22,749.46z"/>
		<path class="st8" d="M271.15,770.28c-8.3-17.12,3.49-34.45-25.08-51.2C245.93,742.5,243.15,754.89,271.15,770.28z"/>
		<path class="st9" d="M295.74,789.07c-9.76-16.33,0.47-34.63-29.45-48.82C268.21,763.6,266.52,776.17,295.74,789.07z"/>
		<path class="st9" d="M321.81,805.52c-11.15-15.42-2.55-34.54-33.59-46.07C292.16,782.54,291.58,795.22,321.81,805.52z"/>
		<path class="st9" d="M349.36,819.73c-12.45-14.39-5.55-34.18-37.48-42.97C317.82,799.42,318.34,812.1,349.36,819.73z"/>
		<path class="st9" d="M377.98,831.48c-13.66-13.25-8.51-33.57-41.08-39.54C344.79,814,346.41,826.59,377.98,831.48z"/>
		<path class="st8" d="M407.45,840.68c-14.76-12.01-11.4-32.7-44.37-35.81C372.87,826.16,375.58,838.56,407.45,840.68z"/>
		<path class="st9" d="M437.69,847.32c-15.75-10.67-14.21-31.58-47.32-31.8C401.97,835.87,405.75,847.99,437.69,847.32z"/>
		<path class="st9" d="M468.38,851.29c-16.62-9.26-16.9-30.22-49.91-27.56C431.8,843,436.62,854.74,468.38,851.29z"/>
		<path class="st8" d="M499.11,852.49c-17.36-7.78-19.47-28.64-52.13-23.1C461.94,847.42,467.77,858.69,499.11,852.49z"/>
		<path class="st8" d="M530.09,851.12c-17.98-6.23-21.9-26.83-53.94-18.47C492.62,849.31,499.41,860.03,530.09,851.12z"/>
		<path class="st8" d="M560.7,846.97c-18.45-4.64-24.15-24.82-55.35-13.7C523.22,848.43,530.92,858.52,560.7,846.97z"/>
		<path class="st8" d="M590.83,840.13c-18.78-3.02-26.22-22.62-56.33-8.83C553.62,844.85,562.17,854.23,590.83,840.13z"/>
		<path class="st8" d="M620.29,830.82c-18.98-1.37-28.09-20.25-56.88-3.88C583.63,838.77,592.97,847.37,620.29,830.82z"/>
		<path class="st8" d="M648.86,818.82c-19.02,0.29-29.75-17.72-57.01,1.09C613.03,829.93,623.08,837.68,648.86,818.82z"/>
		<path class="st8" d="M676.24,804.54c-18.93,1.95-31.18-15.06-56.69,6.06C641.51,818.73,652.2,825.58,676.24,804.54z"/>
		<path class="st8" d="M702.31,787.77c-18.68,3.59-32.38-12.29-55.95,10.97C668.95,804.93,680.2,810.82,702.31,787.77z"/>
		<path class="st8" d="M726.77,768.91c-18.3,5.2-33.33-9.42-54.78,15.81C695.04,788.92,706.75,793.81,726.77,768.91z"/>
		<path class="st8" d="M749.52,747.98c-17.78,6.78-34.02-6.48-53.2,20.52C719.65,770.67,731.74,774.52,749.52,747.98z"/>
		<path class="st8" d="M770.34,725.06c-17.12,8.3-34.45-3.49-51.2,25.08C742.56,750.27,754.95,753.05,770.34,725.06z"/>
		<path class="st9" d="M789.13,700.46c-16.33,9.76-34.63-0.47-48.82,29.45C763.66,728,776.23,729.68,789.13,700.46z"/>
		<path class="st8" d="M805.58,674.39c-15.42,11.15-34.54,2.55-46.07,33.59C782.6,704.04,795.28,704.63,805.58,674.39z"/>
		<path class="st9" d="M819.78,646.84c-14.39,12.45-34.18,5.55-42.97,37.48C799.48,678.38,812.16,677.86,819.78,646.84z"/>
		<path class="st9" d="M831.54,618.22c-13.25,13.66-33.57,8.51-39.54,41.08C814.06,651.42,826.65,649.79,831.54,618.22z"/>
		<path class="st8" d="M840.74,588.75c-12.01,14.76-32.7,11.4-35.81,44.37C826.22,623.34,838.62,620.62,840.74,588.75z"/>
		<path class="st9" d="M847.38,558.51c-10.67,15.75-31.58,14.21-31.8,47.32C835.93,594.23,848.05,590.45,847.38,558.51z"/>
		<path class="st8" d="M851.35,527.82c-9.26,16.62-30.22,16.9-27.56,49.91C843.06,564.41,854.8,559.58,851.35,527.82z"/>
		<path class="st8" d="M852.55,497.09c-7.78,17.36-28.64,19.47-23.1,52.13C847.48,534.26,858.75,528.43,852.55,497.09z"/>
		<path class="st8" d="M851.18,466.11c-6.23,17.98-26.83,21.9-18.47,53.94C849.37,503.58,860.09,496.79,851.18,466.11z"/>
		<path class="st9" d="M847.03,435.5c-4.64,18.45-24.82,24.15-13.7,55.35C848.49,472.99,858.58,465.29,847.03,435.5z"/>
		<path class="st9" d="M840.19,405.37c-3.02,18.78-22.62,26.22-8.82,56.33C844.91,442.58,854.29,434.03,840.19,405.37z"/>
		<path class="st9" d="M830.88,375.91c-1.37,18.98-20.25,28.09-3.88,56.88C838.83,412.57,847.42,403.24,830.88,375.91z"/>
		<path class="st8" d="M818.88,347.34c0.29,19.02-17.72,29.75,1.09,57.01C829.99,383.17,837.74,373.12,818.88,347.34z"/>
		<path class="st8" d="M804.6,319.97c1.95,18.93-15.06,31.18,6.06,56.69C818.79,354.69,825.63,344,804.6,319.97z"/>
		<path class="st8" d="M787.82,293.89c3.59,18.68-12.29,32.38,10.97,55.95C804.99,327.25,810.88,316.01,787.82,293.89z"/>
		<path class="st9" d="M768.97,269.43c5.2,18.3-9.42,33.32,15.81,54.78C788.98,301.16,793.87,289.45,768.97,269.43z"/>
		<path class="st9" d="M748.04,246.69c6.78,17.78-6.48,34.02,20.52,53.2C770.73,276.55,774.58,264.46,748.04,246.69z"/>
		<path class="st8" d="M725.12,225.86c8.3,17.12-3.49,34.45,25.08,51.2C750.33,253.64,753.11,241.26,725.12,225.86z"/>
		<path class="st8" d="M700.52,207.07c9.76,16.33-0.47,34.63,29.45,48.82C728.05,232.55,729.74,219.97,700.52,207.07z"/>
		<path class="st8" d="M674.45,190.63c11.15,15.42,2.55,34.54,33.59,46.07C704.1,213.6,704.68,200.92,674.45,190.63z"/>
		<path class="st8" d="M646.9,176.42c12.45,14.39,5.55,34.18,37.48,42.97C678.44,196.72,677.92,184.04,646.9,176.42z"/>
		<path class="st9" d="M618.28,164.66c13.66,13.25,8.51,33.57,41.08,39.54C651.47,182.14,649.85,169.55,618.28,164.66z"/>
		<path class="st8" d="M588.81,155.46c14.76,12.01,11.4,32.7,44.37,35.81C623.39,169.98,620.68,157.58,588.81,155.46z"/>
		<path class="st8" d="M558.57,148.82c15.75,10.67,14.21,31.58,47.32,31.8C594.29,160.27,590.51,148.16,558.57,148.82z"/>
		<path class="st8" d="M527.88,144.85c16.62,9.26,16.9,30.22,49.91,27.56C564.46,153.14,559.64,141.4,527.88,144.85z"/>
		<path class="st8" d="M497.15,143.65c17.36,7.78,19.47,28.64,52.13,23.1C534.32,148.72,528.49,137.45,497.15,143.65z"/>
	</g>
	<g>
		<path class="st10" d="M113.58,494.52v27.29H51.71v-27.55c0-5.81,1.33-10.57,4-14.3c2.67-3.71,6.14-6.4,10.4-8.06
			c4.27-1.66,8.93-2.52,14-2.6c5.71,0,11.08,0.82,16.15,2.45c5.06,1.62,9.22,4.33,12.46,8.1
			C111.96,483.63,113.58,488.52,113.58,494.52L113.58,494.52z M102.98,509.16v-12.75c0-4.8-2.08-8.32-6.24-10.57
			c-4.16-2.24-9.25-3.36-15.27-3.36c-3.74,0.13-7,0.56-9.74,1.32c-2.75,0.75-4.98,2.12-6.7,4.13c-1.71,2.01-2.57,4.83-2.57,8.47
			v12.75H102.98L102.98,509.16z M115.98,456.5l-61.1-9.68L62,401.85l10.79,1.71l-5.14,32.48l13,2.06l4.73-29.84l10.71,1.7
			l-4.73,29.84l15.81,2.5l5.36-33.85l10.79,1.71L115.98,456.5L115.98,456.5z M127.52,397.39l-58.49-20.14l14.34-41.65l10.33,3.56
			l-10.11,29.37l13.18,4.54l8.85-25.71l10.33,3.56l-8.85,25.71l24.65,8.49L127.52,397.39L127.52,397.39z M145.84,345.23l20.57-42.17
			l-9.82-4.79l-15.02,30.8l-14.38-7.02l13.24-27.16l-9.74-4.75l-13.24,27.16l-11.83-5.77l14.41-29.55l-9.82-4.79l-19.96,40.92
			L145.84,345.23L145.84,345.23z M173.28,292.22l-49.41-37.23l8.24-10.94l49.11,6.31l0.1-0.14l-34.36-25.89l7.25-9.62l49.4,37.23
			l-7.77,10.31l-50.35-6.38l-0.1,0.14l35.18,26.51L173.28,292.22L173.28,292.22z M197.92,227.17c9.48,9.82,20.8,8.92,34.02-2.73
			c1.24-1.11,2.61-2.66,4.12-4.64c1.51-1.96,2.81-4.38,3.9-7.22c1.09-2.86,1.41-5.94,0.96-9.26c-0.44-3.31-2.09-6.57-4.95-9.74
			c-2.33-2.59-4.68-4.26-7.04-5.01c-2.37-0.76-4.92-0.76-7.66,0c-2.73,0.76-6.15,2.24-10.23,4.43c-1.19,0.59-3.02,1.56-5.49,2.88
			c-2.49,1.33-5.14,2.76-7.97,4.26c-3.11,1.45-5.75,0.97-7.92-1.44c-1.49-1.92-1.86-3.94-1.12-6.09c0.75-2.14,2.2-4.24,4.33-6.29
			c5.97-5.37,11.22-5.97,15.74-1.78l9.21-8.29c-1.65-1.66-3.55-3.06-5.73-4.22c-2.18-1.16-4.61-1.85-7.31-2.06
			c-2.68-0.21-5.61,0.28-8.75,1.49c-3.16,1.2-6.42,3.33-9.78,6.35c-3.62,3.26-6.21,6.62-7.76,10.07c-1.56,3.45-2.06,6.84-1.52,10.17
			c0.55,3.33,2.04,6.42,4.5,9.3c2.73,3.04,5.6,4.91,8.59,5.6c3,0.7,5.97,0.57,8.93-0.42c2.96-0.98,6.27-2.56,9.93-4.77
			c1.2-0.77,2.97-1.76,5.33-2.97c2.85-1.48,4.86-2.49,6.08-3c1.2-0.52,2.48-0.72,3.84-0.6c1.35,0.11,2.62,0.83,3.8,2.14
			c3.28,3.86,1.6,8.77-5.03,14.73c-1.63,1.47-3.35,2.56-5.15,3.26c-1.8,0.72-3.62,0.89-5.47,0.53c-1.83-0.36-3.55-1.37-5.13-3.04
			L197.92,227.17L197.92,227.17z M257.41,198.41l-36.36-50.05l36.83-26.76l6.42,8.84l-26.6,19.33l7.74,10.65l24.44-17.76l6.37,8.77
			l-24.44,17.76l9.41,12.95l27.73-20.14l6.42,8.84L257.41,198.41L257.41,198.41z M351.55,141.88l-19.12-58.83l12.36-4.01l7.23,22.26
			l22.99-7.47l-7.23-22.26l12.27-3.99l19.12,58.83l-12.27,3.99l-8.56-26.35l-22.99,7.47l8.56,26.35L351.55,141.88L351.55,141.88z
			 M414.73,122.07l-9.68-61.1l44.97-7.12l1.71,10.79l-32.48,5.14l2.06,13l29.84-4.73l1.7,10.71l-29.84,4.73l2.5,15.81l33.85-5.36
			l1.71,10.79L414.73,122.07L414.73,122.07z M469.49,113.62l21.94-61.86h14.99l21.85,61.86h-14.1l-3.89-12.72h-22.81l-4.39,12.72
			H469.49L469.49,113.62z M498.65,65.71l-7.82,24.59h15.74l-7.74-24.59H498.65L498.65,65.71z M539.31,115.28l7.54-61.4l12.9,1.58
			l-6.16,50.2l30.49,3.74l-1.38,11.2L539.31,115.28L539.31,115.28z M600.24,127.01l12.32-49.42l-18.03-4.5l2.64-10.6l48.75,12.16
			l-2.64,10.6l-18.12-4.52l-12.32,49.42L600.24,127.01L600.24,127.01z M640.22,139.4l11.77,5.49l11.71-25.11L685.62,130
			l-11.71,25.11l11.7,5.45l26.14-56.07l-11.7-5.45l-9.89,21.21l-21.91-10.22l9.89-21.21l-11.77-5.49L640.22,139.4L640.22,139.4z
			 M736.2,194.75l56.57-33.29l11.48,9.63l-23.02,61.44l-10.8-9.06l5.2-12.24l-17.48-14.66l-11.54,6.92L736.2,194.75L736.2,194.75z
			 M789.34,176.79l-21.79,13.82l12.06,10.12l9.88-23.82L789.34,176.79L789.34,176.79z M810.47,220.33
			c-3.94,3.08-7.09,6.46-9.4,10.12c-2.32,3.67-3.81,7.38-4.49,11.14c-0.67,3.75-0.6,7.38,0.22,10.88c0.82,3.49,2.26,6.64,4.34,9.44
			c1.77,2.27,3.53,4.14,5.27,5.62c1.75,1.47,3.84,2.66,6.3,3.52c2.45,0.87,5.33,1.33,8.68,1.37l-5.32,5.79l5.3,6.78l26.24-20.5
			l-15.83-20.26l-8.22,6.42l8.79,11.26c-2.83,1.37-5.5,2.09-8.01,2.18c-2.52,0.08-4.81-0.41-6.88-1.45
			c-2.08-1.05-3.88-2.57-5.42-4.54c-0.32-0.41-0.74-1.04-1.3-1.94c-1.49-2.53-2.34-5.14-2.57-7.82c-0.21-2.67,0.44-5.47,2-8.39
			c1.54-2.92,4.17-5.82,7.86-8.71c3.39-2.65,6.58-4.43,9.59-5.38c3.02-0.94,5.72-1.21,8.14-0.83c2.42,0.4,4.5,1.18,6.26,2.35
			c1.76,1.16,3.24,2.51,4.44,4.05c1.65,2.11,2.66,4.33,2.99,6.64c0.35,2.31,0.23,4.39-0.32,6.23c-0.56,1.84-1.29,3.21-2.18,4.08
			l7.95,10.17c2.49-2.26,4.34-5.16,5.51-8.71c1.18-3.57,1.41-7.42,0.73-11.58c-0.7-4.15-2.42-8.1-5.17-11.88
			c-0.16-0.2-0.38-0.51-0.65-0.9c-0.29-0.39-0.49-0.67-0.63-0.85c-3.21-4.11-6.67-7.16-10.34-9.14c-3.68-1.98-7.44-3.03-11.28-3.14
			c-3.84-0.11-7.63,0.52-11.41,1.93C817.86,215.7,814.15,217.71,810.47,220.33L810.47,220.33z M829.81,297.43l54.11-29.99
			l22.07,39.82l-9.56,5.3l-15.94-28.76l-11.51,6.38l14.65,26.43l-9.48,5.26l-14.65-26.43l-14,7.76l16.62,29.97l-9.56,5.3
			L829.81,297.43L829.81,297.43z M856.28,350.55l4.15,11.41l41.4-15.07l0.06,0.16l-32.77,38.76l4.41,12.13l58.13-21.16l-4.12-11.32
			l-40.43,14.71l-0.06-0.16l32.04-37.76l-4.68-12.87L856.28,350.55L856.28,350.55z M907.7,404.68c4.85-0.77,9.32-0.83,13.4-0.2
			c4.09,0.62,7.68,1.88,10.78,3.78c3.1,1.91,5.68,4.42,7.73,7.54c2.06,3.14,3.51,6.77,4.36,10.93c0.95,4.91,0.86,9.46-0.28,13.64
			c-1.16,4.18-3.16,7.71-6.02,10.58c-2.87,2.88-6.29,4.92-10.25,6.1l-2.48-12.77c6.58-3.03,9.27-8,8.06-14.88
			c-0.99-5.08-3.66-8.61-8.01-10.57c-4.36-1.97-9.93-2.33-16.75-1.1c-0.1,0.14-0.26,0.23-0.49,0.27c-3.45,0.74-6.56,1.95-9.33,3.64
			c-2.77,1.68-4.86,3.78-6.28,6.33c-1.42,2.54-1.82,5.39-1.2,8.55c1.47,7.56,6.17,11.44,14.09,11.62l2.48,12.77
			c-4.48,0.02-8.61-0.72-12.39-2.27c-3.79-1.53-7.02-3.92-9.67-7.19c-2.65-3.27-4.48-7.35-5.5-12.28
			c-1.04-5.36-0.82-10.39,0.65-15.06c1.47-4.68,4.31-8.71,8.55-12.09c4.22-3.38,9.81-5.76,16.74-7.17
			C906.42,404.87,907.02,404.81,907.7,404.68L907.7,404.68z M885.45,494.26h23.32l38.55-21.32v15.04l-26.93,12.99l26.93,12.05v14.81
			l-38.63-20.66h-23.23V494.26z"/>
		<path class="st10" d="M110.6,703.16l-7.73-15.17l34.4-17.53l7.8,15.32c1.65,3.23,2.25,6.25,1.83,9.08
			c-0.43,2.82-1.6,5.29-3.5,7.43c-1.9,2.14-4.25,3.93-7.05,5.41c-3.17,1.62-6.4,2.69-9.67,3.21c-3.27,0.53-6.35,0.2-9.22-0.97
			C114.58,708.75,112.3,706.49,110.6,703.16L110.6,703.16z M112.34,692.01l3.61,7.09c1.36,2.67,3.51,4.04,6.46,4.11
			c2.95,0.07,6.09-0.75,9.44-2.46c2.04-1.13,3.73-2.29,5.04-3.49c1.32-1.19,2.17-2.59,2.55-4.19c0.38-1.6,0.06-3.41-0.97-5.44
			l-3.61-7.09L112.34,692.01L112.34,692.01z M126.87,732.26l16.79,23.99l5.59-3.91l-12.27-17.52l8.18-5.73l10.82,15.45l5.54-3.88
			L150.7,725.2l6.73-4.71l11.77,16.81l5.59-3.91l-16.3-23.27L126.87,732.26L126.87,732.26z M154.17,770.17l29.57-24.82l11.46,13.66
			c1.22,1.45,2.06,2.94,2.54,4.48c0.48,1.53,0.6,3.03,0.39,4.51c-0.21,1.47-0.72,2.88-1.51,4.2c-0.8,1.31-1.84,2.51-3.13,3.59
			c-2.81,2.36-5.71,3.58-8.71,3.67c-2.99,0.09-5.88-1.52-8.67-4.85l-6.05-7.2l-10.69,8.97L154.17,770.17L154.17,770.17z
			 M175.14,763.16l4.83,5.75c1.12,1.34,2.16,2.16,3.12,2.48c0.96,0.31,1.83,0.31,2.59-0.01c0.76-0.32,1.57-0.85,2.42-1.56
			c1.43-1.2,2.25-2.43,2.43-3.7c0.19-1.27-0.63-2.99-2.46-5.18l-4.25-5.06L175.14,763.16L175.14,763.16z M180.19,800.01l36.67-18.26
			l6.73,6.5l-17.01,37.24l-6.33-6.11l3.77-7.39l-10.24-9.89l-7.48,3.81L180.19,800.01L180.19,800.01z M214.05,791.14l-14.17,7.65
			l7.07,6.83l7.19-14.4L214.05,791.14L214.05,791.14z M218.98,836.19l6.13,4.97l9.5-11.73l6.69,5.42c1.38,1.12,2.27,2.12,2.64,3
			c0.37,0.88,0.43,1.66,0.16,2.35c-0.27,0.69-0.8,1.56-1.58,2.61c-0.66,0.88-1.36,1.8-2.1,2.75c-0.74,0.96-1.38,1.88-1.94,2.78
			c-0.55,0.9-0.99,1.76-1.29,2.59l6.93,5.61l0.68-0.83c-0.44-0.59-0.49-1.29-0.12-2.11c0.37-0.82,1.06-1.92,2.08-3.29
			c0.32-0.28,0.72-0.72,1.19-1.3l1.02-1.26c1.42-1.75,2.33-3.38,2.73-4.88c0.4-1.5,0.04-3.11-1.09-4.84
			c1.26,0.45,2.52,0.6,3.81,0.45c1.28-0.15,2.5-0.57,3.65-1.27c1.15-0.7,2.17-1.59,3.06-2.69c1.14-1.48,1.88-3.12,2.23-4.93
			c0.36-1.82,0.15-3.7-0.61-5.64c-0.76-1.94-2.17-3.75-4.24-5.42l-15.23-12.33L218.98,836.19L218.98,836.19z M238.71,824.37
			l6.48-8.01l7.98,6.46c1.52,1.23,2.3,2.49,2.36,3.77c0.05,1.29-0.35,2.46-1.21,3.51c-1.06,1.31-2.23,2.08-3.47,2.28
			c-1.25,0.2-2.69-0.37-4.33-1.7L238.71,824.37L238.71,824.37z M266.34,869.88l17.31-26.66l-9.73-6.32l3.71-5.72l26.3,17.08
			l-3.71,5.72l-9.77-6.35l-17.31,26.66L266.34,869.88L266.34,869.88z M296.66,887.78l6.87,3.2l13.62-29.21l0.14-0.04L310.01,894
			l7.2,3.36l20.09-26.19l0.14-0.04l-13.66,29.3l6.87,3.2l16.32-34.99l-10.57-4.93l-19.14,24.66l-0.1-0.05l6.58-30.51l-10.76-5.02
			L296.66,887.78L296.66,887.78z M348.07,910.12l12.57-36.5l26.87,9.25l-2.22,6.45l-19.4-6.68l-2.67,7.77l17.83,6.14l-2.2,6.4
			L361,896.8l-3.25,9.44l20.22,6.96l-2.22,6.45L348.07,910.12L348.07,910.12z M392.5,923.58l8.68-37.62l8.33,1.92l8.87,29.6
			l0.1,0.02l6.04-26.16l7.32,1.69l-8.68,37.62l-7.85-1.81l-9.15-30.33l-0.1-0.02l-6.18,26.79L392.5,923.58L392.5,923.58z
			 M450,934.03l2.77-31.67l-11.55-1.01l0.59-6.79l31.24,2.73l-0.59,6.79l-11.61-1.02l-2.77,31.67L450,934.03L450,934.03z
			 M529.74,918.72l-0.19-1.37c-0.58-4.09-0.44-7.77,0.41-11.04c0.85-3.26,2.54-5.96,5.06-8.09c2.51-2.13,5.88-3.54,10.12-4.21
			c2.35-0.33,4.66-0.27,6.92,0.2c2.26,0.46,4.36,1.38,6.3,2.77c1.94,1.39,3.59,3.33,4.96,5.81c1.37,2.47,2.3,5.49,2.8,9.03
			c0.44,3.11,0.39,5.95-0.13,8.55c-0.52,2.59-1.48,4.87-2.85,6.83c-1.38,1.96-3.13,3.55-5.27,4.75c-2.13,1.21-4.56,2.01-7.28,2.39
			c-3.68,0.52-6.99,0.16-9.93-1.06c-2.94-1.22-5.34-3.11-7.2-5.67C531.61,925.06,530.37,922.09,529.74,918.72L529.74,918.72z
			 M537.2,914.69c0.58,4.14,1.88,7.44,3.89,9.9c2.01,2.46,4.86,3.46,8.54,2.99c2.43-0.34,4.33-1.28,5.71-2.82
			c1.38-1.53,2.26-3.32,2.67-5.35c0.41-2.03,0.47-4.03,0.2-5.99c-0.48-3.45-1.61-6.53-3.37-9.26c-1.77-2.72-4.83-3.8-9.18-3.24
			c-1.56,0.22-3.03,0.83-4.41,1.83c-1.39,1-2.48,2.51-3.28,4.51C537.18,909.26,536.92,911.74,537.2,914.69L537.2,914.69z
			 M585.91,928.21l-9.34-37.46l26.68-6.65l1.65,6.62l-18.81,4.69l2.1,8.44l16.46-4.1l1.65,6.62l-16.46,4.1l3.94,15.79L585.91,928.21
			L585.91,928.21z M688.83,892.9l-15.43,7.2l-16.32-34.99l15.58-7.27c3.28-1.53,6.33-2.03,9.14-1.51c2.8,0.53,5.24,1.78,7.3,3.75
			c2.07,1.98,3.78,4.39,5.16,7.23c1.5,3.23,2.46,6.49,2.87,9.78c0.42,3.29-0.02,6.36-1.3,9.18
			C694.55,889.11,692.22,891.32,688.83,892.9L688.83,892.9z M677.75,890.76l7.21-3.36c2.72-1.27,4.16-3.37,4.33-6.32
			c0.17-2.94-0.54-6.12-2.13-9.52c-1.06-2.08-2.16-3.81-3.31-5.16c-1.15-1.36-2.51-2.26-4.1-2.7c-1.59-0.44-3.41-0.18-5.47,0.78
			l-7.21,3.36L677.75,890.76L677.75,890.76z M718.11,878.12l24.56-15.95l-3.71-5.72l-17.94,11.65l-5.44-8.38l15.81-10.27l-3.68-5.67
			l-15.81,10.27l-4.47-6.89l17.21-11.18l-3.71-5.72l-23.83,15.47L718.11,878.12L718.11,878.12z M757.23,852l-24.3-30l21.37-17.3
			l4.29,5.3l-15.06,12.2l5.47,6.76l13.19-10.68l4.29,5.3l-13.19,10.68l10.24,12.64L757.23,852L757.23,852z M791.15,824.35
			l21.06-20.34l-4.74-4.91l-15.39,14.86l-6.94-7.18l13.56-13.1l-4.7-4.87l-13.56,13.1l-5.71-5.91l14.76-14.25l-4.74-4.91
			l-20.44,19.74L791.15,824.35L791.15,824.35z M824.06,791.68l-29.14-25.33l5.61-6.45l30.3,6.06l0.07-0.08l-20.26-17.61l4.93-5.67
			l29.14,25.33l-5.28,6.08l-31.07-6.16l-0.07,0.08l20.75,18.04L824.06,791.68L824.06,791.68z M844.83,748.24
			c7.37,4.26,14.01,1.77,19.94-7.49c0.55-0.88,1.11-2.04,1.68-3.49c0.57-1.44,0.93-3.11,1.1-5c0.16-1.9-0.18-3.8-1.02-5.72
			c-0.83-1.91-2.39-3.58-4.65-4.99c-1.84-1.15-3.54-1.75-5.08-1.79c-1.55-0.05-3.08,0.39-4.59,1.32c-1.51,0.93-3.3,2.4-5.38,4.42
			c-0.61,0.56-1.54,1.45-2.8,2.67c-1.26,1.23-2.61,2.54-4.05,3.93c-1.62,1.41-3.28,1.57-5,0.5c-1.23-0.89-1.8-2.04-1.72-3.46
			c0.08-1.42,0.59-2.92,1.52-4.52c2.66-4.25,5.7-5.51,9.14-3.78l4.1-6.56c-1.28-0.71-2.65-1.23-4.16-1.55
			c-1.51-0.32-3.09-0.31-4.74,0.02c-1.64,0.33-3.32,1.14-4.99,2.4c-1.69,1.27-3.28,3.1-4.77,5.49c-1.61,2.58-2.59,5.04-2.92,7.38
			c-0.34,2.34-0.06,4.46,0.84,6.36c0.9,1.9,2.33,3.5,4.3,4.81c2.16,1.35,4.21,1.98,6.12,1.88c1.92-0.1,3.68-0.69,5.28-1.78
			c1.6-1.1,3.32-2.61,5.13-4.57c0.59-0.67,1.48-1.57,2.69-2.7c1.45-1.38,2.49-2.33,3.13-2.85c0.63-0.51,1.36-0.86,2.2-1.02
			c0.83-0.17,1.71,0.05,2.65,0.63c2.63,1.75,2.47,4.98-0.48,9.7c-0.73,1.16-1.57,2.11-2.53,2.84c-0.96,0.74-2.02,1.15-3.19,1.26
			c-1.16,0.1-2.37-0.21-3.6-0.94L844.83,748.24L844.83,748.24z M881.03,712.94l-34.4-17.53l12.9-25.32l6.08,3.1l-9.32,18.28
			l7.32,3.73l8.56-16.8l6.03,3.07l-8.56,16.8l8.9,4.53l9.71-19.06l6.08,3.1L881.03,712.94z"/>
		<circle class="st10" cx="93.5" cy="601.48" r="10.68"/>
		<circle class="st10" cx="901.9" cy="601.48" r="10.68"/>
	</g>
	<path class="st1" d="M340.81,522.1c-0.31-0.9-0.64-1.8-0.97-2.7c-13.27-37.26-20.33-77.85-20.33-122.14V260.72
		c0-9.15,104.76-26.44,177.78-25.74c70.68,0.68,179.66,15.84,179.66,25.74v136.53c0,137.15-69.11,238.9-179.45,315.92
		C423.64,661.62,368.92,599,340.81,522.1L340.81,522.1z M323.77,498.47c-14.36-9.19-35.94-13.27-48.53-7.8
		c-17.17,7.45-21.56,27.81-17.25,38.85c5.28,13.51-1.27,55.55,5.28,67.4c6.44,11.65,18.81,18.25,29.93,13
		c38.62,68.59,94.98,124.15,159.53,169.21l35.45,24.75l9.96,6.95l9.96-6.95l35.45-24.75c64.54-45.06,120.91-100.63,159.53-169.21
		c11.12,5.25,23.49-1.35,29.93-13c6.55-11.84,0-53.89,5.28-67.4c4.31-11.05-0.07-31.4-17.25-38.85
		c-12.61-5.47-34.24-1.37-48.59,7.84c8.85-31.49,13.54-65.18,13.54-101.26V260.72c0-8.72-9.54-12.28-16.4-14.47
		c-8.91-2.84-18.59-4.77-27.79-6.47c-26.94-4.97-54.8-8.2-82.08-10.56c-20.68-1.79-41.57-3.07-62.33-3.27
		c-18.92-0.18-37.97,0.75-56.83,2.26c-28.19,2.25-57.02,5.75-84.8,11.11c-9.48,1.83-19.4,3.91-28.59,6.89
		c-6.84,2.21-16.67,5.76-16.67,14.51v136.53C310.48,433.31,315.06,466.99,323.77,498.47z"/>
	<path class="st10" d="M497.28,234.98c70.68,0.68,179.66,15.84,179.66,25.74v136.53c0,137.15-69.11,238.9-179.45,315.92
		c-110.34-77.02-177.98-178.76-177.98-315.92V260.72C319.51,251.57,424.26,234.27,497.28,234.98z"/>
	<path class="st11" d="M497.28,234.98c70.68,0.68,179.66,15.84,179.66,25.74v136.53c0,137.15-69.11,238.89-179.45,315.92
		c-0.29-0.2-0.57-0.4-0.85-0.6V234.97L497.28,234.98z"/>
	<path class="st12" d="M510.48,353.48c0.42,0,0.76-0.36,0.76-0.8c0-0.44-0.34-0.8-0.76-0.8h-29.71c-0.42,0-0.76,0.36-0.76,0.8
		c0,0.44,0.34,0.8,0.76,0.8H510.48z"/>
	<path class="st7" d="M510.95,352.06c2.71-3.57,3.78-8.17,3.78-13.2c0-11.34-7.63-19.19-19.04-19.19c-11.3,0-19.08,8.28-19.08,19.62
		c0,4.98,1.15,9.21,3.82,12.68c0.1-0.05,0.21-0.08,0.33-0.08h29.71C510.66,351.89,510.82,351.96,510.95,352.06z"/>
	<path class="st7" d="M482.26,360.98l0,0.1l0.04,0h26.63c0.06,0,0.12,0.01,0.17,0.02l0-0.11h1.47c1.15,0,1.91-0.87,1.91-2.17v-3.18
		c0-1.12-0.71-2.1-1.79-2.17c-0.07,0.02-0.14,0.03-0.22,0.03h-29.71c-0.05,0-0.1-0.01-0.14-0.01c-0.98,0.16-1.62,1.09-1.62,2.15
		v3.18c0,1.31,0.76,2.17,1.91,2.17H482.26z"/>
	<path class="st12" d="M508.93,362.5c0.42,0,0.75-0.34,0.75-0.77c0-0.43-0.34-0.77-0.75-0.77h-26.63c-0.42,0-0.75,0.35-0.75,0.77
		c0,0.43,0.34,0.77,0.75,0.77H508.93z"/>
	<path class="st7" d="M482.3,362.51l7.3,325.39c0.04,1.82,2.92,2.99,5.99,2.96c2.82-0.02,5.56-1.18,5.61-3l7.87-325.37
		c-0.04,0.01-0.09,0.01-0.13,0.01H482.3L482.3,362.51z"/>
	<path class="st13" d="M485.28,473.76c2.77,5.54,17.1,14.83,21.36,18.35c17.07,14.12,29,45.83-2.3,66.18l0.62-28.41
		c-0.03-0.12,0.13-1.43-0.11-2.21c-3.81-12.61-16.48-20.65-26.97-30.72c-20.15-20.37-15.68-41.03,6.09-58.3l0.59,31.12
		C484.73,471.13,484.64,472.47,485.28,473.76L485.28,473.76z M486.53,547.46c-33.57,32.87,12.93,52.6,16.42,68l-0.79,23.95
		c21.13-23.5,10.26-38.68-0.79-50.4c-6.13-6.5-11.59-12.2-14.31-17.38L486.53,547.46L486.53,547.46z M488.74,649.95
		c-0.05,1.46,0.22,4.28,1.79,6.87c1.92,3.17,5.08,6.08,6.8,8.1c3.94,2.69,2.46,5.73-0.14,6.18c-4.03-1.49-8.51-4.06-11.5-7.3
		c-3.15-3.41-4.71-7.55-4.99-11.5c-0.43-6.07,1.94-12.38,7.7-17.31L488.74,649.95L488.74,649.95z M506.91,451.8
		c39.16-25.27,26.7-80.25-9.52-83.09c-2.26-0.18-4.59-0.7-6.66-0.78c-7.65-0.44-19.15,3.24-19.67,6.04
		c-6.62,2.49-8.25,3.41-6.87,5.53c0.82,1.35,0.98,2.01,2.04,1.9c0.36,1.79,1.34,2.15,2.68,2.69c-1.16-1.61-1.25-2.42-0.8-2.96
		c5.19,0.33,8.03-2.53,9.91,1.27c0.47,1.01,0.23,1.61-0.41,1.91c-1.43,1.09-3.43,1.82-8.79,2.28c0.9,2.51,4.92,2.65,11.73,0.05
		c6.59-2.78,11.47-4.62,11.55-7.58c16.26,0.52,31.24,28.39,15.55,47.05l-0.04,0.05L506.91,451.8z"/>
	<path class="st11" d="M481.32,373.12c-1.54,0.31-1.38-0.07-2.83,0.44c0.26,2.27-2.71,4.41-3.76,1.84
		c-0.14-0.34-1.63-0.68-1.09-0.86C475.43,374.98,478.4,371.62,481.32,373.12z"/>
	<path class="st2" d="M293.38,592.14c40.12,68.59,92.73,130.46,164.04,180.25l38.97,27.21l1.73,1.21l1.73-1.21l38.97-27.21
		c71.32-49.79,124.42-111.37,164.04-180.25c7.66-13.32-21.07-34.08-24.12-57.58c-2.1-16.21,12.57-25.82,28.03-24.02
		c2.26,9.6,4.42,15.47,6.64,24.28c5.02-0.97,16.49-3.93,17.08-9.06c5.4-46.82-55.46-25.43-63.06-11.07
		c-4.43,8.38-6.38,17.81-10.08,26.45c-30.68,71.5-84.6,130.49-154.72,179.43l-4.53,3.16l-4.53-3.16
		c-70.11-48.94-124.04-107.93-154.72-179.43c-3.7-8.63-5.65-18.07-10.08-26.45c-7.59-14.36-68.46-35.75-63.06,11.07
		c0.59,5.14,12.06,8.1,17.08,9.06c2.22-8.81,4.38-14.68,6.64-24.28c15.47-1.8,30.14,7.81,28.03,24.02
		C314.46,558.06,285.3,578.32,293.38,592.14z"/>
	<path class="st2" d="M310.12,540.23c-17.04,7.53-43.1-2.24-45.64-9.03c5.03,24.14,1.01,54.77,4.09,61.32
		c4.36,9.25,9.1,11.79,21.08,10.21c-1.93-4.06-6.28-12.78-1.77-26.61C289.74,570.43,306.16,551.5,310.12,540.23z"/>
	<path class="st2" d="M685.64,540.23c17.04,7.53,43.1-2.24,45.64-9.03c-5.03,24.14-1.01,54.77-4.09,61.32
		c-4.36,9.25-9.1,11.79-21.08,10.21c1.93-4.06,6.28-12.78,1.77-26.61C706.02,570.43,689.61,551.5,685.64,540.23z"/>
	<path class="st2" d="M702.95,516.64c2.13,8.58,3.29,11.74,5.03,19.49c-12.44,3.5-21.1-0.34-22.68-4.49
		C683.01,525.6,692.5,516.1,702.95,516.64z"/>
	<path class="st2" d="M293.31,516.64c-2.13,8.58-3.29,11.74-5.03,19.49c12.44,3.5,21.1-0.34,22.68-4.49
		C313.25,525.6,303.76,516.1,293.31,516.64z"/>
	<path class="st11" d="M336.12,570.99l8.94,14.31c1.13,1.82,1.89,3.44,2.27,4.86c0.38,1.43,0.46,2.81,0.25,4.14
		c-0.21,1.33-0.68,2.55-1.43,3.66c-0.73,1.11-1.67,2.02-2.83,2.74c-2.31,1.45-4.81,1.77-7.49,0.97c-2.68-0.81-5-2.78-6.95-5.91
		l-2.89-4.63l-5.08,3.17c-0.63,0.39-1,0.69-1.11,0.89c-0.18,0.27-0.25,0.56-0.22,0.87c0.04,0.31,0.23,0.75,0.59,1.32l0.86,1.38
		l-3.74,2.34l-8.25-13.2l3.74-2.34l0.57,0.91c0.51,0.81,0.9,1.31,1.17,1.5c0.28,0.18,0.59,0.26,0.91,0.22
		c0.33-0.04,0.89-0.31,1.68-0.8l14.9-9.31c0.83-0.52,1.35-0.91,1.54-1.19c0.2-0.26,0.3-0.55,0.27-0.86
		c-0.01-0.3-0.22-0.77-0.63-1.41l-0.82-1.31L336.12,570.99L336.12,570.99z M337.92,583.69l-7.71,4.82l1.45,2.32
		c0.88,1.41,1.68,2.36,2.38,2.84c0.71,0.48,1.49,0.73,2.34,0.76c0.86,0.03,1.7-0.22,2.53-0.74c1.25-0.78,1.94-1.87,2.06-3.29
		c0.1-1.06-0.29-2.29-1.17-3.68L337.92,583.69L337.92,583.69z M351.76,597.98l-3.68,2.67l0.7,0.97l0.4,0.51
		c0.28,0.39,0.46,0.78,0.54,1.17c0.08,0.26,0.03,0.53-0.14,0.8c-0.17,0.27-0.54,0.61-1.11,1.02l-14.55,10.57
		c-0.78,0.57-1.26,0.87-1.46,0.92c-0.35,0.07-0.68,0.02-1-0.15c-0.32-0.16-0.69-0.54-1.13-1.15l-0.84-1.16l-3.57,2.59l9.15,12.59
		l3.57-2.59l-0.86-1.18c-0.48-0.66-0.74-1.13-0.77-1.44c-0.04-0.3,0.03-0.59,0.19-0.86c0.17-0.27,0.7-0.73,1.58-1.37l5.15-3.74
		l1.56,2.15l-5.1,16.36l6.01,8.27l3.57-2.59l-0.8-1.11c-0.37-0.51-0.61-0.94-0.74-1.28c-0.11-0.34-0.17-0.73-0.18-1.16
		c0-0.43,0.08-0.98,0.25-1.62l0.12-0.42l2.33-9.8c1.75,1.64,3.75,2.72,5.99,3.24c2.24,0.51,4.34,0.05,6.3-1.37
		c1.21-0.88,2.1-1.94,2.67-3.19c0.58-1.24,0.82-2.58,0.74-4.02c-0.09-1.43-0.47-2.83-1.17-4.17c-0.7-1.35-1.42-2.53-2.16-3.56
		L351.76,597.98L351.76,597.98z M354.4,610.55l3.09,4.25c1.07,1.47,1.72,2.62,1.95,3.43c0.23,0.81,0.24,1.58,0.01,2.28
		c-0.23,0.7-0.69,1.3-1.36,1.79c-0.74,0.54-1.51,0.81-2.3,0.81c-0.79-0.01-1.59-0.27-2.41-0.82c-0.82-0.54-1.78-1.57-2.87-3.07
		l-2.78-3.83L354.4,610.55L354.4,610.55z M383,639.45c3.26,3.89,4.71,8.01,4.38,12.39c-0.34,4.38-2.36,8.12-6.06,11.22
		c-2.49,2.09-5.15,3.39-8,3.9c-2.85,0.52-5.61,0.25-8.28-0.82c-2.67-1.05-5.15-2.95-7.44-5.69c-3.03-3.62-4.52-7.41-4.47-11.37
		c0.05-4.79,2.08-8.86,6.09-12.22c3.72-3.12,7.79-4.45,12.2-4.01C375.83,633.31,379.7,635.51,383,639.45L383,639.45z M379.18,642.78
		c0.93,1.11,1.46,2.41,1.6,3.91c0.15,1.5-0.21,3.08-1.06,4.74c-0.85,1.66-2.25,3.3-4.19,4.93c-2.75,2.31-5.5,3.51-8.24,3.59
		c-2.3,0.05-4.22-0.84-5.76-2.67c-1.53-1.83-2.07-3.87-1.63-6.14c0.53-2.64,2.18-5.12,4.95-7.44c2.77-2.32,5.6-3.53,8.51-3.62
		C375.68,640.02,377.62,640.92,379.18,642.78L379.18,642.78z M423.35,683.21l2.3,2.3l-5.89,10.32l-3.88-2.14
		c0.92-2.93,1.34-5.24,1.27-6.93c-0.12-2.34-0.9-4.23-2.34-5.66c-1.04-1.04-2.31-1.73-3.81-2.06c-1.49-0.33-3.07-0.2-4.74,0.39
		c-1.67,0.6-3.25,1.65-4.77,3.17c-2.31,2.31-3.69,4.91-4.13,7.81c-0.45,2.89,0.33,5.33,2.31,7.32c1.27,1.27,2.83,2.12,4.72,2.56
		c2.35,0.57,4.81,0.63,7.37,0.18l0.65,4.37c-3.85,0.59-6.88,0.65-9.11,0.18c-3.43-0.73-6.42-2.38-8.98-4.93
		c-2.12-2.12-3.54-4.55-4.24-7.29c-0.7-2.73-0.65-5.53,0.16-8.39c0.81-2.86,2.29-5.37,4.46-7.53c2.15-2.15,4.61-3.62,7.38-4.39
		c2.77-0.78,5.51-0.8,8.22-0.07c2.71,0.73,5.12,2.15,7.23,4.26c2.15,2.15,3.58,4.47,4.31,6.98L423.35,683.21L423.35,683.21z
		 M428.06,688.42l-2.89,3.33l1.1,0.96c0.6,0.52,0.95,0.93,1.06,1.22c0.11,0.3,0.1,0.61-0.02,0.94c-0.13,0.32-0.56,0.92-1.3,1.77
		l-8.08,9.3c-1.6,1.85-2.64,3.39-3.11,4.64c-0.47,1.25-0.62,2.68-0.47,4.3c0.15,1.61,0.61,3.15,1.39,4.63
		c0.78,1.48,1.92,2.87,3.4,4.16c2.11,1.84,4.33,2.98,6.64,3.42c2.31,0.45,4.53,0.18,6.63-0.82c1.54-0.74,3.07-1.99,4.59-3.74
		l8.25-9.49c0.68-0.78,1.14-1.22,1.39-1.31c0.36-0.16,0.74-0.18,1.14-0.08c0.26,0.07,0.78,0.44,1.56,1.12l0.78,0.68l2.89-3.33
		l-10.01-8.7l-2.89,3.33l0.94,0.82c0.67,0.58,1.05,0.97,1.15,1.19c0.15,0.29,0.2,0.61,0.14,0.96c-0.05,0.27-0.24,0.6-0.59,1.01
		l-8.39,9.65c-1.42,1.63-2.59,2.66-3.53,3.09c-0.93,0.43-1.97,0.56-3.1,0.38c-1.14-0.19-2.19-0.69-3.13-1.51
		c-0.95-0.83-1.57-1.73-1.87-2.73c-0.3-0.99-0.26-2.04,0.11-3.13c0.37-1.09,1.26-2.45,2.68-4.09l7.62-8.76
		c0.63-0.72,1.1-1.16,1.4-1.31c0.3-0.15,0.62-0.18,0.96-0.12c0.33,0.07,0.75,0.32,1.28,0.78l1.14,0.99l2.89-3.33L428.06,688.42
		L428.06,688.42z M456.05,711.76l15.49,12.1c1,0.78,2.02,1.72,3.06,2.83c1.04,1.1,1.8,2.34,2.27,3.69c0.47,1.36,0.61,2.72,0.4,4.07
		c-0.2,1.35-0.76,2.62-1.69,3.8c-1.49,1.91-3.39,2.93-5.68,3.05c-2.29,0.11-4.51-0.37-6.65-1.47l0.46,10.06l0,0.44
		c0.01,0.67,0.08,1.21,0.21,1.63c0.12,0.41,0.29,0.77,0.49,1.07c0.21,0.3,0.57,0.64,1.06,1.03l1.08,0.84l-2.71,3.47l-8.05-6.29
		l0.39-17.13l-2.09-1.64l-3.92,5.01c-0.67,0.86-1.05,1.45-1.14,1.76c-0.08,0.31-0.07,0.61,0.05,0.88c0.12,0.28,0.5,0.67,1.14,1.17
		l1.15,0.9l-2.71,3.47l-12.27-9.58l2.71-3.47l1.13,0.88c0.59,0.46,1.06,0.73,1.41,0.79c0.35,0.07,0.68,0.03,1-0.13
		c0.18-0.1,0.56-0.53,1.15-1.28l11.07-14.17c0.43-0.55,0.7-0.98,0.79-1.29c0.09-0.31,0.06-0.58-0.08-0.81
		c-0.19-0.36-0.47-0.68-0.84-0.98l-0.53-0.38l-0.94-0.74L456.05,711.76L456.05,711.76z M462.05,723.11l-5.08,6.5l3.73,2.91
		c1.46,1.14,2.67,1.87,3.61,2.16c0.94,0.3,1.78,0.33,2.54,0.12c0.76-0.22,1.42-0.69,1.99-1.41c0.51-0.66,0.79-1.36,0.82-2.1
		c0.03-0.74-0.19-1.47-0.64-2.19c-0.45-0.72-1.39-1.64-2.82-2.76L462.05,723.11L462.05,723.11z M495.81,741.22L473.6,756.6
		c-0.66,0.45-1.16,0.73-1.51,0.83c-0.35,0.1-0.71,0.09-1.09,0.01c-0.38-0.1-0.9-0.36-1.56-0.81l-2.46,3.65l10.26,6.92l2.46-3.65
		c-0.98-0.66-1.56-1.09-1.74-1.29c-0.28-0.29-0.44-0.58-0.47-0.84c-0.04-0.27,0.02-0.5,0.15-0.7c0.12-0.18,0.48-0.48,1.06-0.91
		l2.8-2.01l8.02,5.41l-0.81,2.95c-0.23,0.88-0.43,1.42-0.59,1.65c-0.18,0.27-0.47,0.4-0.87,0.39c-0.41,0-0.95-0.24-1.65-0.7
		l-0.77-0.49l-2.46,3.65l12.52,8.44l2.46-3.65c-0.89-0.6-1.43-1.14-1.59-1.62c-0.16-0.48-0.09-1.4,0.2-2.77l5.84-25.81
		L495.81,741.22L495.81,741.22z M485.43,754.97l7.57-5.43l-2.32,8.97L485.43,754.97z"/>
	<path class="st11" d="M522.01,727.73l11.24-9.1l16.5,11.55L542,711.54l11.46-9.28l2.77,3.43l-1.23,0.99
		c-0.66,0.54-1.01,1.05-1.04,1.54c-0.03,0.49,0.27,1.11,0.89,1.88l11.42,14.1c0.5,0.62,0.85,0.97,1.05,1.07
		c0.3,0.15,0.58,0.19,0.85,0.14c0.37-0.07,0.77-0.27,1.2-0.62l1.4-1.14l2.77,3.43l-11.95,9.68l-2.77-3.43l0.92-0.75
		c0.68-0.55,1.09-0.97,1.24-1.27c0.15-0.3,0.19-0.61,0.12-0.91c-0.06-0.31-0.34-0.76-0.82-1.36l-12.37-15.27l10.61,25.47l-3.43,2.77
		l-21.99-15.16l12.22,15.09c0.28,0.35,0.56,0.56,0.83,0.65c0.28,0.09,0.57,0.09,0.88,0.01c0.31-0.08,0.72-0.33,1.22-0.74l1.18-0.95
		l2.77,3.43l-10.13,8.2l-2.77-3.42l1-0.81c0.63-0.51,1.02-0.92,1.16-1.22c0.14-0.3,0.16-0.62,0.08-0.95
		c-0.08-0.34-0.39-0.83-0.92-1.48l-11.28-13.92c-0.52-0.64-0.9-1.02-1.14-1.14c-0.32-0.18-0.63-0.23-0.94-0.18
		c-0.31,0.06-0.69,0.27-1.16,0.65l-1.36,1.1L522.01,727.73L522.01,727.73z M556.64,699.71l3.01,3.22l1.05-0.97
		c0.61-0.57,1.03-0.87,1.27-0.93c0.34-0.08,0.67-0.05,0.98,0.08c0.31,0.14,0.8,0.57,1.48,1.3l12.11,12.98
		c0.58,0.62,0.91,1.07,1.01,1.37c0.1,0.3,0.09,0.58-0.02,0.87c-0.11,0.28-0.5,0.73-1.16,1.35l-0.93,0.86l3.01,3.22l11.38-10.62
		l-3.01-3.22l-1.24,1.16c-0.47,0.44-0.88,0.69-1.24,0.78c-0.27,0.08-0.54,0.07-0.81-0.06c-0.27-0.14-0.73-0.55-1.38-1.25
		l-12.06-12.93c-0.6-0.65-0.97-1.13-1.08-1.45c-0.12-0.31-0.13-0.62-0.03-0.91c0.09-0.29,0.45-0.71,1.05-1.27l1.04-0.97l-3.01-3.22
		L556.64,699.71L556.64,699.71z M571.5,685.68l3.12,3.12l1.19-1.19c0.44-0.44,0.81-0.7,1.1-0.78c0.3-0.08,0.61-0.05,0.95,0.09
		c0.34,0.13,0.78,0.47,1.32,1.01l12.8,12.8c0.5,0.5,0.8,0.89,0.89,1.2c0.1,0.3,0.09,0.62-0.01,0.97c-0.11,0.34-0.38,0.73-0.82,1.18
		l-1.08,1.08l3.12,3.12l17.22-17.22l-5.4-11.35l-3.99,1.95c0.93,1.94,1.45,3.69,1.58,5.23c0.13,1.54-0.06,2.93-0.56,4.19
		c-0.5,1.25-1.48,2.6-2.92,4.05c-0.43,0.43-0.75,0.69-0.98,0.77c-0.22,0.08-0.41,0.08-0.58,0.02c-0.17-0.07-0.51-0.37-1.03-0.88
		l-12.87-12.87c-0.48-0.48-0.77-0.89-0.88-1.23c-0.11-0.34-0.08-0.69,0.07-1.06c0.08-0.19,0.39-0.56,0.93-1.09l0.97-0.97l-3.12-3.12
		L571.5,685.68L571.5,685.68z M593.04,664.1l10.42-11.57l3.28,2.95l-0.95,1.06c-0.55,0.61-0.86,1.06-0.93,1.36
		c-0.07,0.29-0.03,0.6,0.11,0.9c0.14,0.31,0.55,0.76,1.2,1.35l13.14,11.83c0.71,0.64,1.21,1.02,1.49,1.13
		c0.28,0.1,0.55,0.09,0.81-0.01c0.35-0.12,0.74-0.41,1.17-0.89l1.13-1.26l3.28,2.95l-10.42,11.57l-3.28-2.95l0.85-0.94
		c0.61-0.67,0.96-1.16,1.04-1.45c0.08-0.29,0.07-0.58-0.05-0.87c-0.12-0.29-0.5-0.71-1.12-1.27l-13.19-11.88
		c-0.74-0.66-1.26-1.05-1.58-1.16c-0.32-0.11-0.65-0.11-0.98,0c-0.23,0.08-0.62,0.43-1.18,1.04l-0.96,1.06L593.04,664.1
		L593.04,664.1z M607.54,646.85l6.25,10.11l3.79-2.31c-0.91-2.01-1.43-3.27-1.56-3.77c-0.36-1.28-0.46-2.48-0.3-3.62
		c0.15-1.13,0.48-2.01,0.98-2.63c0.25-0.3,0.47-0.47,0.64-0.47c0.19-0.01,0.49,0.15,0.9,0.49l14.57,11.8
		c0.8,0.65,1.28,1.14,1.44,1.46c0.16,0.33,0.2,0.65,0.11,0.95c-0.08,0.31-0.45,0.87-1.11,1.68l-0.59,0.73l3.42,2.77l9.8-12.1
		l-3.43-2.77c-0.88,1.09-1.44,1.74-1.68,1.96c-0.24,0.21-0.49,0.35-0.73,0.39c-0.25,0.04-0.49,0.01-0.76-0.11
		c-0.26-0.11-0.81-0.5-1.65-1.19l-14.25-11.54c-0.49-0.39-0.75-0.7-0.8-0.91c-0.05-0.22,0.04-0.47,0.27-0.76
		c0.49-0.61,1.18-1.07,2.06-1.37c1.16-0.42,2.43-0.59,3.8-0.52c0.7,0.03,2.07,0.27,4.11,0.7l1.5-4.22l-11.19-4.01l-1.9,2.34
		l0.59,0.98l-11.35,14.02l-1.04-0.43L607.54,646.85L607.54,646.85z M628.57,623.4l8.7-12.9l3.65,2.46l-0.8,1.18
		c-0.46,0.68-0.71,1.17-0.73,1.48c-0.03,0.3,0.05,0.6,0.24,0.88c0.18,0.29,0.65,0.67,1.38,1.17l14.66,9.89
		c0.8,0.54,1.34,0.84,1.63,0.91c0.29,0.06,0.55,0.02,0.8-0.13c0.33-0.16,0.67-0.51,1.03-1.04l0.95-1.41l3.65,2.46l-8.7,12.9
		l-3.65-2.46l0.71-1.05c0.51-0.75,0.79-1.28,0.83-1.58c0.04-0.3-0.01-0.58-0.17-0.85c-0.16-0.27-0.59-0.63-1.29-1.11l-14.72-9.93
		c-0.82-0.55-1.4-0.87-1.73-0.93s-0.66-0.02-0.97,0.14c-0.22,0.12-0.56,0.51-1.02,1.2l-0.8,1.19L628.57,623.4L628.57,623.4z
		 M652,588.28l-1.74,2.78l0.89,1.6c-2.38,1.14-4.3,2.88-5.76,5.22c-1.21,1.94-1.94,3.94-2.19,6.01c-0.25,2.07-0.02,3.87,0.69,5.43
		c0.71,1.55,1.78,2.77,3.22,3.67c1.01,0.63,2.09,1.02,3.26,1.17c1.16,0.16,2.24,0.1,3.21-0.16c0.97-0.27,2.1-0.82,3.37-1.66
		c1.27-0.83,2.21-1.53,2.83-2.1l4.14-3.7c1.73-1.56,3.11-2.54,4.15-2.95c1.02-0.4,1.93-0.35,2.7,0.13c0.47,0.29,0.83,0.74,1.06,1.34
		c0.24,0.6,0.28,1.3,0.13,2.09c-0.16,0.8-0.53,1.68-1.14,2.65c-1.35,2.15-3.3,3.69-5.87,4.6c-2.56,0.91-5.18,1.12-7.85,0.63
		l-1.39,4.16l11.69,4.65l1.81-2.89l-1.41-2.07c1.68-0.76,3.08-1.64,4.19-2.61c1.11-0.98,2.11-2.19,3.01-3.63
		c1.93-3.09,2.66-6.23,2.18-9.43c-0.45-2.87-1.84-5.04-4.18-6.5c-1.84-1.15-3.82-1.54-5.96-1.19c-2.14,0.38-4.52,1.75-7.15,4.11
		l-4.76,4.26c-1.39,1.26-2.53,2.01-3.43,2.23c-0.91,0.24-1.68,0.17-2.32-0.23c-0.56-0.35-0.86-0.98-0.91-1.9
		c-0.06-0.93,0.27-1.94,0.96-3.06c1.08-1.72,2.6-3.03,4.55-3.94c1.95-0.9,4.38-1.28,7.3-1.13l1.23-4.26L652,588.28z"/>
	<polygon class="st2" points="449.86,260.72 459.45,273.42 474.38,267.9 465.26,280.94 475.12,293.44 459.9,288.8 451.07,302.03 
		450.78,286.12 435.46,281.81 450.5,276.62 	"/>
	<polygon class="st2" points="616.26,326.07 604.82,337.13 612.12,351.28 598.06,343.82 586.86,355.12 589.62,339.45 575.4,332.3 
		591.16,330.07 593.57,314.34 600.56,328.64 	"/>
	<polygon class="st2" points="580.98,495.93 567.89,486.86 555.44,496.78 560.02,481.54 546.74,472.76 562.65,472.4 566.89,457.06 
		572.15,472.08 588.05,471.38 575.39,481.02 	"/>
	<polygon class="st2" points="410.56,496.28 423.65,487.22 436.1,497.14 431.52,481.9 444.8,473.12 428.89,472.76 424.65,457.42 
		419.39,472.44 403.49,471.74 416.15,481.38 	"/>
	<polygon class="st2" points="375.3,322.17 390.88,325.39 398.46,311.39 400.21,327.21 415.87,330.09 401.36,336.65 403.46,352.42 
		392.74,340.66 378.39,347.53 386.27,333.7 	"/>
	<polygon class="st2" points="546.18,259.54 544.89,275.4 559.7,281.22 544.22,284.89 543.26,300.77 534.99,287.18 519.59,291.18 
		529.96,279.11 521.39,265.7 536.08,271.84 	"/>
	<polygon class="st2" points="631.85,417.4 616,418.85 612.82,434.44 606.54,419.81 590.73,421.6 602.7,411.12 596.11,396.63 
		609.78,404.77 621.53,394.03 618,409.55 	"/>
	<polygon class="st2" points="359.69,417.76 375.54,419.2 378.72,434.8 385,420.17 400.81,421.96 388.84,411.48 395.43,396.99 
		381.76,405.13 370.02,394.39 373.54,409.91 	"/>
</g>
</svg>
