<svg width="120" height="26" viewBox="0 0 120 26" fill="none" xmlns="http://www.w3.org/2000/svg">
<path fill-rule="evenodd" clip-rule="evenodd" d="M0 4.46063H12.6063V7.11731H2.98955V11.4964H11.5102V14.1531H2.98955V18.6804H12.7556V21.3371H0V4.46063Z" fill="white"/>
<path fill-rule="evenodd" clip-rule="evenodd" d="M23.0196 4.46063H16.2928V21.2894H19.2824V15.8765H22.6711C26.4073 15.8765 29.4974 13.9084 29.4974 10.1193V10.0706C29.4974 6.67557 27.0067 4.46063 23.0196 4.46063ZM26.4581 10.2178C26.4581 11.9889 25.0126 13.2198 22.7707 13.2198H19.2824V7.16709H22.7707C25.0126 7.16709 26.4581 8.20094 26.4581 10.1691V10.2178Z" fill="white"/>
<path fill-rule="evenodd" clip-rule="evenodd" d="M33.1853 4.46063H36.1748V21.2894H33.1853V4.46063Z" fill="white"/>
<path fill-rule="evenodd" clip-rule="evenodd" d="M47.8338 4.46063H40.2599V21.2397H43.2494V15.384H46.9866L51.1718 21.2397H54.7089L50.1255 14.8924C52.468 14.2526 54.1614 12.58 54.1614 9.82378V9.77504C54.1614 8.29841 53.6636 7.06858 52.7666 6.13324C51.6706 5.09939 49.9772 4.46063 47.8338 4.46063ZM51.122 10.0208C51.122 11.7432 49.7771 12.8258 47.6347 12.8258H43.2494V7.16709H47.585C49.8269 7.16709 51.122 8.15116 51.122 9.97206V10.0208Z" fill="white"/>
<path fill-rule="evenodd" clip-rule="evenodd" d="M57.5999 14.1552V4.46063H60.5894V14.0069C60.5894 17.1074 62.2341 18.78 64.8742 18.78C67.5143 18.78 69.1599 17.2049 69.1599 14.1054V4.46063H72.1495V14.0069C72.1495 19.0258 69.2595 21.5352 64.8244 21.5352C60.3893 21.5352 57.5999 19.0258 57.5999 14.1541V14.1552Z" fill="white"/>
<path fill-rule="evenodd" clip-rule="evenodd" d="M82.8613 11.5471C79.5731 10.7601 78.7757 10.2188 78.7757 8.89045V8.84171C78.7757 7.75913 79.7732 6.82379 81.5661 6.82379C83.1112 6.82379 84.6552 7.41382 86.2003 8.54618L87.7952 6.33227C86.051 4.95415 84.1077 4.21688 81.617 4.21688C78.2292 4.21688 75.7872 6.2348 75.7872 9.08851V9.13725C75.7872 12.2378 77.83 13.2706 81.4676 14.1561C84.6065 14.8944 85.3044 15.5342 85.3044 16.7153V16.7641C85.3044 17.9939 84.1585 18.8795 82.2651 18.8795C80.1725 18.8795 78.5278 18.0924 76.8832 16.7143L75.0893 18.8297C77.1321 20.6506 79.5741 21.5362 82.2142 21.5362C85.8021 21.5362 88.2939 19.6665 88.2939 16.5173V16.4675C88.2939 13.6625 86.4502 12.3829 82.8623 11.5471H82.8613Z" fill="white"/>
<path fill-rule="evenodd" clip-rule="evenodd" d="M115.093 8.59538L119.779 0.42L111.527 5.04795C110.576 5.5882 109.998 6.60235 109.998 7.68286V10.1156H112.444C113.53 10.1156 114.549 9.54109 115.092 8.59538H115.093Z" fill="white"/>
<path fill-rule="evenodd" clip-rule="evenodd" d="M113.88 13.5118C113.269 13.8498 112.895 14.4917 112.895 15.201V16.7554H114.456C115.17 16.7554 115.815 16.3841 116.154 15.7755L119.142 10.5056L113.879 13.5128L113.88 13.5118Z" fill="white"/>
<path fill-rule="evenodd" clip-rule="evenodd" d="M108.877 4.60931L111.255 0.42L107.044 2.7853C106.569 3.05595 106.263 3.56199 106.263 4.13646V5.386H107.52C108.063 5.386 108.607 5.08217 108.878 4.60931H108.877Z" fill="white"/>
<path fill-rule="evenodd" clip-rule="evenodd" d="M94.5292 0C94.5292 0 100.235 3.44581 104.208 12.6685C108.402 22.4025 120 25.3371 120 25.3371C116.246 22.4595 112.488 19.0946 109.602 11.2552L107.771 13.0771L107.082 12.2092L109.147 10.1435C105.693 2.86512 94.5292 0 94.5292 0Z" fill="white"/>
<path d="M106.928 22.1244L107.633 22.9737L109.724 20.8655L108.857 20.205L106.927 22.1244H106.928Z" fill="white"/>
<path d="M101.694 9.15563C101.898 9.45945 102.068 9.7975 102.238 10.1356L99.4597 12.899L98.7577 12.0767L101.694 9.15563Z" fill="white"/>
<path d="M103.766 15.5404L104.547 14.7638C104.751 15.1018 104.955 15.4056 105.159 15.7095L104.242 16.622L100.207 20.6174L99.5324 19.7598L103.767 15.5415L103.766 15.5404Z" fill="white"/>
</svg>
