<svg xmlns="http://www.w3.org/2000/svg" viewBox="0 0 1200 700" width="1200" height="700">
  <defs>
    <linearGradient id="bg" x1="0%" y1="0%" x2="100%" y2="100%">
      <stop offset="0%" style="stop-color:#0a0a0f"/><stop offset="100%" style="stop-color:#0d1117"/>
    </linearGradient>
    <linearGradient id="pipeArrow" x1="0%" y1="0%" x2="100%" y2="0%">
      <stop offset="0%" style="stop-color:#ff3366"/><stop offset="50%" style="stop-color:#ffb800"/><stop offset="100%" style="stop-color:#00ff88"/>
    </linearGradient>
    <filter id="glow">
      <feGaussianBlur stdDeviation="2" result="blur"/>
      <feMerge><feMergeNode in="blur"/><feMergeNode in="SourceGraphic"/></feMerge>
    </filter>
  </defs>

  <rect width="1200" height="700" fill="url(#bg)"/>

  <!-- Subtle grid -->
  <g opacity="0.03" stroke="#00ff88" stroke-width="0.5">
    <line x1="0" y1="100" x2="1200" y2="100"/><line x1="0" y1="200" x2="1200" y2="200"/>
    <line x1="0" y1="300" x2="1200" y2="300"/><line x1="0" y1="400" x2="1200" y2="400"/>
    <line x1="0" y1="500" x2="1200" y2="500"/><line x1="0" y1="600" x2="1200" y2="600"/>
    <line x1="150" y1="0" x2="150" y2="700"/><line x1="300" y1="0" x2="300" y2="700"/>
    <line x1="450" y1="0" x2="450" y2="700"/><line x1="600" y1="0" x2="600" y2="700"/>
    <line x1="750" y1="0" x2="750" y2="700"/><line x1="900" y1="0" x2="900" y2="700"/>
    <line x1="1050" y1="0" x2="1050" y2="700"/>
  </g>

  <!-- ===== MAIN PIPELINE ARROW BAR ===== -->
  <rect x="30" y="22" width="1140" height="36" rx="4" fill="#111318" stroke="#21262d" stroke-width="1"/>
  <rect x="32" y="24" width="1136" height="32" rx="3" fill="none" stroke="url(#pipeArrow)" stroke-width="0.5" opacity="0.4"/>

  <!-- Pipeline stage labels on top bar -->
  <text x="80" y="44" font-family="monospace" font-size="9" fill="#ff3366" font-weight="bold" text-anchor="middle">SOURCE</text>
  <text x="188" y="44" font-family="monospace" font-size="9" fill="#ff3366" font-weight="bold" text-anchor="middle">LINT</text>
  <text x="280" y="44" font-family="monospace" font-size="9" fill="#ffb800" font-weight="bold" text-anchor="middle">BUILD</text>
  <text x="382" y="44" font-family="monospace" font-size="9" fill="#ffb800" font-weight="bold" text-anchor="middle">UNIT TEST</text>
  <text x="492" y="44" font-family="monospace" font-size="9" fill="#00ff88" font-weight="bold" text-anchor="middle">SCAN</text>
  <text x="618" y="44" font-family="monospace" font-size="9" fill="#00ff88" font-weight="bold" text-anchor="middle">IMAGE BUILD</text>
  <text x="748" y="44" font-family="monospace" font-size="9" fill="#00ff88" font-weight="bold" text-anchor="middle">IMAGE SCAN</text>
  <text x="870" y="44" font-family="monospace" font-size="9" fill="#00d4ff" font-weight="bold" text-anchor="middle">DEPLOY DEV</text>
  <text x="980" y="44" font-family="monospace" font-size="9" fill="#ffb800" font-weight="bold" text-anchor="middle">GATE</text>
  <text x="1080" y="44" font-family="monospace" font-size="9" fill="#00d4ff" font-weight="bold" text-anchor="middle">DEPLOY PROD</text>

  <!-- Separator dots between stages -->
  <g fill="#21262d">
    <circle cx="134" cy="40" r="2"/><circle cx="234" cy="40" r="2"/>
    <circle cx="330" cy="40" r="2"/><circle cx="436" cy="40" r="2"/>
    <circle cx="555" cy="40" r="2"/><circle cx="683" cy="40" r="2"/>
    <circle cx="810" cy="40" r="2"/><circle cx="925" cy="40" r="2"/>
    <circle cx="1030" cy="40" r="2"/>
  </g>

  <!-- Pipeline arrow -->
  <line x1="40" y1="40" x2="48" y2="40" stroke="url(#pipeArrow)" stroke-width="2"/>
  <polygon points="1158,40 1148,34 1148,46" fill="#00d4ff"/>

  <!-- ===== CONTROL BAR: SA-3 / SA-11 spanning full pipeline ===== -->
  <rect x="30" y="64" width="1140" height="18" rx="2" fill="rgba(168,85,247,0.08)" stroke="#a855f7" stroke-width="0.5" opacity="0.6"/>
  <text x="600" y="76" font-family="monospace" font-size="9" fill="#a855f7" text-anchor="middle" font-weight="bold">SA-3 System Development Lifecycle | SA-11 Developer Testing &amp; Evaluation</text>

  <!-- ===== AUTHORIZATION BOUNDARY LINE ===== -->
  <line x1="235" y1="88" x2="235" y2="630" stroke="#ff3366" stroke-width="2" stroke-dasharray="6,3" opacity="0.5"/>
  <text x="120" y="98" font-family="monospace" font-size="8" fill="#ff3366" opacity="0.7" text-anchor="middle">OUTSIDE BOUNDARY</text>
  <text x="700" y="98" font-family="monospace" font-size="8" fill="#00ff88" opacity="0.7" text-anchor="middle">INSIDE AUTHORIZATION BOUNDARY (FedRAMP / DoW IL4-IL5 / Agency ATO)</text>

  <!-- ===== COLUMN 1: SOURCE (outside boundary) ===== -->
  <g transform="translate(30, 108)">
    <!-- GitHub/GitLab box -->
    <rect width="180" height="70" rx="4" fill="#120f14" stroke="#ff3366" stroke-width="1"/>
    <text x="90" y="20" font-family="monospace" font-size="10" fill="#e5e7eb" text-anchor="middle" font-weight="bold">GitHub / GitLab</text>
    <text x="90" y="35" font-family="monospace" font-size="8" fill="#6b7280" text-anchor="middle">Source Repository</text>
    <text x="90" y="55" font-family="monospace" font-size="8" fill="#ff3366" text-anchor="middle">Not FedRAMP Authorized</text>
    <!-- Control tags -->
    <rect x="10" y="78" width="38" height="14" rx="2" fill="rgba(255,51,102,0.12)" stroke="#ff3366" stroke-width="0.5"/>
    <text x="29" y="88" font-family="monospace" font-size="7" fill="#ff3366" text-anchor="middle">SA-9</text>
    <rect x="54" y="78" width="38" height="14" rx="2" fill="rgba(255,51,102,0.12)" stroke="#ff3366" stroke-width="0.5"/>
    <text x="73" y="88" font-family="monospace" font-size="7" fill="#ff3366" text-anchor="middle">SA-10</text>
    <rect x="98" y="78" width="38" height="14" rx="2" fill="rgba(255,51,102,0.12)" stroke="#ff3366" stroke-width="0.5"/>
    <text x="117" y="88" font-family="monospace" font-size="7" fill="#ff3366" text-anchor="middle">CM-5</text>
    <rect x="142" y="78" width="38" height="14" rx="2" fill="rgba(255,51,102,0.12)" stroke="#ff3366" stroke-width="0.5"/>
    <text x="161" y="88" font-family="monospace" font-size="7" fill="#ff3366" text-anchor="middle">AC-22</text>
  </g>

  <!-- ===== COLUMN 2: LINT (inside boundary) ===== -->
  <g transform="translate(245, 108)">
    <rect width="100" height="50" rx="4" fill="#0c1410" stroke="#00ff88" stroke-width="0.8"/>
    <text x="50" y="20" font-family="monospace" font-size="9" fill="#e5e7eb" text-anchor="middle">dockerfile lint</text>
    <text x="50" y="38" font-family="monospace" font-size="8" fill="#6b7280" text-anchor="middle">config validate</text>
    <!-- Sub-task boxes -->
    <rect x="0" y="58" width="100" height="32" rx="3" fill="#111318" stroke="#21262d" stroke-width="0.5"/>
    <text x="50" y="72" font-family="monospace" font-size="7" fill="#9ca3af" text-anchor="middle">find unauthorized</text>
    <text x="50" y="82" font-family="monospace" font-size="7" fill="#9ca3af" text-anchor="middle">stages</text>
  </g>

  <!-- ===== COLUMN 3: BUILD ===== -->
  <g transform="translate(360, 108)">
    <rect width="90" height="50" rx="4" fill="#12100d" stroke="#ffb800" stroke-width="0.8"/>
    <text x="45" y="20" font-family="monospace" font-size="9" fill="#e5e7eb" text-anchor="middle">build</text>
    <text x="45" y="38" font-family="monospace" font-size="8" fill="#6b7280" text-anchor="middle">compile + pkg</text>
  </g>

  <!-- ===== COLUMN 4: UNIT TESTS ===== -->
  <g transform="translate(360, 180)">
    <rect width="90" height="38" rx="3" fill="#111318" stroke="#ffb800" stroke-width="0.5"/>
    <text x="45" y="17" font-family="monospace" font-size="8" fill="#e5e7eb" text-anchor="middle">lint</text>
    <rect x="14" y="22" width="28" height="12" rx="2" fill="rgba(0,255,136,0.08)" stroke="#00ff88" stroke-width="0.4"/>
    <text x="28" y="31" font-family="monospace" font-size="6" fill="#00ff88" text-anchor="middle">SI-2</text>
    <rect x="48" y="22" width="28" height="12" rx="2" fill="rgba(0,255,136,0.08)" stroke="#00ff88" stroke-width="0.4"/>
    <text x="62" y="31" font-family="monospace" font-size="6" fill="#00ff88" text-anchor="middle">SA-11</text>

    <rect x="0" y="46" width="90" height="38" rx="3" fill="#111318" stroke="#ffb800" stroke-width="0.5"/>
    <text x="45" y="63" font-family="monospace" font-size="8" fill="#e5e7eb" text-anchor="middle">unit tests</text>
    <rect x="14" y="68" width="28" height="12" rx="2" fill="rgba(0,255,136,0.08)" stroke="#00ff88" stroke-width="0.4"/>
    <text x="28" y="77" font-family="monospace" font-size="6" fill="#00ff88" text-anchor="middle">SI-2</text>
  </g>

  <!-- ===== COLUMN 5: SCAN ===== -->
  <g transform="translate(468, 108)">
    <!-- dependency check -->
    <rect width="110" height="38" rx="3" fill="#111318" stroke="#00ff88" stroke-width="0.8"/>
    <text x="55" y="16" font-family="monospace" font-size="8" fill="#e5e7eb" text-anchor="middle">dependency check</text>
    <rect x="30" y="21" width="24" height="12" rx="2" fill="rgba(0,212,255,0.1)" stroke="#00d4ff" stroke-width="0.4"/>
    <text x="42" y="30" font-family="monospace" font-size="6" fill="#00d4ff" text-anchor="middle">SI-3</text>
    <rect x="58" y="21" width="24" height="12" rx="2" fill="rgba(168,85,247,0.1)" stroke="#a855f7" stroke-width="0.4"/>
    <text x="70" y="30" font-family="monospace" font-size="6" fill="#a855f7" text-anchor="middle">RA-5</text>

    <!-- fortify (SAST) -->
    <rect x="0" y="46" width="110" height="38" rx="3" fill="#111318" stroke="#00ff88" stroke-width="0.8"/>
    <text x="55" y="62" font-family="monospace" font-size="8" fill="#e5e7eb" text-anchor="middle">fortify (SAST)</text>
    <rect x="8" y="67" width="22" height="12" rx="2" fill="rgba(0,212,255,0.1)" stroke="#00d4ff" stroke-width="0.4"/>
    <text x="19" y="76" font-family="monospace" font-size="6" fill="#00d4ff" text-anchor="middle">SI-3</text>
    <rect x="34" y="67" width="22" height="12" rx="2" fill="rgba(0,255,136,0.1)" stroke="#00ff88" stroke-width="0.4"/>
    <text x="45" y="76" font-family="monospace" font-size="6" fill="#00ff88" text-anchor="middle">SI-7</text>
    <rect x="60" y="67" width="22" height="12" rx="2" fill="rgba(0,212,255,0.1)" stroke="#00d4ff" stroke-width="0.4"/>
    <text x="71" y="76" font-family="monospace" font-size="6" fill="#00d4ff" text-anchor="middle">SC-8</text>
    <rect x="86" y="67" width="22" height="12" rx="2" fill="rgba(168,85,247,0.1)" stroke="#a855f7" stroke-width="0.4"/>
    <text x="97" y="76" font-family="monospace" font-size="6" fill="#a855f7" text-anchor="middle">SA-12</text>

    <!-- sonarqube -->
    <rect x="0" y="92" width="110" height="38" rx="3" fill="#111318" stroke="#00ff88" stroke-width="0.8"/>
    <text x="55" y="108" font-family="monospace" font-size="8" fill="#e5e7eb" text-anchor="middle">sonarqube</text>
    <rect x="14" y="113" width="22" height="12" rx="2" fill="rgba(0,212,255,0.1)" stroke="#00d4ff" stroke-width="0.4"/>
    <text x="25" y="122" font-family="monospace" font-size="6" fill="#00d4ff" text-anchor="middle">SI-3</text>
    <rect x="40" y="113" width="22" height="12" rx="2" fill="rgba(0,255,136,0.1)" stroke="#00ff88" stroke-width="0.4"/>
    <text x="51" y="122" font-family="monospace" font-size="6" fill="#00ff88" text-anchor="middle">SI-7</text>
    <rect x="66" y="113" width="30" height="12" rx="2" fill="rgba(168,85,247,0.1)" stroke="#a855f7" stroke-width="0.4"/>
    <text x="81" y="122" font-family="monospace" font-size="6" fill="#a855f7" text-anchor="middle">SA-12</text>

    <!-- trufflehog -->
    <rect x="0" y="138" width="110" height="32" rx="3" fill="#111318" stroke="#00ff88" stroke-width="0.8"/>
    <text x="55" y="154" font-family="monospace" font-size="8" fill="#e5e7eb" text-anchor="middle">trufflehog</text>
    <rect x="35" y="159" width="22" height="12" rx="2" fill="rgba(255,184,0,0.1)" stroke="#ffb800" stroke-width="0.4"/>
    <text x="46" y="168" font-family="monospace" font-size="6" fill="#ffb800" text-anchor="middle">SI-4</text>

    <!-- clamAV -->
    <rect x="0" y="178" width="110" height="32" rx="3" fill="#111318" stroke="#00ff88" stroke-width="0.8"/>
    <text x="55" y="194" font-family="monospace" font-size="8" fill="#e5e7eb" text-anchor="middle">clamAV</text>
    <rect x="35" y="199" width="22" height="12" rx="2" fill="rgba(0,212,255,0.1)" stroke="#00d4ff" stroke-width="0.4"/>
    <text x="46" y="208" font-family="monospace" font-size="6" fill="#00d4ff" text-anchor="middle">SI-3</text>
  </g>

  <!-- ===== COLUMN 6: BUILD IMAGE ===== -->
  <g transform="translate(598, 108)">
    <rect width="110" height="50" rx="4" fill="#0c1410" stroke="#00ff88" stroke-width="0.8"/>
    <text x="55" y="20" font-family="monospace" font-size="9" fill="#e5e7eb" text-anchor="middle">build image</text>
    <text x="55" y="38" font-family="monospace" font-size="8" fill="#6b7280" text-anchor="middle">container registry</text>
  </g>

  <!-- ===== COLUMN 7: SCAN IMAGE ===== -->
  <g transform="translate(598, 170)">
    <!-- twistlock -->
    <rect width="110" height="38" rx="3" fill="#111318" stroke="#00ff88" stroke-width="0.8"/>
    <text x="55" y="16" font-family="monospace" font-size="8" fill="#e5e7eb" text-anchor="middle">twistlock scan</text>
    <rect x="8" y="21" width="22" height="12" rx="2" fill="rgba(255,184,0,0.1)" stroke="#ffb800" stroke-width="0.4"/>
    <text x="19" y="30" font-family="monospace" font-size="6" fill="#ffb800" text-anchor="middle">SI-4</text>
    <rect x="34" y="21" width="22" height="12" rx="2" fill="rgba(0,255,136,0.1)" stroke="#00ff88" stroke-width="0.4"/>
    <text x="45" y="30" font-family="monospace" font-size="6" fill="#00ff88" text-anchor="middle">SI-7</text>
    <rect x="60" y="21" width="22" height="12" rx="2" fill="rgba(0,212,255,0.1)" stroke="#00d4ff" stroke-width="0.4"/>
    <text x="71" y="30" font-family="monospace" font-size="6" fill="#00d4ff" text-anchor="middle">SC-8</text>

    <!-- openSCAP -->
    <rect x="0" y="46" width="110" height="32" rx="3" fill="#111318" stroke="#00ff88" stroke-width="0.8"/>
    <text x="55" y="62" font-family="monospace" font-size="8" fill="#e5e7eb" text-anchor="middle">openSCAP</text>
    <rect x="35" y="67" width="22" height="12" rx="2" fill="rgba(0,255,136,0.1)" stroke="#00ff88" stroke-width="0.4"/>
    <text x="46" y="76" font-family="monospace" font-size="6" fill="#00ff88" text-anchor="middle">SI-7</text>

    <!-- anchore -->
    <rect x="0" y="86" width="110" height="32" rx="3" fill="#111318" stroke="#00ff88" stroke-width="0.8"/>
    <text x="55" y="102" font-family="monospace" font-size="8" fill="#e5e7eb" text-anchor="middle">anchore (SBOM)</text>
    <rect x="35" y="107" width="22" height="12" rx="2" fill="rgba(0,255,136,0.1)" stroke="#00ff88" stroke-width="0.4"/>
    <text x="46" y="116" font-family="monospace" font-size="6" fill="#00ff88" text-anchor="middle">SI-7</text>
  </g>

  <!-- ===== COLUMN 8: DEPLOY DEV ===== -->
  <g transform="translate(730, 108)">
    <rect width="110" height="50" rx="4" fill="#0c1410" stroke="#00d4ff" stroke-width="0.8"/>
    <text x="55" y="20" font-family="monospace" font-size="9" fill="#e5e7eb" text-anchor="middle">deploy staging</text>
    <text x="55" y="38" font-family="monospace" font-size="8" fill="#6b7280" text-anchor="middle">dev environment</text>
    <!-- controls -->
    <rect x="10" y="58" width="28" height="12" rx="2" fill="rgba(0,212,255,0.1)" stroke="#00d4ff" stroke-width="0.4"/>
    <text x="24" y="67" font-family="monospace" font-size="6" fill="#00d4ff" text-anchor="middle">CM-3</text>
    <rect x="42" y="58" width="28" height="12" rx="2" fill="rgba(0,212,255,0.1)" stroke="#00d4ff" stroke-width="0.4"/>
    <text x="56" y="67" font-family="monospace" font-size="6" fill="#00d4ff" text-anchor="middle">SC-7</text>
    <rect x="74" y="58" width="28" height="12" rx="2" fill="rgba(0,212,255,0.1)" stroke="#00d4ff" stroke-width="0.4"/>
    <text x="88" y="67" font-family="monospace" font-size="6" fill="#00d4ff" text-anchor="middle">AU-2</text>
  </g>

  <!-- ===== COLUMN 9: E2E + GATE ===== -->
  <g transform="translate(860, 108)">
    <!-- e2e tests -->
    <rect width="100" height="38" rx="3" fill="#111318" stroke="#00d4ff" stroke-width="0.8"/>
    <text x="50" y="16" font-family="monospace" font-size="8" fill="#e5e7eb" text-anchor="middle">e2e tests</text>
    <rect x="15" y="21" width="22" height="12" rx="2" fill="rgba(0,255,136,0.1)" stroke="#00ff88" stroke-width="0.4"/>
    <text x="26" y="30" font-family="monospace" font-size="6" fill="#00ff88" text-anchor="middle">SI-2</text>

    <!-- pen test -->
    <rect x="0" y="46" width="100" height="38" rx="3" fill="#111318" stroke="#ffb800" stroke-width="0.8"/>
    <text x="50" y="63" font-family="monospace" font-size="8" fill="#e5e7eb" text-anchor="middle">pen test</text>
    <rect x="30" y="68" width="40" height="12" rx="2" fill="rgba(168,85,247,0.1)" stroke="#a855f7" stroke-width="0.4"/>
    <text x="50" y="77" font-family="monospace" font-size="6" fill="#a855f7" text-anchor="middle">CA-8</text>

    <!-- Manual gate -->
    <rect x="0" y="96" width="100" height="48" rx="4" fill="#12100d" stroke="#ffb800" stroke-width="1.5"/>
    <text x="50" y="116" font-family="monospace" font-size="9" fill="#ffb800" text-anchor="middle" font-weight="bold">MANUAL GATE</text>
    <text x="50" y="132" font-family="monospace" font-size="7" fill="#6b7280" text-anchor="middle">Human Approval</text>
    <rect x="20" y="149" width="28" height="12" rx="2" fill="rgba(255,184,0,0.12)" stroke="#ffb800" stroke-width="0.4"/>
    <text x="34" y="158" font-family="monospace" font-size="6" fill="#ffb800" text-anchor="middle">AC-6</text>
    <rect x="52" y="149" width="28" height="12" rx="2" fill="rgba(255,184,0,0.12)" stroke="#ffb800" stroke-width="0.4"/>
    <text x="66" y="158" font-family="monospace" font-size="6" fill="#ffb800" text-anchor="middle">CM-3</text>
  </g>

  <!-- ===== COLUMN 10: DEPLOY PROD / RELEASE ===== -->
  <g transform="translate(980, 108)">
    <rect width="110" height="50" rx="4" fill="#0c1214" stroke="#00d4ff" stroke-width="1"/>
    <text x="55" y="20" font-family="monospace" font-size="9" fill="#e5e7eb" text-anchor="middle" font-weight="bold">deploy prod</text>
    <text x="55" y="38" font-family="monospace" font-size="8" fill="#6b7280" text-anchor="middle">production env</text>

    <!-- Release types -->
    <rect x="0" y="60" width="110" height="24" rx="3" fill="#111318" stroke="#00d4ff" stroke-width="0.5"/>
    <text x="55" y="76" font-family="monospace" font-size="7" fill="#00d4ff" text-anchor="middle">release major</text>
    <rect x="0" y="90" width="110" height="24" rx="3" fill="#111318" stroke="#00d4ff" stroke-width="0.5"/>
    <text x="55" y="106" font-family="monospace" font-size="7" fill="#00d4ff" text-anchor="middle">release minor</text>
    <rect x="0" y="120" width="110" height="24" rx="3" fill="#111318" stroke="#00d4ff" stroke-width="0.5"/>
    <text x="55" y="136" font-family="monospace" font-size="7" fill="#00d4ff" text-anchor="middle">release patch</text>
    <!-- Controls -->
    <rect x="10" y="152" width="28" height="12" rx="2" fill="rgba(0,212,255,0.1)" stroke="#00d4ff" stroke-width="0.4"/>
    <text x="24" y="161" font-family="monospace" font-size="6" fill="#00d4ff" text-anchor="middle">AC-6</text>
    <rect x="42" y="152" width="28" height="12" rx="2" fill="rgba(0,212,255,0.1)" stroke="#00d4ff" stroke-width="0.4"/>
    <text x="56" y="161" font-family="monospace" font-size="6" fill="#00d4ff" text-anchor="middle">AC-2</text>
    <rect x="74" y="152" width="28" height="12" rx="2" fill="rgba(0,212,255,0.1)" stroke="#00d4ff" stroke-width="0.4"/>
    <text x="88" y="161" font-family="monospace" font-size="6" fill="#00d4ff" text-anchor="middle">SI-2</text>
  </g>

  <!-- ===== CONNECTING ARROWS between columns ===== -->
  <g stroke="#21262d" stroke-width="1" fill="none">
    <!-- Source to Lint -->
    <line x1="210" y1="143" x2="245" y2="143"/>
    <polygon points="243,139 251,143 243,147" fill="#21262d"/>
    <!-- Lint to Build -->
    <line x1="345" y1="133" x2="360" y2="133"/>
    <polygon points="358,129 366,133 358,137" fill="#21262d"/>
    <!-- Build to Unit Tests (down arrow) -->
    <line x1="405" y1="158" x2="405" y2="180"/>
    <polygon points="401,178 405,186 409,178" fill="#21262d"/>
    <!-- Unit Tests to Scan -->
    <line x1="450" y1="220" x2="468" y2="200"/>
    <polygon points="462,202 472,196 466,206" fill="#21262d"/>
    <!-- Scan to Build Image -->
    <line x1="578" y1="160" x2="598" y2="140"/>
    <polygon points="592,142 602,136 596,146" fill="#21262d"/>
    <!-- Build Image to Scan Image (down) -->
    <line x1="653" y1="158" x2="653" y2="170"/>
    <polygon points="649,168 653,176 657,168" fill="#21262d"/>
    <!-- Scan Image to Deploy Dev -->
    <line x1="708" y1="210" x2="730" y2="140"/>
    <polygon points="724,142 734,136 728,146" fill="#21262d"/>
    <!-- Deploy Dev to E2E -->
    <line x1="840" y1="133" x2="860" y2="127"/>
    <polygon points="854,123 864,123 858,133" fill="#21262d"/>
    <!-- Gate to Deploy Prod -->
    <line x1="960" y1="234" x2="980" y2="175"/>
    <polygon points="974,177 984,171 978,181" fill="#21262d"/>
  </g>

  <!-- ===== SDElements / Onboarding callout ===== -->
  <g transform="translate(30, 250)">
    <rect width="180" height="70" rx="8" fill="rgba(255,51,102,0.05)" stroke="#ff3366" stroke-width="1" stroke-dasharray="4,2"/>
    <text x="90" y="25" font-family="monospace" font-size="9" fill="#ff3366" text-anchor="middle" font-weight="bold">Threat Modeling /</text>
    <text x="90" y="38" font-family="monospace" font-size="9" fill="#ff3366" text-anchor="middle" font-weight="bold">Customer Onboarding</text>
    <rect x="60" y="48" width="60" height="14" rx="2" fill="rgba(168,85,247,0.12)" stroke="#a855f7" stroke-width="0.5"/>
    <text x="90" y="58" font-family="monospace" font-size="7" fill="#a855f7" text-anchor="middle">SA-15</text>
    <!-- Arrow pointing up -->
    <line x1="90" y1="0" x2="90" y2="-30" stroke="#ff3366" stroke-width="1.5"/>
    <polygon points="85,-28 90,-38 95,-28" fill="#ff3366"/>
  </g>

  <!-- ===== NIST CONTROL MAPPING TABLE ===== -->
  <g transform="translate(245, 370)">
    <!-- Table header -->
    <rect width="425" height="24" rx="3" fill="#161b22" stroke="#21262d" stroke-width="0.5"/>
    <text x="213" y="16" font-family="monospace" font-size="8" fill="#e5e7eb" text-anchor="middle" font-weight="bold">NIST 800-53 CONTROL MAPPING</text>

    <!-- Row 1 -->
    <rect x="0" y="28" width="212" height="22" rx="0" fill="rgba(168,85,247,0.05)" stroke="#21262d" stroke-width="0.5"/>
    <text x="106" y="43" font-family="monospace" font-size="7" fill="#a855f7" text-anchor="middle">CA-8 Penetration Testing</text>
    <rect x="213" y="28" width="212" height="22" rx="0" fill="rgba(0,212,255,0.05)" stroke="#21262d" stroke-width="0.5"/>
    <text x="319" y="43" font-family="monospace" font-size="7" fill="#00d4ff" text-anchor="middle">SC-8 Transmission Confidentiality</text>

    <!-- Row 2 -->
    <rect x="0" y="52" width="212" height="22" rx="0" fill="rgba(168,85,247,0.05)" stroke="#21262d" stroke-width="0.5"/>
    <text x="106" y="67" font-family="monospace" font-size="7" fill="#a855f7" text-anchor="middle">SA-3 System Development Lifecycle</text>
    <rect x="213" y="52" width="212" height="22" rx="0" fill="rgba(0,212,255,0.05)" stroke="#21262d" stroke-width="0.5"/>
    <text x="319" y="67" font-family="monospace" font-size="7" fill="#00d4ff" text-anchor="middle">SI-2 Flaw Remediation</text>

    <!-- Row 3 -->
    <rect x="0" y="76" width="212" height="22" rx="0" fill="rgba(168,85,247,0.05)" stroke="#21262d" stroke-width="0.5"/>
    <text x="106" y="91" font-family="monospace" font-size="7" fill="#a855f7" text-anchor="middle">SA-11 Developer Testing &amp; Eval</text>
    <rect x="213" y="76" width="212" height="22" rx="0" fill="rgba(0,212,255,0.05)" stroke="#21262d" stroke-width="0.5"/>
    <text x="319" y="91" font-family="monospace" font-size="7" fill="#00d4ff" text-anchor="middle">SI-3 Malicious Code Protection</text>

    <!-- Row 4 -->
    <rect x="0" y="100" width="212" height="22" rx="0" fill="rgba(168,85,247,0.05)" stroke="#21262d" stroke-width="0.5"/>
    <text x="106" y="115" font-family="monospace" font-size="7" fill="#a855f7" text-anchor="middle">SA-12 Supply Chain Protection</text>
    <rect x="213" y="100" width="212" height="22" rx="0" fill="rgba(0,212,255,0.05)" stroke="#21262d" stroke-width="0.5"/>
    <text x="319" y="115" font-family="monospace" font-size="7" fill="#00d4ff" text-anchor="middle">SI-4 Information System Monitoring</text>

    <!-- Row 5 -->
    <rect x="0" y="124" width="212" height="22" rx="0" fill="rgba(168,85,247,0.05)" stroke="#21262d" stroke-width="0.5"/>
    <text x="106" y="139" font-family="monospace" font-size="7" fill="#a855f7" text-anchor="middle">SA-15 Dev Process, Standards, Tools</text>
    <rect x="213" y="124" width="212" height="22" rx="0" fill="rgba(0,212,255,0.05)" stroke="#21262d" stroke-width="0.5"/>
    <text x="319" y="139" font-family="monospace" font-size="7" fill="#00d4ff" text-anchor="middle">SI-7 Software, Firmware &amp; Info Integrity</text>
  </g>

  <!-- ===== DoW / FedRAMP info panel (right side) ===== -->
  <g transform="translate(730, 370)">
    <rect width="360" height="146" rx="4" fill="#111318" stroke="#21262d" stroke-width="1"/>
    <rect x="0" y="0" width="360" height="22" rx="4" fill="#161b22"/>
    <rect x="0" y="14" width="360" height="8" fill="#161b22"/>
    <text x="180" y="15" font-family="monospace" font-size="8" fill="#ffb800" text-anchor="middle" font-weight="bold">FRAMEWORK APPLICABILITY</text>

    <text x="15" y="42" font-family="monospace" font-size="8" fill="#00ff88">FedRAMP Moderate</text>
    <text x="140" y="42" font-family="monospace" font-size="7" fill="#6b7280">NIST 800-53 Rev 5 baseline</text>

    <text x="15" y="60" font-family="monospace" font-size="8" fill="#00d4ff">DoW IL4</text>
    <text x="140" y="60" font-family="monospace" font-size="7" fill="#6b7280">DISA CC SRG + FedRAMP controls</text>

    <text x="15" y="78" font-family="monospace" font-size="8" fill="#00d4ff">DoW IL5</text>
    <text x="140" y="78" font-family="monospace" font-size="7" fill="#6b7280">NSA crypto + SCM inside boundary</text>

    <text x="15" y="96" font-family="monospace" font-size="8" fill="#a855f7">Agency ATO</text>
    <text x="140" y="96" font-family="monospace" font-size="7" fill="#6b7280">Agency-specific overlay + 800-53</text>

    <line x1="15" y1="108" x2="345" y2="108" stroke="#21262d" stroke-width="0.5"/>

    <text x="15" y="124" font-family="monospace" font-size="7" fill="#9ca3af">Pull-based architecture | FIPS 140 validated</text>
    <text x="15" y="138" font-family="monospace" font-size="7" fill="#9ca3af">Separation of duties | Manual promotion gate</text>
  </g>

  <!-- ===== PULL direction indicator ===== -->
  <g transform="translate(215, 140)" filter="url(#glow)">
    <rect x="-2" y="-14" width="44" height="18" rx="3" fill="#12100d" stroke="#ffb800" stroke-width="1"/>
    <text x="20" y="-1" font-family="monospace" font-size="8" fill="#ffb800" text-anchor="middle" font-weight="bold">PULL</text>
    <text x="20" y="16" font-family="monospace" font-size="6" fill="#6b7280" text-anchor="middle">TLS 443</text>
  </g>

  <!-- ===== Bottom bar ===== -->
  <rect x="30" y="540" width="1140" height="50" rx="4" fill="#111318" stroke="#21262d" stroke-width="1"/>
  <text x="600" y="562" font-family="monospace" font-size="11" fill="#e5e7eb" text-anchor="middle">Public Sector CI/CD Pipeline -- GitHub / GitLab CI --> Dev/Test --> Staging --> Production</text>
  <text x="600" y="580" font-family="monospace" font-size="8" fill="#6b7280" text-anchor="middle">NIST 800-53 Rev 5 | FedRAMP Moderate | DoW IL4/IL5 (DISA CC SRG) | FIPS 140 | Pull-Based Architecture | Manual Promotion Gate</text>

  <!-- ConMon frequency bar -->
  <g transform="translate(30, 600)">
    <rect width="1140" height="60" rx="4" fill="rgba(0,255,136,0.02)" stroke="#21262d" stroke-width="0.5"/>
    <text x="570" y="16" font-family="monospace" font-size="8" fill="#e5e7eb" text-anchor="middle" font-weight="bold">CONTINUOUS MONITORING SCHEDULE</text>

    <rect x="20" y="26" width="8" height="8" rx="1" fill="#00ff88"/>
    <text x="34" y="34" font-family="monospace" font-size="7" fill="#00ff88">Continuous: AU-2, CM-8(3)</text>

    <rect x="210" y="26" width="8" height="8" rx="1" fill="#00d4ff"/>
    <text x="224" y="34" font-family="monospace" font-size="7" fill="#00d4ff">Monthly: RA-5, CA-5, SI-7(1)</text>

    <rect x="420" y="26" width="8" height="8" rx="1" fill="#ffb800"/>
    <text x="434" y="34" font-family="monospace" font-size="7" fill="#ffb800">Quarterly: CM-5(5)</text>

    <rect x="590" y="26" width="8" height="8" rx="1" fill="#a855f7"/>
    <text x="604" y="34" font-family="monospace" font-size="7" fill="#a855f7">Annually: CA-8, PL-2, CM-9</text>

    <rect x="810" y="26" width="8" height="8" rx="1" fill="#ff3366"/>
    <text x="824" y="34" font-family="monospace" font-size="7" fill="#ff3366">60d: IA-5(g) password refresh</text>

    <text x="570" y="52" font-family="monospace" font-size="7" fill="#6b7280" text-anchor="middle">Pipeline generates compliance evidence as a natural byproduct of building and deploying software</text>
  </g>

  <!-- Border -->
  <rect x="0" y="0" width="1200" height="700" fill="none" stroke="#21262d" stroke-width="1"/>
</svg>